<svg xmlns="http://www.w3.org/2000/svg" width="24" height="25" fill="none" viewBox="0 0 24 25"><g clip-path="url(#clip0_298_3672)"><path fill="#76CF00" d="M17 2.406c-.55 0-1 .45-1 1v1H8v-1c0-.55-.45-1-1-1s-1 .45-1 1v1H5c-1.11 0-1.99.9-1.99 2l-.01 14a2 2 0 0 0 2 2h14c1.1 0 2-.9 2-2v-14c0-1.1-.9-2-2-2h-1v-1c0-.55-.45-1-1-1Zm2 18H5v-10h14v10Zm-8-7c0-.55.45-1 1-1s1 .45 1 1-.45 1-1 1-1-.45-1-1Zm-4 0c0-.55.45-1 1-1s1 .45 1 1-.45 1-1 1-1-.45-1-1Zm8 0c0-.55.45-1 1-1s1 .45 1 1-.45 1-1 1-1-.45-1-1Zm-4 4c0-.55.45-1 1-1s1 .45 1 1-.45 1-1 1-1-.45-1-1Zm-4 0c0-.55.45-1 1-1s1 .45 1 1-.45 1-1 1-1-.45-1-1Zm8 0c0-.55.45-1 1-1s1 .45 1 1-.45 1-1 1-1-.45-1-1Z"/></g><defs><clipPath id="clip0_298_3672"><rect width="24" height="24" y=".406" fill="#fff" rx="10"/></clipPath></defs></svg>