<svg xmlns="http://www.w3.org/2000/svg" width="60" height="60" fill="none" viewBox="0 0 60 60"><path fill="#2EB2FF" d="M0 0h60v60H0z"/><path fill="#fff" d="M46.125 22.5v21a2.638 2.638 0 0 1-2.625 2.625h-2.625v-26.25H43.5a2.638 2.638 0 0 1 2.625 2.625ZM16.5 19.875a2.638 2.638 0 0 0-2.625 2.625v21a2.638 2.638 0 0 0 2.625 2.625h2.625v-26.25H16.5ZM31.875 37.5v8.625h-3.75V37.5c0-.21.165-.375.375-.375h3c.21 0 .375.165.375.375Z"/><path fill="#fff" d="M35.625 13.875h-11.25c-1.65 0-3 1.35-3 3V45c0 .615.51 1.125 1.125 1.125h3.375V37.5a2.618 2.618 0 0 1 2.625-2.625h3a2.618 2.618 0 0 1 2.625 2.625v8.625H37.5c.615 0 1.125-.51 1.125-1.125V16.875c0-1.65-1.35-3-3-3ZM33 25.125h-1.875V27c0 .615-.51 1.125-1.125 1.125s-1.125-.51-1.125-1.125v-1.875H27c-.615 0-1.125-.51-1.125-1.125s.51-1.125 1.125-1.125h1.875V21c0-.615.51-1.125 1.125-1.125s1.125.51 1.125 1.125v1.875H33c.615 0 1.125.51 1.125 1.125s-.51 1.125-1.125 1.125Z"/></svg>