<svg xmlns="http://www.w3.org/2000/svg" width="24" height="25" fill="none" viewBox="0 0 24 25"><g clip-path="url(#clip0_298_3635)"><g clip-path="url(#clip1_298_3635)"><path fill="#0054AB" d="M20 8.406h-1v8c0 .55-.45 1-1 1H6v1c0 1.1.9 2 2 2h10l4 4v-14c0-1.1-.9-2-2-2Zm-3 5v-7c0-1.1-.9-2-2-2H4c-1.1 0-2 .9-2 2v13l4-4h9c1.1 0 2-.9 2-2Z"/></g></g><defs><clipPath id="clip0_298_3635"><rect width="24" height="24" y=".406" fill="#fff" rx="10"/></clipPath><clipPath id="clip1_298_3635"><path fill="#fff" d="M0 2.406h24v24H0z"/></clipPath></defs></svg>