<svg xmlns="http://www.w3.org/2000/svg" width="24" height="25" fill="none" viewBox="0 0 24 25"><g clip-path="url(#clip0_298_3686)"><path fill="#0062DD" d="M9 21.356H5c-1.1 0-2-.915-2-2.034V5.085c0-1.119.9-2.034 2-2.034h4c1.1 0 2 .915 2 2.034v14.237c0 1.119-.9 2.034-2 2.034Zm6 0h4c1.1 0 2-.915 2-2.034v-5.085c0-1.118-.9-2.034-2-2.034h-4c-1.1 0-2 .916-2 2.034v5.085c0 1.119.9 2.034 2 2.034Zm6-13.22V5.085c0-1.119-.9-2.034-2-2.034h-4c-1.1 0-2 .915-2 2.034v3.05c0 1.12.9 2.034 2 2.034h4c1.1 0 2-.915 2-2.033Z"/></g><defs><clipPath id="clip0_298_3686"><path fill="#fff" d="M0 0h24v24.407H0z"/></clipPath></defs></svg>