<svg xmlns="http://www.w3.org/2000/svg" width="24" height="25" fill="none" viewBox="0 0 24 25"><g clip-path="url(#clip0_298_3694)"><g clip-path="url(#clip1_298_3694)"><path fill="#E6C100" d="m12 14.306 1.5 1.15c.183.15.383.154.6.013.217-.142.283-.33.2-.563l-.6-1.9 1.675-1.3c.183-.15.233-.337.15-.562-.083-.225-.242-.338-.475-.338H13.1l-.625-1.925c-.083-.233-.242-.35-.475-.35-.233 0-.392.117-.475.35l-.625 1.925H8.925c-.233 0-.388.113-.463.338a.475.475 0 0 0 .163.562l1.625 1.3-.6 1.925c-.083.234-.025.421.175.563.2.141.4.137.6-.013L12 14.306Zm-8 6.1c-.55 0-1.02-.196-1.413-.587A1.926 1.926 0 0 1 2 18.406v-3.375c0-.183.058-.341.175-.475a.76.76 0 0 1 .45-.25c.4-.133.73-.375.987-.725.259-.35.388-.741.388-1.175 0-.433-.13-.825-.388-1.175a1.984 1.984 0 0 0-.987-.725.76.76 0 0 1-.45-.25A.697.697 0 0 1 2 9.781V6.406c0-.55.196-1.02.587-1.412A1.926 1.926 0 0 1 4 4.406h16c.55 0 1.02.196 1.413.588.391.391.587.862.587 1.412v3.375a.697.697 0 0 1-.175.475.76.76 0 0 1-.45.25c-.4.134-.73.375-.988.725A1.93 1.93 0 0 0 20 12.406c0 .434.13.825.387 1.175.259.35.588.592.988.725a.76.76 0 0 1 .45.25.697.697 0 0 1 .175.475v3.375c0 .55-.196 1.021-.587 1.413a1.926 1.926 0 0 1-1.413.587H4Z"/></g></g><defs><clipPath id="clip0_298_3694"><rect width="24" height="24" y=".406" fill="#fff" rx="10"/></clipPath><clipPath id="clip1_298_3694"><path fill="#fff" d="M0 .406h24v24H0z"/></clipPath></defs></svg>