<svg xmlns="http://www.w3.org/2000/svg" width="51" height="51" fill="none" viewBox="0 0 51 51"><path fill="#8CC63F" d="M24.998 16.713a11.21 11.21 0 0 0-7.34-2.733h-2.8A3.926 3.926 0 0 0 11 17.91a3.933 3.933 0 0 0 3.858 3.931H17.66a3.416 3.416 0 0 1 3.417 3.41 11.26 11.26 0 0 1 3.921-8.538ZM28.923 27.763v.012-2.525 2.513ZM21.094 28.322h-.022v-.549c0 .095-.01.19-.01.285a3.933 3.933 0 0 0 2.423 3.632c.476.197.987.299 1.503.299H25a3.923 3.923 0 0 1-3.906-3.667Z"/><path fill="#2EB2FF" d="M35.138 13.966h-2.801c-2.695-.002-5.3.969-7.34 2.733a11.254 11.254 0 0 1 3.927 8.537 3.421 3.421 0 0 1 3.417-3.41H35.143A3.926 3.926 0 0 0 39 17.896a3.933 3.933 0 0 0-3.858-3.931l-.005.001Z"/><path fill="#0062DD" d="M28.903 28.324a3.93 3.93 0 0 1-3.905 3.665h.01a3.925 3.925 0 0 0 3.927-3.93c0-.096 0-.192-.011-.286v.55l-.02.001Z"/><path fill="#0062DD" d="M25 16.713a11.25 11.25 0 0 0-3.927 8.537v3.075h.022a3.917 3.917 0 0 0 3.906 3.677 3.911 3.911 0 0 0 3.905-3.677h.022V25.25a11.26 11.26 0 0 0-3.927-8.537ZM24.941 12.03a4.014 4.014 0 0 0 4.012-4.015A4.013 4.013 0 0 0 24.941 4a4.014 4.014 0 0 0-4.012 4.015 4.014 4.014 0 0 0 4.012 4.015Z"/><path fill="#2EB2FF" d="M14.577 7.676s.059 1.954 1.023 2.994a1.367 1.367 0 0 0 2.069.022 1.366 1.366 0 0 0-.284-2.051 5.745 5.745 0 0 0-2.808-.965Z"/><path fill="#8CC63F" d="M35.447 7.676s-.057 1.954-1.023 2.994a1.367 1.367 0 0 1-2.069.022 1.367 1.367 0 0 1 .284-2.051 5.745 5.745 0 0 1 2.808-.965Z"/><path fill="#0062DD" d="M14.577 28.416s.059-1.955 1.023-2.994a1.367 1.367 0 0 1 2.069-.023 1.366 1.366 0 0 1-.284 2.052 5.746 5.746 0 0 1-2.808.965ZM35.447 28.521s-.057-1.954-1.023-2.994a1.366 1.366 0 1 0-1.785 2.029 5.745 5.745 0 0 0 2.808.965ZM4.944 39v6.386h3.232v1.665H3V39h1.944ZM15.156 39l-2.819 4.773v3.278h-1.979v-3.267L7.544 39h2.231l1.575 3.027L12.927 39h2.229ZM18.054 39v8.05h-1.862V39h1.862Zm-.575 0h3.6v1.667h-3.6V39Zm0 3.26h3.485v1.564H17.48V42.26ZM35.422 42.632h3.862a4.883 4.883 0 0 1-.188 1.715c-.15.513-.402.991-.741 1.405-.339.411-.768.738-1.254.955a4.101 4.101 0 0 1-1.723.343 4.694 4.694 0 0 1-1.679-.289 3.753 3.753 0 0 1-2.185-2.114 4.258 4.258 0 0 1-.312-1.655c-.008-.563.1-1.122.317-1.641.203-.48.508-.91.894-1.26a4.076 4.076 0 0 1 1.352-.807A4.856 4.856 0 0 1 35.444 39c.493-.006.983.071 1.45.23.414.144.8.36 1.139.638.33.27.618.589.856.943l-1.635.85a2.272 2.272 0 0 0-.703-.757 1.93 1.93 0 0 0-1.104-.3 2.43 2.43 0 0 0-1.162.283c-.35.187-.64.468-.838.813a2.508 2.508 0 0 0-.311 1.292c-.012.452.091.9.3 1.302.187.354.47.65.817.85a2.34 2.34 0 0 0 1.191.306c.254.003.508-.032.751-.104.21-.06.406-.16.579-.294.159-.127.297-.277.409-.447.112-.172.202-.357.267-.552h-2.028v-1.421ZM40.644 41.378a3.803 3.803 0 0 1 2.177-2.089 4.725 4.725 0 0 1 3.256 0c.485.185.928.465 1.304.824.371.357.665.788.861 1.265a4.14 4.14 0 0 1 .306 1.615 4.306 4.306 0 0 1-.3 1.626 3.8 3.8 0 0 1-.85 1.287 3.895 3.895 0 0 1-1.305.846 4.715 4.715 0 0 1-3.305 0 3.894 3.894 0 0 1-1.304-.846 3.798 3.798 0 0 1-.85-1.287 4.278 4.278 0 0 1-.3-1.626 4.1 4.1 0 0 1 .31-1.615Zm1.91 2.81c.17.336.43.618.752.813a2.331 2.331 0 0 0 2.27 0c.322-.195.582-.477.752-.813.184-.37.275-.78.267-1.195a2.615 2.615 0 0 0-.265-1.194 1.978 1.978 0 0 0-.742-.813 2.363 2.363 0 0 0-2.286 0 2.003 2.003 0 0 0-.752.813 2.805 2.805 0 0 0 0 2.389h.004Z"/><path fill="#0062DD" fill-rule="evenodd" d="M26.14 47.05a4.025 4.025 0 1 0 0-8.05 4.025 4.025 0 0 0 0 8.05Zm2.11-6.238c-.376-.396-.826-.53-1.438-.53-.32 0-.842.114-1.113.246a1.763 1.763 0 0 0-.658.529v-.652h-1.296v5.231h1.296v-2.889c0-.415.102-.733.306-.954.21-.226.494-.34.852-.34.351 0 .745 0 .949.228.191.206.19.599.19.99v2.966h1.296v-3.07c0-.704-.007-1.364-.384-1.755Z" clip-rule="evenodd"/></svg>