<svg xmlns="http://www.w3.org/2000/svg" width="24" height="25" fill="none" viewBox="0 0 24 25"><g clip-path="url(#clip0_298_3681)"><path fill="#2EB2FF" d="M16 11.406c1.66 0 2.99-1.34 2.99-3s-1.33-3-2.99-3c-1.66 0-3 1.34-3 3s1.34 3 3 3Zm-8 0c1.66 0 2.99-1.34 2.99-3s-1.33-3-2.99-3c-1.66 0-3 1.34-3 3s1.34 3 3 3Zm0 2c-2.33 0-7 1.17-7 3.5v1.5c0 .55.45 1 1 1h12c.55 0 1-.45 1-1v-1.5c0-2.33-4.67-3.5-7-3.5Zm8 0c-.29 0-.62.02-.97.05.02.01.03.03.04.04 1.14.83 1.93 1.94 1.93 3.41v1.5c0 .35-.07.69-.18 1H22c.55 0 1-.45 1-1v-1.5c0-2.33-4.67-3.5-7-3.5Z"/></g><defs><clipPath id="clip0_298_3681"><rect width="24" height="24" y=".406" fill="#fff" rx="10"/></clipPath></defs></svg>