<svg xmlns="http://www.w3.org/2000/svg" width="24" height="25" fill="none" viewBox="0 0 24 25"><g clip-path="url(#clip0_298_3669)"><path fill="#008D00" d="M18.89 5.407h-.53l.71-1.97c.24-.65-.1-1.37-.75-1.6-.65-.24-1.37.1-1.61.75l-1.02 2.82H5.1a2 2 0 0 0-1.9 2.63l1.8 5.37-1.79 5.37c-.44 1.29.53 2.63 1.89 2.63h13.78c1.36 0 2.33-1.34 1.9-2.63L19 13.407l1.78-5.37c.43-1.29-.53-2.63-1.89-2.63Zm-3.89 9h-2v2c0 .55-.45 1-1 1s-1-.45-1-1v-2H9c-.55 0-1-.45-1-1s.45-1 1-1h2v-2c0-.55.45-1 1-1s1 .45 1 1v2h2c.55 0 1 .45 1 1s-.45 1-1 1Z"/></g><defs><clipPath id="clip0_298_3669"><rect width="24" height="24" y=".406" fill="#fff" rx="10"/></clipPath></defs></svg>