<svg xmlns="http://www.w3.org/2000/svg" width="24" height="25" fill="none" viewBox="0 0 24 25"><path fill="orange" fill-rule="evenodd" d="M8.588 21.819c.391.391.862.587 1.412.587h12c.55 0 1.02-.196 1.413-.587.391-.392.587-.863.587-1.413l-1-12c0-.55-.108-1.108-.5-1.5-.392-.391-.95-.5-1.5-.5h-1c0-1.1-.392-2.041-1.175-2.825C18.042 2.798 17.1 2.406 16 2.406s-2.042.392-2.825 1.175C12.392 4.365 12 5.306 12 6.406h-1c-.55 0-1.108.109-1.5.5-.392.392-.5.95-.5 1.5l-1 12c0 .55.196 1.021.588 1.413Zm8.825-16.825c.391.391.587.862.587 1.412h-4c0-.55.196-1.02.588-1.412A1.926 1.926 0 0 1 16 4.406c.55 0 1.02.196 1.413.588Zm2.3 6.125a.968.968 0 0 1-.713.287.968.968 0 0 1-.712-.287.968.968 0 0 1-.288-.713v-2h2v2c0 .284-.096.521-.288.713Zm-6 0a.968.968 0 0 1-.713.287.968.968 0 0 1-.713-.287.968.968 0 0 1-.287-.713v-2h2v2c0 .284-.096.521-.287.713Zm1.928 9.16a.423.423 0 0 0 .313.127.433.433 0 0 0 .44-.444v-.49a2.145 2.145 0 0 0 1.144-.51c.308-.274.462-.674.462-1.2 0-.422-.13-.795-.39-1.117-.26-.322-.644-.557-1.15-.705-.543-.156-.924-.304-1.144-.445-.22-.14-.33-.333-.33-.578 0-.214.084-.394.253-.538.169-.145.414-.217.737-.217.19 0 .35.028.478.083.129.056.24.135.336.239a.798.798 0 0 0 .308.217c.11.04.216.039.319-.006a.414.414 0 0 0 .247-.255.345.345 0 0 0-.038-.323c-.132-.2-.3-.368-.506-.505a1.802 1.802 0 0 0-.726-.272v-.49a.433.433 0 0 0-.44-.444.432.432 0 0 0-.44.444v.49c-.323.037-.638.188-.946.455-.308.267-.462.64-.462 1.122 0 .4.117.74.352 1.017.235.278.667.517 1.298.717.587.192.96.364 1.122.516.161.152.242.358.242.617 0 .289-.105.502-.314.639a1.364 1.364 0 0 1-.764.206c-.279 0-.513-.058-.704-.173a1.335 1.335 0 0 1-.473-.505.513.513 0 0 0-.253-.24.384.384 0 0 0-.32-.005.455.455 0 0 0-.258.25.38.38 0 0 0 .006.328c.154.333.356.593.605.778.25.185.539.315.869.389v.51c0 .127.042.232.127.318Z" clip-rule="evenodd"/><path stroke="orange" stroke-linecap="round" d="M7 10.406H4M7 14.406H1M7 18.406H3"/></svg>