<svg xmlns="http://www.w3.org/2000/svg" width="400" height="200" fill="none" viewBox="0 0 400 200"><path fill="#E8E8E8" d="M191.16 73.956c.66 1.378 1.309 2.753 1.982 4.088a439.138 439.138 0 0 1 5.505 11.337c.847 1.81 1.266 2.91.906 4.908a5.745 5.745 0 0 1-2.209 3.837c-3.844 2.658-7.812-1.844-9.752-4.645-.396-.572-.789-1.144-1.181-1.718-2.436-3.584-4.794-7.3-6.264-11.4-1.203-3.356-1.15-6.687-1.755-10.115a43.414 43.414 0 0 1-.656-5.39c-.059-1.192-.51-5.5.799-5.9a2.547 2.547 0 0 1 1.842.329c2.604 1.31 4.39 3.78 6.073 6.16a58.28 58.28 0 0 1 4.71 8.508Z"/><path fill="#0C064E" d="M190.023 190.703a.555.555 0 0 1-.348-.123c-4.124-3.291-9.596-4.591-14.895-5.505a46.228 46.228 0 0 0-5.218-.667c-7.29-.409-14.41 2.25-19.8 4.61a23.06 23.06 0 0 0-2.101 1.014.54.54 0 0 1-.424.053.564.564 0 0 1-.405-.47.558.558 0 0 1 .28-.554 23.636 23.636 0 0 1 2.203-1.066c5.503-2.411 12.788-5.12 20.309-4.702 1.794.125 3.579.353 5.346.681 5.446.94 11.081 2.285 15.401 5.734a.555.555 0 0 1 .178.621.556.556 0 0 1-.526.373v.001Z"/><path fill="#E3F7FE" d="M150.45 192.323a3.56 3.56 0 0 1-4.257 3.493 3.564 3.564 0 0 1-2.596-4.856 3.567 3.567 0 0 1 3.291-2.199 3.56 3.56 0 0 1 3.562 3.562Z"/><path fill="#0C064E" d="M148.275 192.323a1.384 1.384 0 0 1-.857 1.282 1.385 1.385 0 0 1-1.513-.301 1.383 1.383 0 0 1-.301-1.513 1.39 1.39 0 0 1 2.671.532Z"/><path fill="#E3F7FE" d="M194.186 192.323a3.565 3.565 0 0 1-6.08 2.518 3.557 3.557 0 0 1-.772-3.881 3.56 3.56 0 0 1 6.852 1.363Z"/><path fill="#0C064E" d="M192.017 192.323a1.384 1.384 0 0 1-.857 1.282 1.385 1.385 0 0 1-1.513-.301 1.383 1.383 0 0 1-.301-1.513 1.39 1.39 0 0 1 2.671.532ZM169.951 190.693a.559.559 0 0 1-.558-.559v-54.332a.557.557 0 0 1 .951-.391.558.558 0 0 1 .166.391v54.332a.559.559 0 0 1-.559.559Z"/><path fill="#E3F7FE" d="M173.7 191.824a3.56 3.56 0 0 1-4.257 3.493 3.56 3.56 0 0 1-2.596-4.856 3.567 3.567 0 0 1 3.291-2.199 3.56 3.56 0 0 1 3.562 3.562Z"/><path fill="#0C064E" d="M171.525 191.824a1.384 1.384 0 0 1-.857 1.282 1.385 1.385 0 0 1-1.513-.301 1.383 1.383 0 0 1-.301-1.513 1.39 1.39 0 0 1 2.671.532Z"/><path fill="#FF4284" d="M189.852 111.563a12.466 12.466 0 0 1-3.682.332c-2.229-.28-4.438-.807-6.727-.95a58.9 58.9 0 0 0-13.975.79c-5.203.927-10.519.924-15.724 1.829-4.366.76-8.617.8-9.492 6.258-.673 4.197 1.728 8.434 5.108 11.01 3.38 2.576 7.598 3.77 11.756 4.649 9.103 1.924 19.15 3.098 28.378 1.431 4.779-.864 9.59-2.838 12.607-6.644 3.661-4.618 3.309-10.736-.065-15.344-1.372-1.873-3.424-3.384-5.74-3.55-.819-.037-1.64.027-2.444.189Z"/><path fill="#FF4284" d="M145.833 127.315a8.043 8.043 0 0 1-3.974-1.64c-2.609-2.132-3.144-5.852-3.41-9.211-.828-10.45-.441-20.756-.158-31.186.135-4.988-.096-9.99.312-14.97.353-4.307.668-10.41 4.512-13.1 5.632-3.942 14.4-5.894 20.697-2.39 4.468 2.486 7.26 7.195 9.054 11.984 4.125 11.008 3.997 23.141 2.804 34.837-.428 4.204-1 8.444-2.542 12.378-3.836 9.784-12.838 12.322-22.523 13.304a19.34 19.34 0 0 1-4.772-.006Z"/><path fill="#F9926E" d="M208.944 69.427a5.276 5.276 0 0 1-.323-1.344 5.075 5.075 0 0 1 .603-1.819c.137-.3.201-.63.186-.96a11.232 11.232 0 0 1-.257-1.204.605.605 0 0 1 .155-.48.538.538 0 0 1 .488-.067c.322.098.603.299.8.571.809 1.047.621 2.575.905 3.801-.107-.46.483-1.189.733-1.517.412-.578.785-1.183 1.119-1.81.689-1.212 1.304-2.465 1.919-3.716.181-.446.412-.871.689-1.266a.77.77 0 0 1 .545-.356c.346.005.457.519.461.794a2.957 2.957 0 0 1-.25 1.06l-1.414 3.806c1.1-1.664 1.563-3.668 2.516-5.42.125-.275.32-.512.565-.687a.655.655 0 0 1 .823.076.906.906 0 0 1 .095.747c-.371 1.997-1.698 3.684-2.324 5.616-.046.144-.073.333.052.415.271.178 2.506-4.375 2.938-4.616a.714.714 0 0 1 .821-.01.581.581 0 0 1 .148.486c-.03.172-.085.34-.165.496a48.512 48.512 0 0 1-1.199 2.484c-.418.8-.956 1.555-1.345 2.367-.068.142-.192.642-.314.72l2.182-1.84c.188-.181.409-.324.651-.42a.689.689 0 0 1 .721.147c.405.458-.038.9-.334 1.216-.481.513-.95 1.014-1.457 1.506-.664.644-1.106 1.534-1.802 2.116-.804.673-1.716 1.243-2.454 1.993a39.034 39.034 0 0 0-4.486 5.108c-.06.088-.139.187-.246.184a.32.32 0 0 1-.179-.085 16.964 16.964 0 0 1-2.732-3.12c-.703-.906.473-1.468.863-2.243a3.892 3.892 0 0 0 .303-2.729Z"/><path fill="#8BABEA" d="M161.828 172.307a2.161 2.161 0 0 1-.67-.237c-.793-.377-1.531-1.397-2.16-2.002-.595-.573-2.624-2.007-2.724-2.894a1.913 1.913 0 0 1 .317-1.074l1.684-3.187c4.029-7.626 8.099-15.313 13.606-21.951 4.032-4.86 8.91-9.012 12.748-14.032 1.501-1.963 2.581-3.896 4.53-5.476 1.873-1.518 3.866-2.983 5.408-4.871a.494.494 0 0 1 .305-.221.48.48 0 0 1 .315.132 12.583 12.583 0 0 1 4.654 7.613c.211 1.518.255 3.054.13 4.581-.04 1.651-.756 2.747-1.638 4.149-3.928 6.242-10.066 11.417-15.153 16.755-6.814 7.151-14.158 14.068-20.351 21.746-.534.663-.63 1-1.001.969Z"/><path fill="#0C064E" d="M151.988 171.704c.477-.463.966-.912 1.469-1.348a5.879 5.879 0 0 0 .465 2.511c.465.987 1 1.94 1.6 2.851a16.89 16.89 0 0 0 3.484 3.864c.372.283.763.802 1.283.687.461-.103 1.109-1.082 1.514-1.008.399.074 1.088 2.042 1.28 2.427l2.607 5.219c.266.503.497 1.023.691 1.558.216.639.578 1.685-.14 2.091a2.241 2.241 0 0 1-2.348-.244c-3.867-3.579-7.28-7.598-10.688-11.611a29.061 29.061 0 0 1-1.918-2.229c-.443-.643-1.153-1.53-1.085-2.354a2.63 2.63 0 0 1 .881-1.504c.296-.309.597-.612.905-.91Z"/><path fill="#FFAC88" d="M153.924 172.868a23.224 23.224 0 0 0 1.601 2.85 16.845 16.845 0 0 0 3.484 3.864c.371.284.763.802 1.283.687.414-.092.978-.886 1.382-.993-.203-.46-.417-.915-.646-1.362a4.25 4.25 0 0 1-.143-4.147 9.416 9.416 0 0 1 1.333-1.627.446.446 0 0 1-.386.168 2.181 2.181 0 0 1-.669-.237c-.794-.377-1.532-1.397-2.161-2.002-.577-.556-2.498-1.92-2.705-2.811a9.858 9.858 0 0 1-1.149 1.42c-.553.598-1.142 1.166-1.684 1.774a5.664 5.664 0 0 0 .46 2.416Z"/><path fill="#8BABEA" d="M194.821 123.382a10.198 10.198 0 0 1-3.254 2.946c-3.734 1.966-8.264.246-12.114-1.48l-13.551-6.075c-2.557-1.146-5.179-2.337-7.134-4.344-4.031-4.139-2.474-10.788 3.508-11.285 3.428-.286 6.862-.489 10.3-.612 1.513-.054 3.739-.522 5.194-.134 1.295.346 2.546 1.625 3.626 2.442a174.388 174.388 0 0 1 15.165 12.889c.316.248.55.585.674.967.214 1.003-.88 1.384-1.275 2.101-.476.865-.503 1.748-1.139 2.585Z"/><path fill="#0C064E" d="M161.443 25.275c2.469-.54 4.585.597 7.037.743 1.598.103 3.16.516 4.599 1.216 1.342.646 1.719 1.486 2.427 2.752a18.343 18.343 0 0 1 2.231 8.023c.086 1.417.335 2.81.35 4.25-.06 1.53.056 3.063.345 4.567.574 2.357 1.794 4.29 1.712 6.852a7.323 7.323 0 0 1-2.366 5.354c-.753.641-1.661 1.085-2.402 1.74-3.058 2.706-2.209 7.636-3.628 11.465-1.076 2.904-3.533 5.162-6.346 6.458a21.527 21.527 0 0 1-9.059 1.702c-4.454-.007-8.99-.882-12.818-3.157-2.392-1.42-4.615-3.675-4.722-6.455-.08-2.054 1.009-4.156.34-6.1-.394-1.142-1.338-2.01-1.866-3.097-1.099-2.261-.179-5.055 1.431-6.985a9.918 9.918 0 0 1 2.8-2.469c1.007-.54 2.143-.837 3.004-1.627 2.404-2.204 1.073-6.794 3.586-8.874.828-.685 1.935-.948 2.796-1.593 1.955-1.464 2.05-4.283 2.746-6.625.936-3.15 3.883-6.808 7.059-7.928.243-.086.492-.157.744-.212Z"/><path fill="#0C064E" d="M168.393 37.386a7.853 7.853 0 0 1-3.381-3.773 5.042 5.042 0 0 0-.809-1.572 11.718 11.718 0 0 1-4.205 7.012 2.43 2.43 0 0 0-.601.59c-.12.222-.198.465-.231.716a46.897 46.897 0 0 0-.526 5.536c-.014.216-.149 3.19-.213 3.195-1.261.303-2.592-.408-3.397-1.425a5.875 5.875 0 0 1-1.333-3.562c.012-1.26-.342-2.447-.297-3.717.043-1.256.168-2.508.376-3.747a17.267 17.267 0 0 1 2.536-6.861 11.968 11.968 0 0 1 6.025-4.561 5.376 5.376 0 0 1 3.627.013c.254.156.534.265.826.321.358-.071.703-.2 1.021-.38a5.34 5.34 0 0 1 2.216-.25 6.63 6.63 0 0 1 2.846.945c2.411 1.469 3.866 4.01 4.874 6.558a9.986 9.986 0 0 1 .781 3.175c.099 2.08-.777 4.07-1.667 5.952a6.27 6.27 0 0 0-.779-2.702 1.798 1.798 0 0 0-1.345-.99 4.143 4.143 0 0 1-1.072-.105 1.688 1.688 0 0 1-.769-1.118l-.135 1.175-1.62-.006-.615-1.405-.063 1.231a.555.555 0 0 1-.061.272c-.125.194-.417.157-.637.086a7.528 7.528 0 0 1-1.372-.603Z"/><path fill="#FFAC88" d="M176.818 41.13a6.255 6.255 0 0 0-.733-2.28 1.796 1.796 0 0 0-1.345-.991c-.36.012-.72-.023-1.071-.105a1.704 1.704 0 0 1-.77-1.117l-.134 1.175-1.62-.006-.615-1.405-.063 1.23a.545.545 0 0 1-.062.272c-.124.195-.416.157-.636.086a7.567 7.567 0 0 1-1.373-.602 7.857 7.857 0 0 1-3.381-3.774 5.045 5.045 0 0 0-.809-1.572 11.716 11.716 0 0 1-4.204 7.013c-.233.16-.437.359-.601.589a2.09 2.09 0 0 0-.232.717c-.037.199-.064.399-.095.6a5.63 5.63 0 0 0-.679-1.105 1.663 1.663 0 0 0-1.298-.778c-.698.046-1.103.824-1.207 1.516-.296 1.97.751 3.962 2.267 5.253.234.23.541.368.868.39.082.367.183.73.304 1.085a12.792 12.792 0 0 0 3.575 5.034c1.748 1.628 4.51 3.585 7.006 2.625 1.3-.5 2.445-1.639 3.398-2.62 1.909-1.964 3.39-4.535 3.584-7.312.091-1.305-.114-2.614-.074-3.918Z"/><path fill="#070630" d="M166.249 36.199c.137.046.26.124.361.226a.626.626 0 0 1 .194.396.387.387 0 0 1-.205.37.63.63 0 0 1-.218.043 16.105 16.105 0 0 0-2.698.213c-.12.037-.246.055-.372.052a.366.366 0 0 1-.306-.19c-.366-.81 2.146-1.085 2.544-1.133a1.85 1.85 0 0 1 .586-.008.886.886 0 0 1 .114.03ZM172.62 36.199a.93.93 0 0 0-.361.226.625.625 0 0 0-.193.396.385.385 0 0 0 .204.37c.07.027.144.042.218.043.904-.005 1.806.067 2.698.213.12.037.246.055.372.052a.361.361 0 0 0 .306-.19c.367-.81-2.145-1.085-2.544-1.133a1.849 1.849 0 0 0-.586-.008.932.932 0 0 0-.114.03ZM164.718 39.307a.956.956 0 0 1 1.434.454 2.015 2.015 0 0 1-.086 1.63.915.915 0 0 1-1.105.578 1.039 1.039 0 0 1-.675-.86 2.185 2.185 0 0 1-.038-.427c.003-.494-.022-1.071.47-1.375ZM174.588 39.761a2.015 2.015 0 0 1-.086 1.63.921.921 0 0 1-1.106.579 1.037 1.037 0 0 1-.675-.861 2.182 2.182 0 0 1-.037-.427c.002-.494-.022-1.071.469-1.375a.96.96 0 0 1 1.198.096c.105.1.186.223.237.358Z"/><path fill="#F9926E" d="m168.261 45.035-.189.053a1.708 1.708 0 0 0 1.61.265.831.831 0 0 0 .539-1.095l-.877-2.167c.015.408.058.814.128 1.216.062.245.076.5.04.751a1.175 1.175 0 0 1-.568.707c-.215.12-.445.21-.683.27Z"/><path fill="#EA734E" d="M168.808 49.861c-.269.001-.537-.04-.793-.122a2.999 2.999 0 0 1-1.737-1.8.224.224 0 0 1 .006-.171.222.222 0 0 1 .125-.118.227.227 0 0 1 .291.13 2.53 2.53 0 0 0 1.453 1.53 2.428 2.428 0 0 0 2.805-1.162.228.228 0 0 1 .132-.112.223.223 0 0 1 .171.014.222.222 0 0 1 .112.132.228.228 0 0 1-.014.171 2.906 2.906 0 0 1-2.551 1.508Z"/><path fill="#FF8A8A" d="M165.598 43.725c.014-.68-.931-1.25-2.11-1.274-1.18-.025-2.148.507-2.162 1.186-.014.68.931 1.25 2.111 1.274 1.18.025 2.147-.507 2.161-1.186ZM172.555 43.637c-.014.68.931 1.25 2.111 1.274 1.179.024 2.147-.507 2.161-1.186.014-.68-.931-1.25-2.111-1.275-1.179-.024-2.147.507-2.161 1.187Z"/><path fill="#FC748C" d="M167.213 68.585c.368.474.739.946 1.114 1.415a143.81 143.81 0 0 1 2.453-6.507c.382-.951.798-1.893 1.163-2.85a8.074 8.074 0 0 1 1.141-2.325.086.086 0 0 1 .037-.03.088.088 0 0 1 .066.014c.267.11.56.138.842.078.365.003.731.027 1.094.072.873.058 2.76-.206 3.235.585.439.732.248 1.87.389 2.685.494 2.841-.299 6.117-.416 8.978-.141 3.428-.11 6.86-.115 10.29-.012 6.797-.121 13.68-1.875 20.293a2.735 2.735 0 0 1-.932 1.674 2.821 2.821 0 0 1-1.551.315l-15.778.134a278.663 278.663 0 0 1-1.935-23.207c-.281-6.791 1.004-14.672-.815-21.24.031.099 4.938-.568 5.13-.622-.128.036 1.27 2.379 1.417 2.571.513.668.791 1.398 1.26 2.09a109.91 109.91 0 0 0 4.076 5.587Z"/><path fill="#F9926E" d="M160.464 58.337c-.129.036 1.27 2.379 1.417 2.571.513.668.79 1.398 1.26 2.09a109.892 109.892 0 0 0 4.075 5.587c.368.474.74.946 1.115 1.415.758-2.19 1.589-4.355 2.453-6.506.382-.952.797-1.894 1.162-2.852a8.238 8.238 0 0 1 1.12-2.292c-.012-.006-.024-.01-.036-.017-1.369-.71-1.124-1.762-1.23-3.085l-.107-1.361a6.666 6.666 0 0 1-1.782 1.092c-2.496.96-5.258-.997-7.006-2.624a20.576 20.576 0 0 1-.928-.922c.014 1.175.089 2.363.101 3.515.015 1.299-.163 2.461-1.375 3.235-.114.069-.233.128-.357.175l.118-.02Z"/><path fill="#A5BCF6" d="m170.853 106.429-.042-.039c-1.1-1.017-2.156-2.122-3.488-2.808-2.114-1.087-3.65.035-5.731.038-2.146.003-4.406.108-6.395 1-1.624.728-3.919 1.719-4.557 3.523a7.585 7.585 0 0 0-.09 3.914c1.262 6.703 5.674 10.877 11.291 14.163 9.141 5.345 18.975 10.174 29.679 11.091a3.816 3.816 0 0 0 1.96-.191c4.319-2.036 2.843-9.27.86-12.295-1.872-2.858-4.617-4.506-7.34-6.445l-9.245-6.585a69.48 69.48 0 0 1-6.902-5.366Z"/><path fill="#A5BCF6" d="M200.667 184.289c-.19.144-.402.256-.629.332-.814.328-2.065.179-2.936.231-.824.05-3.254.57-3.974.042a1.921 1.921 0 0 1-.575-.961l-1.202-3.398c-2.877-8.131-5.771-16.333-6.92-24.881-.84-6.259-.588-12.66-1.678-18.884-.406-2.318-1.242-4.083-1.01-6.565.198-2.126.907-4.386 2.725-5.677 1.759-1.248 4.207-1.246 6.17-.352.756.344 1.411.821 2.179 1.114.669.254.929.069 1.514.647 1.095 1.084 1.663 3.319 2.053 4.759 1.928 7.119 1.573 15.14 2.051 22.498.64 9.856.749 19.945 2.198 29.702.125.842.307 1.141.034 1.393Z"/><path fill="#fff" d="M162.49 74.627c.649 21.92 1.147 43.839 1.216 65.77a1.002 1.002 0 0 1-.299 1.002 1 1 0 0 1-1.028.196 161.77 161.77 0 0 1-18.706-2.302c-.638-.116 1.734-14.832 1.985-16.199.875-4.759 1.562-9.16 1.991-13.911 1.052-11.642 4.551-22.387 3.594-34.292-.338-4.205-.409-8.319-.665-12.509a8.13 8.13 0 0 1-.01-1.277.95.95 0 0 1 .144-.474c.095-.114.214-.206.347-.27 1.254-.6 2.578-1.041 3.941-1.314a20.532 20.532 0 0 1 5.024-.536c.239 0 1.466 7.91 1.605 8.663.257 1.385.723 2.88.766 4.288l.095 3.165ZM181.472 64.572a143.808 143.808 0 0 0-1.379-3.723 5.378 5.378 0 0 0-1.033-1.877c-.908-.938-2.594-.607-3.794-.663a4.693 4.693 0 0 1-1.87-.18c.299.77.738 1.486 1.014 2.273 1.172 3.352 1.139 7.158 1.234 10.666.175 6.514-.405 13.06-.171 19.557.148 4.094 1.549 8.473 2.935 12.305.903 2.493 1.715 5.434 3.236 7.62 1.32 1.898 2.264 4.159 3.871 5.86a27.06 27.06 0 0 0 3.999 3.131 23.937 23.937 0 0 1 6.386 6.53 14.447 14.447 0 0 1 2.332 8.728c1.769-1.01 2.44-3.223 2.627-5.251.476-5.163-1.312-8.953-3.986-13.12-3.077-4.795-7.487-8.93-9.306-14.37-2.168-6.484-2.436-13.399-2.774-20.168-.175-3.51-.316-6.88-1.172-10.3-.594-2.375-1.333-4.71-2.149-7.018Z"/><path fill="#0C064E" d="M193.553 191.116a35.83 35.83 0 0 1 .004-1.994 5.904 5.904 0 0 0 2.162 1.361c1.041.326 2.104.578 3.181.754 1.721.288 3.476.308 5.202.058.461-.081 1.107-.018 1.375-.478.237-.409-.044-1.549.285-1.796.324-.244 2.239.583 2.652.703l5.605 1.62c.549.145 1.088.328 1.613.548.616.274 1.631.717 1.443 1.521a2.237 2.237 0 0 1-1.771 1.56c-5.253.418-10.521.204-15.781-.01a28.822 28.822 0 0 1-2.939-.1c-.773-.11-1.906-.189-2.466-.797a2.632 2.632 0 0 1-.509-1.668 34.248 34.248 0 0 1-.056-1.282Z"/><path fill="#FFAC88" d="M195.721 190.483c1.041.326 2.104.579 3.181.755 1.721.288 3.476.307 5.202.057.461-.081 1.107-.017 1.375-.478.213-.367.011-1.32.207-1.69a27.17 27.17 0 0 0-1.439-.447 4.255 4.255 0 0 1-3.146-2.706 9.324 9.324 0 0 1-.293-2.082.447.447 0 0 1-.138.397c-.19.144-.402.256-.629.332-.814.328-2.065.179-2.936.231-.8.048-3.104.536-3.9.084.144.593.233 1.198.265 1.807.065.813.084 1.63.163 2.441a5.664 5.664 0 0 0 2.088 1.299Z"/><path fill="#fff" d="M200.873 96.948a15.24 15.24 0 0 1-3.748 1.988c-.75.307-1.56.44-2.369.385a5.802 5.802 0 0 1-2.78-1.36 4.721 4.721 0 0 1-1.367-1.453c-1.025-1.944.529-3.966 1.43-5.605a18.979 18.979 0 0 1 2.07-3.464c1.139-1.293 2.308-2.557 3.427-3.869 2.237-2.622 4.389-5.315 6.54-8.008l3.785-4.735 5.825 5.396a1.073 1.073 0 0 1 .522.73 1.08 1.08 0 0 1-.208.875 94.652 94.652 0 0 1-5.826 10.143c-2.07 3.138-4.232 6.763-7.301 8.977Z"/><path fill="#E3F7FE" d="M200.914 106.928V64.912H168.5v42.016h32.414Z"/><path fill="#E8E8E8" d="M162.685 81.55a.996.996 0 0 0-.293.006c-.689.127-1.241.965-1.901.732-.981-1.536-1.332-3.376-1.747-5.15a59.541 59.541 0 0 0-4.18-11.962c1.23 3.306 2.843 7.94 2.269 11.507-.474 2.94-2.036 5.574-3.569 8.128l-2.639 4.4c-.908 6.625-2.362 13.145-2.979 19.972-.149 1.651-.34 3.255-.548 4.85 1.943-1.929 3.381-4.416 5.092-6.599 3.381-4.313 7.362-8.099 10.848-12.328a3405.98 3405.98 0 0 0-.353-13.555Z"/><path fill="#FFAC88" d="M160.588 84.32c.21-.188.432-.363.663-.525.749-.52 1.544-.968 2.375-1.34.256-.158.555-.234.856-.216.295.048.56.37.434.641.028-.06.302-.157.376-.204.172-.108.331-.234.503-.34.488-.304.953-.644 1.422-.976 1.282-.908 2.506-1.893 3.731-2.876a7.19 7.19 0 0 1 1.307-.963.87.87 0 0 1 .727-.103c.35.17.218.747.091 1.03-.192.365-.45.69-.76.961l-2.06 2.028c-.366.34-.755.656-1.164.943a1.013 1.013 0 0 1 .621.675 1.015 1.015 0 0 1-.184.898c-.034.042-.072.101-.039.144a.126.126 0 0 0 .058.033 1.42 1.42 0 0 1 .703 1.578 2.28 2.28 0 0 1-1.172 1.38.475.475 0 0 1 .165.503c-.055.18-.152.345-.283.48a5.696 5.696 0 0 1-2.304 1.605c-.715.274-1.35.659-2.062.935a40.517 40.517 0 0 0-5.959 2.678.376.376 0 0 1-.34.071.357.357 0 0 1-.141-.173 19.063 19.063 0 0 1-1.299-4.487c-.285-1.26 1.183-1.271 1.95-1.876.388-.306.722-.673.991-1.087.212-.326.292-.723.486-1.047.085-.137.189-.26.308-.37Z"/><path fill="#fff" d="M133.561 106.527a3.197 3.197 0 0 0 2.628.797c1.258-.147 2.331-.96 3.269-1.813 5.373-4.885 8.391-11.771 12.557-17.72a37.63 37.63 0 0 0 2.827-4.924c1.226-2.5 2.137-5.095 1.696-7.88a14.626 14.626 0 0 0-.491-1.966c-.298-.87-.53-1.761-.694-2.666-.184-1.27-.146-2.472-.522-3.748a10.996 10.996 0 0 0-1.382-3.053c-.505-.748-.915-2.041-1.644-2.59-.915-.69-1.527.084-2.193.824-2.076 2.309-3.63 5.03-5.167 7.729l-4.431 7.78c-.771 1.353-1.306 2.787-1.987 4.18a74.584 74.584 0 0 0-6.185 17.34c-.443 2.115-.34 5.75 1.373 7.353 2.022 1.891 5.952-.99 6.939-2.899"/><path fill="#fff" d="M141.246 107.654c-1.38.338-2.801.48-4.221.424a5.301 5.301 0 0 1-2.34-.538c-1.56-.857-2.504-2.45-1.978-4.121a10.669 10.669 0 0 1 2.47-4.137c2.223-2.345 5.201-3.811 8.033-5.275 3.062-1.583 6.072-3.264 9.082-4.943l5.293-2.955 3.354 7.197a1.088 1.088 0 0 1 .026 1.296 1.095 1.095 0 0 1-.341.308 94.47 94.47 0 0 1-9.227 7.191c-3.102 2.123-6.473 4.663-10.151 5.553Z"/><path stroke="#DDD" stroke-linecap="round" stroke-linejoin="round" stroke-width="1.038" d="M136.662 97.874c3.003-2.415 5.871-4.805 9.474-6.253 3.538-1.422 7.514-3.612 11.122-4.968M143.564 106.876c6.42-3.234 12.834-7.455 17.674-12.77a736.923 736.923 0 0 1-3.838-7.532M149.912 89.808c2.328-1.955 3.341-4.347 4.653-6.97 1.441-2.883 2.274-5.434 2.028-8.73-.233-3.12-1.193-6.135-2.147-9.116M163.027 91.284c.178 5.191.351 10.397.27 15.591M160.174 58.496c2.209 7.593 2.097 16.232 2.49 24.063"/><path stroke="#ED825D" stroke-linecap="round" stroke-linejoin="round" stroke-width=".519" d="M157.627 41.779a.399.399 0 0 0-.145.29 2.162 2.162 0 0 0-.004.96.846.846 0 0 0 .659.633"/><path stroke="#ED825D" stroke-linecap="round" stroke-linejoin="round" stroke-width=".519" d="M157.572 42.917c.143-.104.302-.184.471-.235a.532.532 0 0 1 .495.108"/><path stroke="#0C064E" stroke-miterlimit="10" stroke-width=".519" d="M141.108 74.132c-1.953-1.172-2.906-3.582-2.872-5.86.016-1.087.222-2.192-.029-3.249-.299-1.255-1.2-2.276-1.692-3.469a6.545 6.545 0 0 1 .405-5.501 9.328 9.328 0 0 1 4.113-3.815c1.122-.56 2.379-.973 3.197-1.923 1.261-1.462 1.055-3.644 1.621-5.49a6.595 6.595 0 0 1 2.096-3.132 34.995 34.995 0 0 1 3.107-1.95 10.52 10.52 0 0 0 3.446-3.767M166.164 25.827a4.278 4.278 0 0 1 1.566-.587c2.17-.433 4.712-.166 6.423 1.318a13.389 13.389 0 0 1 3.828 5.337 9.838 9.838 0 0 1-.172 7.564M177.719 39.59c.162 5.126 3.461 9.941 2.805 15.027-.2 1.546-1.027 3.266-2.564 3.52"/><path stroke="#070630" stroke-linecap="round" stroke-linejoin="round" stroke-width=".519" d="M141.97 71.612c-.869-.955-.784-2.434-.454-3.682.33-1.248.855-2.501.688-3.781-.321-2.467-3.117-4.333-2.742-6.792.186-1.214 1.139-2.176 2.18-2.828 1.041-.651 2.21-1.082 3.231-1.764a7.852 7.852 0 0 0 3.219-4.56c.272-1.078.316-2.226.79-3.233.666-1.418 2.06-2.319 3.286-3.294 1.226-.974 2.424-2.277 2.401-3.844M166.664 27.22a7.594 7.594 0 0 0 3.409 8.495M169.014 26.436a5.069 5.069 0 0 1 3.175 1.07 9.358 9.358 0 0 1 2.246 2.55 16.424 16.424 0 0 1 2.5 7.581M154.752 43.388a6.267 6.267 0 0 1-.538 4.131c-.81 1.59-2.255 2.75-3.302 4.194a9.863 9.863 0 0 0-1.516 8.226M177.391 48.365a20.68 20.68 0 0 1 1.245 4.63 6.938 6.938 0 0 1-.952 4.612"/><path stroke="#8BABEA" stroke-linecap="round" stroke-miterlimit="10" stroke-width="1.038" d="M163.699 112.265c4.892 4.33 9.793 8.106 15.529 11.234 2.688 1.467 5.578 2.898 7.275 5.447 1.609 2.415 1.885 5.446 2.181 8.332 1.663 16.256 4.781 31.446 8.51 47.355"/><path stroke="#A5BCF6" stroke-linecap="round" stroke-miterlimit="10" stroke-width="1.038" d="m158.971 168.895 23.607-32.18"/><path stroke="#8BABEA" stroke-linecap="round" stroke-miterlimit="10" stroke-width="1.038" d="M182.451 135.68c1.052.109 2.113.084 3.158-.075"/><path fill="#91AEF2" d="M121.816 109.79 96.076 196l-1.075-.321 25.739-86.21 1.076.321ZM198.655 109.163l-.041-.163-1.288.447 21.921 85.639.042.164 1.287-.448-21.921-85.639Z"/><path fill="#0C064E" d="M217.011 106.929H100.934v4.896h116.077v-4.896Z"/><g style="mix-blend-mode:multiply"><path fill="#1AC698" d="M132.404 71.583a2.323 2.323 0 0 0-3.112.649 5.119 5.119 0 0 0-.266.46c-.121.28-.301.53-.526.736a1.955 1.955 0 0 1-1.082.28 5.83 5.83 0 0 0-.484.049 1.63 1.63 0 0 0-.992.555c-.092-.298-.2-.59-.309-.878a10.787 10.787 0 0 1-.395-1.176 8.486 8.486 0 0 1 .027-3.477.154.154 0 0 0 .02-.113c.054-.31.112-.618.171-.925.116-.606.236-1.233.312-1.85.288-2.334-.453-5.011-2.428-5.61-1.105-.337-2.446.077-3.589 1.103a7.168 7.168 0 0 0-.774.827c-.011 0-.021-.01-.033-.007a.164.164 0 0 0-.109.066.16.16 0 0 0-.03.125l.005.031a7.738 7.738 0 0 0-1.445 3.459c-.015.097-.02.195-.031.292a3.73 3.73 0 0 0-1.49-1.968 1.704 1.704 0 0 1-.753-.889 2.65 2.65 0 0 1-.076-.758 2.737 2.737 0 0 0-.119-.934 2.703 2.703 0 0 0-1.301-1.281 2.753 2.753 0 0 1-1.136-1.012 2.98 2.98 0 0 1-.222-1.002l-.016-.143a4.704 4.704 0 0 0-.728-2.237 2.109 2.109 0 0 0-2.056-.957c-.032.006-.063.02-.094.03-.014-.001-.026-.011-.04-.008-.022.005-.034.023-.052.035a2.295 2.295 0 0 0-1.389 1.83 4.66 4.66 0 0 0 .392 2.498l.067.165c.224.43.329.911.305 1.395-.076.33-.218.642-.416.916-.145.22-.269.453-.37.696-.336.88.064 1.864.45 2.622.157.283.345.548.561.79.392.368.637.865.69 1.4-.025.323-.111.64-.255.93-.074.17-.139.345-.195.523a2.832 2.832 0 0 0 .439 2.41l-.012-.004a15.245 15.245 0 0 1-.453-.178c-1.046-.433-1.433-1.296-1.844-2.21a5.847 5.847 0 0 0-1.211-1.947 2.467 2.467 0 0 0-2.859-.486 2.372 2.372 0 0 0-1.241 2.53c.138.667.407 1.3.792 1.863.147.248.299.505.426.763.366.745.558 1.565.561 2.395.001.342-.03.694-.062 1.034-.081.601-.08 1.21.001 1.812.265 1.467 1.386 2.504 2.472 3.506.92.85 1.872 1.73 2.288 2.864.239.78.348 1.596.324 2.412.004.527.04 1.054.107 1.577a6.507 6.507 0 0 0 2.171 3.91c1.109.85 2.353 1.511 3.679 1.954a.167.167 0 0 0 .123-.313 12.341 12.341 0 0 1-3.584-1.895 6.158 6.158 0 0 1-1.739-2.508c1.407.3 2.83.523 4.262.666l.016.001a.16.16 0 0 0 .067-.025 10.59 10.59 0 0 0 2.803 2.395.168.168 0 1 0 .185-.28c-1.079-.719-2.304-1.533-3.012-2.763-.656-1.135-.757-2.865.206-3.794.142-.132.295-.25.459-.353.002.004 0 .008.002.013a15.394 15.394 0 0 0 3.732 4.28c.004.003.009.002.013.005-.031.863-.06 1.723-.088 2.58a.17.17 0 0 0 .045.12.171.171 0 0 0 .117.053h.005a.168.168 0 0 0 .168-.162c.084-2.516.169-5.065.314-7.621.012.005.024.01.037.012a.167.167 0 0 0 .053-.009c.592-.196 1.205-.398 1.789-.654.778-.343 1.51-.782 2.18-1.307a3.512 3.512 0 0 0-.229 1.73 5.81 5.81 0 0 0 .482 1.509c.095.225.189.449.27.678.995 2.815-.308 5.61-3.874 8.305a.166.166 0 0 0-.059.084c-.01.033-.01.07.001.103a.17.17 0 0 0 .159.114.167.167 0 0 0 .101-.034c3.696-2.793 5.038-5.715 3.988-8.684-.017-.049-.039-.096-.057-.144a42.233 42.233 0 0 1 8.779-12.953.168.168 0 0 0 .037-.067.153.153 0 0 0 .001-.077 2.306 2.306 0 0 1 .497 2.63c-.221.386-.5.737-.827 1.04a4.57 4.57 0 0 0-.902 1.16 4.844 4.844 0 0 0-.333 2.041 4.84 4.84 0 0 1-.261 1.826 4.774 4.774 0 0 1-1.509 1.677c-.749.61-1.524 1.242-1.688 2.246-.043.349-.041.702.004 1.05.016.174.031.348.035.522a3.567 3.567 0 0 1-2.789 3.522.168.168 0 0 0 .026.333c.009 0 .018 0 .026-.002a3.867 3.867 0 0 0 3.072-3.86 8.28 8.28 0 0 0-.036-.544 3.913 3.913 0 0 1-.007-.968c.143-.878.836-1.442 1.569-2.04a5.034 5.034 0 0 0 1.606-1.805c.22-.626.317-1.288.287-1.95a4.557 4.557 0 0 1 .299-1.903c.221-.4.505-.762.842-1.072.351-.327.649-.705.885-1.123a2.609 2.609 0 0 0-.813-3.227Zm-2.834.836c.22-.318.53-.562.891-.7.102.48.247.95.432 1.406.012.027.031.05.055.068-.368.4-.723.81-1.075 1.223a11.41 11.41 0 0 1-.578-1.517l.027-.05c.075-.148.158-.29.248-.43Zm-.867 1.275a1.63 1.63 0 0 0 .366-.407c.147.465.328.919.541 1.358a.15.15 0 0 0 .033.036c-.498.598-.979 1.211-1.444 1.84a20.89 20.89 0 0 1-.598-2.492c.392 0 .776-.117 1.102-.335Zm-1.719.393c.092-.014.187-.02.281-.027.165.951.393 1.89.684 2.81-.243.336-.488.67-.722 1.015-.152-.485-.3-.994-.444-1.498-.176-.617-.358-1.256-.549-1.833-.005-.017-.021-.023-.031-.036.202-.23.478-.383.781-.43Zm-1.777 7.084a18.963 18.963 0 0 1-.677-1.777c-.008-.025-.03-.038-.047-.056.263-.363.525-.732.764-1.109.224.519.444 1.046.649 1.579.012.03.032.056.059.075-.254.423-.505.851-.748 1.288Zm-.964 1.824a28.732 28.732 0 0 1-.813-2.055c.251-.448.529-.881.833-1.295.208.631.448 1.251.719 1.858.006.013.018.02.026.03-.261.48-.516.967-.765 1.462Zm1.221-5.122c.448-.705.69-1.52.699-2.355-.001-.031-.007-.061-.009-.092.104.349.206.703.306 1.054.171.595.346 1.208.529 1.769-.284.428-.567.858-.838 1.3a42.698 42.698 0 0 0-.687-1.676Zm-.029-12.02c-.075.605-.194 1.226-.309 1.827-.061.318-.121.638-.176.959a14.264 14.264 0 0 1-4.876 3.04c.04-.216.072-.433.114-.648.157-.8.335-1.597.521-2.393l.001-.006c.639-2.743 1.418-5.458 2.182-8.104.118.016.236.04.35.074 1.797.547 2.464 3.055 2.193 5.25Zm-5.46-4.217a3.968 3.968 0 0 1 2.574-1.128c-.729 2.524-1.473 5.111-2.093 7.728a4.215 4.215 0 0 1-.49-1.393 81.696 81.696 0 0 1-.802-4.331c.244-.316.515-.608.811-.876Zm-2.278 4.3a7.4 7.4 0 0 1 1.193-3.04c.218 1.348.466 2.697.749 4.017.089.636.337 1.239.722 1.752a67.84 67.84 0 0 0-.5 2.302c-.48 2.442-.812 4.915-1.053 7.394-1.698-1.427-2.606-3.586-3.395-5.526.227-.393.481-.77.761-1.128a5.673 5.673 0 0 0 1.244-2.42.154.154 0 0 0 .085-.118c.072-.55.096-1.105.072-1.659.013-.526.053-1.052.121-1.574h.001Zm-6.479-9.788c.396.627.626 1.342.67 2.082l.015.14c.018.385.105.763.256 1.117.302.495.74.893 1.261 1.147a1.813 1.813 0 0 1 1.26 1.933 2.92 2.92 0 0 0 .091.853c.16.45.474.827.885 1.068a3.656 3.656 0 0 1 1.58 3.084c-.014.51-.054 1.017-.121 1.522a5.145 5.145 0 0 1-1.209 2.411c-.289.371-.552.763-.786 1.17a.153.153 0 0 0-.058.114l-.01.018a95.618 95.618 0 0 1-5.511-17.485 1.795 1.795 0 0 1 1.677.826Zm-1.806 12.768c.052-.167.114-.33.183-.492.162-.33.257-.689.28-1.055a2.504 2.504 0 0 0-.766-1.615 4.133 4.133 0 0 1-.521-.73c-.355-.695-.724-1.592-.435-2.35.094-.223.208-.437.342-.639.223-.312.38-.666.461-1.04a2.97 2.97 0 0 0-.325-1.573l-.065-.163a4.346 4.346 0 0 1-.374-2.32 2.013 2.013 0 0 1 1.029-1.513 95.773 95.773 0 0 0 5.555 17.59.16.16 0 0 0 .123.092c-.09.208-.162.422-.216.64a8.277 8.277 0 0 0 .245 4.276 2.304 2.304 0 0 0-.598-.407 4.042 4.042 0 0 0-.528-.185 2.747 2.747 0 0 1-.63-.243c-.549-.324-.885-1.039-1.03-2.186l-.035-.294a4.566 4.566 0 0 0-.708-2.334 2.47 2.47 0 0 0-.526-.485.164.164 0 0 0-.095-.09 1.88 1.88 0 0 1-.168-.083 4.654 4.654 0 0 0-.231-.124 2.506 2.506 0 0 1-.967-2.677Zm-6.45-1.987a37.299 37.299 0 0 1 2.858 3.656 102.937 102.937 0 0 0-3.431-1.302c-.019-.006-.036.003-.055.003a2.713 2.713 0 0 1-.093-.398 2.078 2.078 0 0 1 .721-1.959Zm.028 3.698a9.074 9.074 0 0 1-.509-.953c1.223.44 2.459.911 3.68 1.404.504.746.994 1.512 1.468 2.29-1.286-.499-2.597-.93-3.928-1.292a5.68 5.68 0 0 0-.273-.663c-.132-.27-.288-.532-.438-.786Zm.967 6.115a6.488 6.488 0 0 1 .004-1.722l.001-.01c.885.295 1.813.61 2.744.927 1.002.34 2.003.681 2.948.996a.187.187 0 0 0 .018.003c.389.717.766 1.433 1.129 2.141l-6.693-1.79a3.324 3.324 0 0 1-.151-.545Zm2.857-1.122a578.25 578.25 0 0 0-2.824-.955 8.41 8.41 0 0 0 .034-.71 5.805 5.805 0 0 0-.209-1.494c1.353.372 2.685.816 3.99 1.332a.167.167 0 0 0 .149.156h.015l.008-.002c.505.847.993 1.703 1.462 2.56-.85-.285-1.735-.584-2.625-.887Zm-2.542 2.058 6.625 1.772a.1.1 0 0 0 .089-.01c.387.759.759 1.506 1.117 2.235-.888-.295-1.8-.512-2.725-.649a15.862 15.862 0 0 1-2.699-.637c-.117-.11-.235-.218-.352-.326a8.86 8.86 0 0 1-2.055-2.385Zm2.947 3.237c.692.183 1.394.33 2.101.44.987.14 1.958.378 2.897.712.019.008.04.012.061.012.007 0 .013-.005.02-.006.333.68.653 1.34.959 1.979a98.48 98.48 0 0 1-2.043-.36c-.801-.146-1.629-.3-2.451-.425-.022-.07-.035-.142-.061-.211a6.095 6.095 0 0 0-1.483-2.141Zm6.28 7.557c.03.052.066.099.097.15a38.963 38.963 0 0 1-4.085-.645.15.15 0 0 0-.142.044 5.81 5.81 0 0 1-.218-.91 10.915 10.915 0 0 1-.095-1.29c1.353.254 2.632.476 3.898.678.019.692.206 1.369.545 1.973Zm-.539-2.312a139.138 139.138 0 0 1-3.917-.682c0-.623-.06-1.244-.179-1.855.767.12 1.54.261 2.289.4.746.136 1.516.277 2.282.397l.024.05a.163.163 0 0 0 .078.074 2.9 2.9 0 0 0-.577 1.616Zm.824-1.908a.165.165 0 0 0-.04-.084.16.16 0 0 0-.081-.047c-2.56-5.316-6.037-12.483-10.42-17.38.021-.012.038-.027.06-.037a2.14 2.14 0 0 1 2.475.429c.495.534.882 1.16 1.137 1.842.419.934.853 1.9 2.022 2.383.151.062.306.122.461.18.272.105.545.215.805.343.071.043.145.082.222.117.272.146.514.345.71.584.401.653.622 1.4.639 2.166l.036.298c.158 1.256.548 2.052 1.192 2.432.222.122.459.214.705.276.165.045.327.1.485.168.428.21.78.547 1.009.965.111.319.233.644.37.98.113.275.239.585.339.908.029.114.057.228.084.344.002.009.012.012.015.02.143.48.109.995-.096 1.451-.29.443-.702.794-1.185 1.01-.339.18-.656.399-.944.652Zm.962-.252c-.003-.005-.01-.005-.014-.011.055-.032.109-.067.163-.1.54-.245.997-.643 1.315-1.143a2.685 2.685 0 0 0 .024-2.058 7.387 7.387 0 0 0-.724-1.934c-.674-1.944-.84-3.563-.503-4.925a3.78 3.78 0 0 1 .204-.602c.776 1.896 1.76 4.136 3.554 5.546l.004.001c-.287 3.091-.437 6.19-.551 9.258A15.064 15.064 0 0 1 114.746 84Zm5.761-1.533c-.557.245-1.15.44-1.724.63.189-3.698.598-7.383 1.224-11.034a14.64 14.64 0 0 0 4.859-2.892 8.106 8.106 0 0 0 .047 3.169c.111.412.247.817.407 1.213.162.404.296.82.403 1.241-.014.1-.01.201.011.3.01.032.03.06.058.081.018.116.03.233.036.35.033 1.334-.808 2.497-1.62 3.622-.361.483-.695.985-1.001 1.504-.021 0-.04-.01-.06-.003a.163.163 0 0 0-.096.085.156.156 0 0 0-.017.063.178.178 0 0 0 .009.064l.015.04a.162.162 0 0 0-.102.033 9.896 9.896 0 0 1-2.449 1.534Zm2.876 2.109a5.565 5.565 0 0 1-.459-1.423 3.311 3.311 0 0 1 .303-1.797c.25.69.522 1.373.822 2.037-.21.43-.415.867-.615 1.31-.018-.043-.033-.086-.051-.127Zm8.763-12.638c-.329.329-.645.669-.962 1.007a7.935 7.935 0 0 1-.402-1.323l-.001-.002a1.877 1.877 0 0 1 1.437.242c.014.01.024.022.037.03a.163.163 0 0 0-.109.046Z"/></g><path fill="#E55C26" d="m125.078 106.929 1.119-7.32a57.47 57.47 0 0 0 .833-7.862 1.834 1.834 0 0 0-.48-1.535c-.526-.406-1.407-.413-2.04-.44a104.509 104.509 0 0 0-14.594.401c-1.125.11-1.434.594-1.272 1.653.244 1.598.402 3.222.642 4.829a66.998 66.998 0 0 0 2.383 10.274h13.409Z"/><path fill="#91AEF2" d="M245.469 128.534a.868.868 0 0 0-.648.066.839.839 0 0 0-.412.495l-20.045 65.832a.814.814 0 0 0 .067.635.846.846 0 0 0 .75.437.868.868 0 0 0 .509-.166.838.838 0 0 0 .308-.43l20.045-65.832a.819.819 0 0 0-.068-.635.846.846 0 0 0-.506-.402ZM271.573 129.09a.86.86 0 0 0-.139-.285.78.78 0 0 0-.231-.206.713.713 0 0 0-.844.087.815.815 0 0 0-.191.247.887.887 0 0 0-.06.628l17.971 65.099c.048.17.145.319.276.425a.73.73 0 0 0 .675.13.782.782 0 0 0 .454-.398.88.88 0 0 0 .06-.628l-17.971-65.099ZM254.385 121.786a1.035 1.035 0 0 0-.738.073.932.932 0 0 0-.469.538l-22.809 71.684a.857.857 0 0 0 .076.692c.122.211.33.369.576.438a1.018 1.018 0 0 0 .856-.143.912.912 0 0 0 .351-.468l22.81-71.685a.856.856 0 0 0-.077-.691.96.96 0 0 0-.576-.438ZM305.285 194.081 281.093 122.4a.876.876 0 0 0-.187-.315 1.09 1.09 0 0 0-.694-.331 1.14 1.14 0 0 0-.754.2.935.935 0 0 0-.256.273.825.825 0 0 0-.081.691l24.192 71.682a.927.927 0 0 0 .372.468 1.13 1.13 0 0 0 .908.143c.262-.069.482-.227.611-.438a.814.814 0 0 0 .081-.692Z"/><path fill="#FFBA9C" d="M225.187 161.807c.179-.922 1.189-3.294 1.949-5.648l-7.991-1.555a3.064 3.064 0 0 1-.16-.036 117.302 117.302 0 0 0-1.589 11.029 14.04 14.04 0 0 1-4.697 9.349 58.226 58.226 0 0 0-3.583 3.532 5.973 5.973 0 0 0-1.093 1.458 2.174 2.174 0 0 0-.117 1.771.6.6 0 0 0 .259.317.627.627 0 0 0 .312.044c1.047-.058 1.889-.835 2.688-1.515a32.036 32.036 0 0 1 4.049-2.87c1.213-.746 2.624-1.256 3.76-2.059a42.831 42.831 0 0 0 3.988-3.156c1.027-.928 2.755-1.435 3.4-2.728.995-1.993-.988-3.594-1.291-5.461a7.062 7.062 0 0 1 .116-2.472ZM254.492 179.965c-.544-2.069-.511-4.173-.856-6.253-.027-.159-.05-.318-.075-.477-.301.116-.6.237-.904.347-2.226.805-4.427 1.465-6.687 2.084l.781 2.823c.219.793.44 1.591.592 2.398.103.53.167 1.066.192 1.605a6.738 6.738 0 0 1-.906 3.834c-.69 1.042-2.089 1.556-3.21 2.046a59.53 59.53 0 0 0-4.519 2.211 6.058 6.058 0 0 0-1.5 1.036 2.19 2.19 0 0 0-.672 1.643.59.59 0 0 0 .144.382c.08.071.177.119.282.141 1.011.278 2.057-.192 3.03-.583a32.013 32.013 0 0 1 4.751-1.436c1.387-.322 2.887-.358 4.219-.759 2.073-.624 4.029-1.882 6.212-2.26.807-.14 1.978-.072 2.463-.901.861-1.476-.779-2.785-1.5-3.896a13.763 13.763 0 0 1-1.837-3.985Z"/><path fill="#fff" d="M280.74 130.341a96.802 96.802 0 0 0 3.823-12.816l4.147-17c1.216-4.984 2.434-10.003 2.881-15.126.486-5.564-.077-12.814-4.659-16.668-3.607-3.033-6.77-5.098-11.794-5.014-4.92.081-9.525 2.795-12.809 6.46-3.284 3.664-5.406 8.214-7.169 12.808a74.365 74.365 0 0 0-3.836 14.22c-1.199 6.878-3.433 10.824-10.291 13.836-5.455 2.396-10.215 7.354-11.468 13.365-1.022 4.897.884 10.572 5.267 12.984 2.975 1.637 6.541 1.614 9.933 1.731 5.678.197 11.339.904 17.019.806 4.529-.079 11.118-.363 14.876-3.268 1.735-1.34 3.082-3.827 4.08-6.318Z"/><path fill="#E55C26" d="M258.126 187.169c-.196.02-.388.071-.568.151a47.863 47.863 0 0 1-9.817 2.894.38.38 0 0 1-.468-.107.382.382 0 0 1-.073-.155c-.262-.633-.571-1.265-.782-1.917-.106-.328-.129-1.119-.502-1.28-.372-.16-2.037 1.098-2.41 1.312-.754.432-1.532.839-2.269 1.301-.252.158-.568.277-.684.577-.17.443.534 1.271.726 1.641a.576.576 0 0 1 .093.33c-.029.215-.277.317-.486.38a30.591 30.591 0 0 0-3.188 1.15c-.33.14-2.64 1.137-1.327 1.705.274.084.568.079.838-.015 2.703-.633 13.917-3.495 16.762-4.105 1.529-.328 3.122-.686 4.334-1.675.605-.494 1.074-1.353.399-2.002a.72.72 0 0 0-.578-.185ZM255.497 107.489c2.458.666 4.904 1.38 7.319 2.189 2.272.761 4.723 1.485 6.74 2.764.677.404 1.399.728 2.15.968.437.185.916.252 1.387.192.833-.167 1.351-.977 1.772-1.715l1.319-2.311c.335-.714.732-1.398 1.188-2.042-.204-1.415-.418-2.827-.589-4.24-.079-.649-.229-1.403-.816-1.69a1.973 1.973 0 0 0-.953-.12l-11.892.454c-3.293.126-6.464.72-9.458-.873-2.576-1.37-3.43-.945-3.52 2.203a80.778 80.778 0 0 0-.031 2.828c1.798.452 3.595.908 5.384 1.393Z"/><path fill="#F79674" d="M246.005 103.706a32.852 32.852 0 0 1-5.799-1.1.483.483 0 0 1-.403-.244.489.489 0 0 1-.007-.472c.21-.891.503-1.76.796-2.627a205.04 205.04 0 0 0 2.52-7.992c.534-1.83 2.33-4.02 4.426-3.142.485.238.897.6 1.195 1.05 3.172 4.264 1.054 9.483-.226 14.032a.71.71 0 0 1-.306.523.692.692 0 0 1-.6.088 31.532 31.532 0 0 1-1.596-.116Z"/><path fill="#6F47E7" d="M248.846 95.127c.737.348 1.639.69 2.321.243.32-.25.568-.58.72-.955a29.187 29.187 0 0 0 1.29-22.808c-.517-1.412-1.792-2.934-2.977-1.145a98.832 98.832 0 0 0-9.405 18.747c-.206.43-.31.9-.305 1.377.084.942 1.258 1.314 1.97 1.7a14.37 14.37 0 0 0 2.937 1.322c1.065.299 2.411 1.459 3.449 1.519Z"/><path fill="#0C064E" d="M261.572 46.808c.136-.094.267-.197.39-.309.926-.839 1.386-2.15 2.443-2.816 1.297-.818 3.234-.491 4.205-1.68-.806.986-.501 2.836-.497 3.98.007 2.16 1.566 4.038 1.884 6.143a3.721 3.721 0 0 1-.419 2.453.709.709 0 0 0 .5-.2 2.554 2.554 0 0 0 .906-2.28c.397.73.609 1.548.617 2.38.082 1.724-.009 3.6-.914 5.122a15.011 15.011 0 0 0 5.202-8.423 14.405 14.405 0 0 0-1.042-9.306c-.349-.71-.826-1.311-1.228-1.983a6.832 6.832 0 0 0-1.038-1.652 4.015 4.015 0 0 0-1.821-.991c-.263-.064-1.801.081-1.86.025a6.904 6.904 0 0 0-6.017-1.71c-.959.112-1.912.282-2.851.51-1.138.379-2.082 1.21-3.051 1.884-1.401.977-2.91 1.864-4 3.21a7.303 7.303 0 0 0-1.6 4.055c-.108 1.532.249 3.3-.196 4.77-.369 1.218-1.266 2.419-.889 3.635.143.382.343.74.593 1.062a5.416 5.416 0 0 1 1.085 2.5 2.2 2.2 0 0 1-1.21 2.264 1.386 1.386 0 0 0 1.157-.682c.234-.407.37-.864.399-1.333.11-1.029-.187-1.934-.218-2.934.013-.899.143-1.792.386-2.657a5.087 5.087 0 0 1 1.711-2.816c2.058-1.578 5.291-.789 7.373-2.221Z"/><path fill="#FFBA9C" d="M271.602 54.48a5.098 5.098 0 0 0-.617-2.383 2.554 2.554 0 0 1-.906 2.28.711.711 0 0 1-.5.201 3.715 3.715 0 0 0 .418-2.453c-.318-2.105-1.876-3.982-1.883-6.143-.004-1.144-.309-2.993.496-3.979-.97 1.188-2.907.862-4.205 1.68-1.057.666-1.516 1.977-2.442 2.816a3.72 3.72 0 0 1-.391.308c-2.081 1.433-5.314.643-7.372 2.221-.04.031-.076.067-.115.099-.001.13-.008.259-.005.388.061.942.008 1.887-.158 2.816-.352 1.717-.66 3.18-.074 4.889.794 2.313 2.05 4.6 4.03 6.103.953.691 1.998 1.244 3.106 1.64 1.274.471 2.989-.185 4.154-.707a10.607 10.607 0 0 0 5.235-4.72 14.563 14.563 0 0 0 1.24-4.729c-.004-.11-.006-.22-.011-.328Z"/><path fill="#0C064E" d="M275.276 42.322c-.908-1.951-2.6-4.617-4.65-5.475a6.01 6.01 0 0 0-.71-.247c-2.365-.662-4.48.323-6.866.327-1.555.011-3.093.325-4.529.923-1.337.552-1.749 1.345-2.507 2.534a16.795 16.795 0 0 0-2.02 4.582c-.45 1.637-1.294 3.068-1.472 4.807a9.494 9.494 0 0 0 1.001 5.332 15.19 15.19 0 0 1 .395-2.775c.166-.928.219-1.874.158-2.815-.003-.13.004-.259.005-.388.039-.033.075-.068.115-.099 2.058-1.578 5.291-.788 7.372-2.221.137-.094.267-.197.391-.309.926-.838 1.385-2.15 2.442-2.816 1.298-.818 3.235-.491 4.205-1.68-.805.986-.5 2.836-.496 3.98.007 2.16 1.565 4.038 1.883 6.143a3.714 3.714 0 0 1-.418 2.453.71.71 0 0 0 .5-.2 2.553 2.553 0 0 0 .906-2.281c.397.731.609 1.55.617 2.382.005.108.007.218.01.328a14.513 14.513 0 0 1-1.24 4.729c-.119.24-.254.47-.395.696.503-.303.988-.635 1.453-.994 1.06-.824 1.879-2.402 2.6-3.536a16.63 16.63 0 0 0 2.039-4.32c.824-3.018.545-6.23-.789-9.06Z"/><path fill="#0C064E" d="M264.654 47.14a2.57 2.57 0 0 0-.738.184c-.152.065-.493.209-.554.382a.225.225 0 0 0 .152.262.7.7 0 0 0 .332.01 6.786 6.786 0 0 1 2.317.133c.307.072.58.213.884.303.33.097.661.188.995.27.097.024.224.035.274-.052a.202.202 0 0 0 .014-.13.941.941 0 0 0-.471-.609 3.47 3.47 0 0 0-.696-.298c-.3-.103-.608-.163-.904-.265a3.837 3.837 0 0 0-1.605-.19ZM258.287 46.773c.249.053.489.143.712.267.144.082.465.265.506.443a.22.22 0 0 1-.044.156.223.223 0 0 1-.137.086.698.698 0 0 1-.33-.027 6.655 6.655 0 0 0-2.188-.148c-.267.02-.529.082-.777.181-.203.084-.556.239-.746.05a.326.326 0 0 1-.062-.328.694.694 0 0 1 .199-.284c.184-.128.394-.213.614-.251.209-.061.424-.094.636-.14a3.842 3.842 0 0 1 1.617-.005ZM265.963 50.027a.931.931 0 0 0-1.417.36 1.966 1.966 0 0 0-.007 1.586.891.891 0 0 0 1.04.623 1.004 1.004 0 0 0 .703-.798c.033-.135.053-.273.06-.412.025-.478.081-1.037-.379-1.359ZM256.365 49.916a1.967 1.967 0 0 0-.008 1.586.891.891 0 0 0 1.04.623 1.004 1.004 0 0 0 .703-.798c.033-.135.053-.273.06-.412.025-.478.081-1.037-.379-1.36a.925.925 0 0 0-1.166.028.925.925 0 0 0-.25.333Z"/><path fill="#F79674" d="m262.206 55.384.18.06a1.663 1.663 0 0 1-1.576.168.812.812 0 0 1-.462-1.092l.972-2.053a8.774 8.774 0 0 1-.192 1.173c-.074.234-.102.48-.081.726a1.131 1.131 0 0 0 .512.717c.202.128.419.229.647.3ZM261.773 60.05a3.772 3.772 0 0 1-2.626-1.28.278.278 0 0 1 .09-.457.28.28 0 0 1 .305.061c.67.67 1.716 1.387 2.9 1.012a2.389 2.389 0 0 0 1.326-1.06.282.282 0 0 1 .384-.103.274.274 0 0 1 .129.17.273.273 0 0 1-.031.213 2.951 2.951 0 0 1-1.639 1.312 2.76 2.76 0 0 1-.838.131Z"/><path fill="#FF9F9F" d="M269.006 54.415c-.024.66-.973 1.16-2.118 1.118-1.146-.042-2.055-.612-2.03-1.271.025-.66.973-1.16 2.118-1.118 1.146.042 2.055.611 2.03 1.27ZM258.118 53.788c-.025.66-.973 1.16-2.119 1.118-1.146-.042-2.054-.611-2.03-1.271.025-.66.973-1.16 2.119-1.118 1.145.042 2.054.611 2.03 1.271Z"/><path fill="#0C064E" d="M275.154 39.108c-.692 1.094-2.026 2.528-3.38 2.727a4.15 4.15 0 0 1-2.373-.301 2.846 2.846 0 0 1-1.55-1.77 4.62 4.62 0 0 1 .049-2.027 5.4 5.4 0 0 1 1.112-2.576 7.15 7.15 0 0 1 2.866-2.28 3.422 3.422 0 0 1 3.483.496 3.386 3.386 0 0 1 .934 2.857 6.929 6.929 0 0 1-1.141 2.874Z"/><path fill="#FFBA9C" d="M274.007 51.934c-.403 1.26-.977 2.473-2.182 3.15a.806.806 0 0 1-.668.122c-.332-.133-.38-.576-.374-.934a17.306 17.306 0 0 1 .097-3.136 3.3 3.3 0 0 1 1.386-1.673c.238-.196.53-.317.837-.347a1.267 1.267 0 0 1 1.155 1.109 3.63 3.63 0 0 1-.251 1.709Z"/><path fill="#6F47E7" d="M268.891 104.023c1.759.112 7.328 1.42 8.23-.434a4.14 4.14 0 0 0 .294-1.828c-.005-3.225-.493-6.427-.776-9.64a76.393 76.393 0 0 1 .535-17.921 5.144 5.144 0 0 0-.001-2.326c-.594-1.838-2.342-1.293-3.613-.67-3.835 1.88-7.765 2.011-11.914 1.636-3.053-.277-7.129-.705-8.383-3.975l-1.78.536a1.053 1.053 0 0 0-.928.88 129.556 129.556 0 0 0-1.611 5.546c-.506 1.91-1.574 3.661-2.063 5.604a12.598 12.598 0 0 0-.143 6.237c.341 1.3.96 2.529 1.136 3.86.195 1.476-.195 2.88-.568 4.292a9.243 9.243 0 0 0-.083 3.949c.384 1.913.966 2.326 2.745 2.522 2.066.228 4.129.474 6.198.683 4.234.428 8.476.777 12.725 1.049Z"/><path fill="#F79674" d="M276.492 70.47c.019-.011.036-.023.055-.033l-2.596-.26c-1.726-.173-3.71-.585-5.142-1.62-1.132-.817-1.24-1.954-1.152-3.214.062-.917.169-1.857.25-2.795a12.349 12.349 0 0 1-2.766 1.708c-1.165.522-2.88 1.178-4.154.707a13.263 13.263 0 0 1-2.584-1.283c-.063.47-.127.94-.193 1.411-.247 1.785-.336 2.603-2.214 3.06-.943.23-1.873.48-2.807.715l.002.024.08-.024c1.254 3.27 5.33 3.697 8.383 3.974 4.149.376 8.079.244 11.915-1.636a4.43 4.43 0 0 1 2.199-.566 1.55 1.55 0 0 1 .718-.168h.006Z"/><path fill="#E55C26" d="M226.261 169.137c-.18.081-.345.19-.491.323a47.81 47.81 0 0 1-8.39 5.861.38.38 0 0 1-.477.047.381.381 0 0 1-.119-.124c-.45-.517-.943-1.018-1.35-1.569-.205-.278-.478-1.021-.883-1.055-.403-.033-1.582 1.688-1.868 2.009-.578.65-1.186 1.283-1.739 1.955-.188.23-.45.443-.464.764-.022.474.909 1.036 1.209 1.326a.568.568 0 0 1 .192.282c.041.214-.161.389-.34.515a30.556 30.556 0 0 0-2.658 2.103c-.268.238-2.142 1.917-.717 2.038.287-.007.563-.105.791-.28 2.4-1.482 4.762-3.023 7.086-4.623 1.032-.711 2.183-1.226 3.25-1.912a141.262 141.262 0 0 0 3.705-2.477 28.828 28.828 0 0 0 2.434-1.652c.748-.636 2.123-1.726 1.918-2.87a.922.922 0 0 0-.482-.67.723.723 0 0 0-.607.009Z"/><path fill="#FFBA9C" d="M280.455 101.437c.2-.441.393-.878.578-1.313.77-1.812.375-5.22-1.561-6.167-1.535-.752-4.402.16-5.569 1.379-1.846 1.927-3.023 5.191-4.042 7.617-.979 2.329-2.262 5.607-1.133 8.095a4.406 4.406 0 0 0 2.429 2.251c.368.108.747.172 1.13.19.409.128.852.097 1.239-.087a3.363 3.363 0 0 0 1.081-1.113c1.136-1.658 1.984-3.495 2.972-5.233a69.584 69.584 0 0 0 2.876-5.619Z"/><path fill="#6F47E7" d="M284.876 93.175c.179 3.766.161 7.59-.797 11.236-.082.31-.215.666-.523.752a.971.971 0 0 1-.75-.237l-12.304-8.272a2.421 2.421 0 0 1-.841-.789 2.335 2.335 0 0 1-.082-1.527c.967-5.282 3.464-10.18 4.529-15.443.393-1.944.587-3.921.917-5.876.141-.57.248-1.148.32-1.73.011-.239-.031-.53-.251-.624a2.819 2.819 0 0 1 2.82.287 11.63 11.63 0 0 1 2.343 2.58c1.768 2.477 2.225 5.52 3.027 8.399a50.832 50.832 0 0 1 1.592 11.244Z"/><path fill="#E55C26" d="M278.068 114.646c-.057-1.146-.191-2.284-.265-3.428a20.574 20.574 0 0 0-.419-3.695 13.15 13.15 0 0 0-1.196 2.053l-1.319 2.311c-.421.738-.939 1.548-1.771 1.715a2.703 2.703 0 0 1-1.388-.192 10.357 10.357 0 0 1-2.15-.968c-2.016-1.279-4.468-2.003-6.739-2.764a129.751 129.751 0 0 0-7.32-2.189c-4.896-1.326-9.841-2.461-14.738-3.784-3.331-.9-5.735-1.95-9.031-.347a10.492 10.492 0 0 0-3.003 2.025 6.745 6.745 0 0 0-1.836 4.02c-2.548 6.758-3.092 14.57-4.351 21.668-1.345 7.582-2.785 15.063-3.995 22.655a.835.835 0 0 0 .067.629.615.615 0 0 0 .334.204c.066.019.134.033.199.045l8.764 1.705c.334.031.67.036 1.005.014.726-2.892 1.64-5.76 2.368-8.625l3.785-14.884c1.182-4.645 1.867-9.996 3.671-14.467a20.39 20.39 0 0 1 2.788 1.151c5.425 2.699 10.772 5.618 16.502 7.635 1.124.395 2.297.839 3.497 1.248 3.984 1.358 8.262 2.334 12.001-.106a9.036 9.036 0 0 0 3.262-3.978c.369-.86.655-1.754.852-2.67.451-2.298.595-4.646.426-6.981Z"/><path fill="#F79674" d="M237.911 102.646c.778-.197 1.589-.218 2.371-.398.455-.104 1.666-.376 1.916-.804.12-.248.152-.53.09-.798a.81.81 0 0 0-.156-.412.898.898 0 0 0-.426-.227 22.298 22.298 0 0 0-8.728-.995 1.933 1.933 0 0 0-1.771.964l-1.79 2.345a15.295 15.295 0 0 0-1.453 2.141 2.931 2.931 0 0 0-.36 2.291c1.056-.663 1.836-1.805 2.801-2.604l-.089 1.378a.676.676 0 0 0 .041.353c.185.36.733.123 1.034-.149l1.807-1.625c-.141.42.441.772.864.641.4-.192.751-.473 1.026-.821a5.23 5.23 0 0 1 2.214-1.117c.203-.058.407-.111.609-.163Z"/><path fill="#FFBA9C" d="M241.299 104.364a5.823 5.823 0 0 1 1.031-.033c1.103.063 2.224.377 3.237-.265a1.447 1.447 0 0 0 .777-1.56c-.173-.858-.82-.965-1.536-1.156a68.25 68.25 0 0 0-7.422-1.785 1.93 1.93 0 0 0-1.951.505l-2.306 1.839a15.334 15.334 0 0 0-1.929 1.725 3.07 3.07 0 0 0-.707 1.492.505.505 0 0 0 .123.479c.185.147.455.03.655-.095.432-.269.848-.562 1.247-.877.264-.225.544-.43.839-.613a5.588 5.588 0 0 1 1.839-.546 7.677 7.677 0 0 1-1.001.634 3.573 3.573 0 0 0-.799.494.932.932 0 0 0-.328.84c.124.59.759.462 1.149.256a25.025 25.025 0 0 1 3.401-1.587c-.297.267-.5.624-.578 1.017a.473.473 0 0 0 .017.304c.054.09.141.157.242.187.321.099.668.076.973-.066.301-.141.593-.302.874-.481a5.756 5.756 0 0 1 2.153-.708Z"/><path fill="#E55C26" d="M273.527 128.275c-3.739 2.44-8.018 1.464-12.001.106-1.2-.409-2.374-.853-3.498-1.249-5.73-2.016-11.077-4.936-16.501-7.635a21.707 21.707 0 0 0-1.615-.717c-1.365-.744-2.937-1.799-4.171-.304a4.642 4.642 0 0 0-.813 1.707 13.768 13.768 0 0 0-.118 6.039c.861 5.144 1.377 10.311 2.18 15.465.807 5.174 1.852 10.309 3.04 15.408a365.271 365.271 0 0 0 2.349 9.453 77.035 77.035 0 0 0 2.743 9.133.188.188 0 0 0 .093.143.163.163 0 0 0 .084.023.172.172 0 0 0 .086-.019c2.467-.665 4.853-1.371 7.273-2.246a45.577 45.577 0 0 0 1.589-.609c-.029.011-1.523-14.438-1.6-15.837a285.33 285.33 0 0 1-.431-17.083c.008-1.604.005-3.209.017-4.814.006-.803.017-1.605.032-2.407.01-.501-.192-2.113.161-2.439.368-.339 1.507-.006 1.938.034a150.322 150.322 0 0 0 7.315.505c4.273.19 8.946 0 12.318-2.993-.153.117-.308.23-.47.336Z"/><path fill="#F79674" d="M272.467 53.127a.15.15 0 0 1-.073-.018 1.21 1.21 0 0 1-.559-.83 2.17 2.17 0 0 1 .064-.958.15.15 0 0 1 .273-.035.15.15 0 0 1 .018.111c-.081.268-.102.55-.06.826a.884.884 0 0 0 .411.623.154.154 0 0 1 .064.072c.013.03.016.065.007.097a.149.149 0 0 1-.145.112Z"/><path fill="#F79674" d="M272.167 52.438a.155.155 0 0 1-.091-.031.145.145 0 0 1-.038-.044.144.144 0 0 1-.015-.114.561.561 0 0 1 .332-.36 1 1 0 0 1 .429-.065c.222.009.376.12.39.284a.146.146 0 0 1-.08.146.143.143 0 0 1-.056.017.142.142 0 0 1-.113-.03.148.148 0 0 1-.05-.106c-.002.01-.043-.009-.103-.011a.663.663 0 0 0-.3.04.27.27 0 0 0-.16.163.148.148 0 0 1-.145.111Z"/><path stroke="#070630" stroke-linecap="round" stroke-linejoin="round" stroke-width=".519" d="M273.209 40.763a12.2 12.2 0 0 1 2.222 6.31 20.336 20.336 0 0 1-.726 6.708M273.711 38.913a5.818 5.818 0 0 0 1.347-3.619 2.128 2.128 0 0 0-.45-1.515M270.895 37.279a5.248 5.248 0 0 1 2.925-3.395M269.506 40.827c-.676 1.427-.283 3.113.202 4.616.485 1.503 1.058 3.083.701 4.622M251.536 54.584a3.469 3.469 0 0 1-.544-3.19c.382-1.13 1.336-2.008 1.665-3.155.46-1.604-.383-3.432.311-4.95.786-1.717 3.062-2.106 4.407-3.432.861-.85 1.488-2.174 2.692-2.289M260.072 45.47a3.412 3.412 0 0 0 2.911-1.087c.72-.802 1.339-1.69 1.843-2.643a6.878 6.878 0 0 1 2.115-2.402 3.922 3.922 0 0 1 2.476-.554M268.256 36.606c1.869.4 3.594 1.301 4.991 2.606.319.267.573.604.742.985"/><path fill="#FFBA9C" d="M273.655 113.247c-1.233 1.009-2.622.932-4.122.644-4.735-.909-9.24-2.709-13.602-4.721a54.61 54.61 0 0 0-6.469-2.753 330.489 330.489 0 0 0-7.292-2.202c-.051-.851.016-1.939.619-2.607.823-.911 1.91-.362 2.922-.212 3.261.484 6.525.952 9.786 1.433 4.76.703 9.548 1.418 14.148 2.871 2.002.632 3.518 1.121 4.506 3.099.724 1.45.877 3.324-.496 4.448Z"/><path stroke="#fff" stroke-linecap="round" stroke-linejoin="round" stroke-width="1.038" d="M234.379 114.833c1.808 2.047 2.541 2.179 4.941 3.482"/><path stroke="#fff" stroke-linecap="round" stroke-linejoin="round" stroke-width=".519" d="M223.303 154.614c1.324-11.577 4.524-22.838 6.414-34.33.546-3.318 1.07-6.714 2.644-9.685a3.607 3.607 0 0 1 1.196-1.461 3.397 3.397 0 0 1 1.801-.389c1.812.081 3.601.435 5.308 1.05 4.173 1.312 7.82 3.266 11.846 4.916a125.839 125.839 0 0 0 13.573 4.68c1.815.511 3.813.971 5.534.199 1.671-.751 2.676-2.52 3.108-4.301.431-1.78.237-1.889.467-3.707"/><path stroke="#fff" stroke-linecap="round" stroke-linejoin="round" stroke-width=".519" d="M224.152 154.494a257.616 257.616 0 0 1 3.825-20.97c1.496-6.632 2.591-13.335 4.515-19.87.458-1.555 1.23-3.362 2.83-3.626a4.409 4.409 0 0 1 2.016.302c7.884 2.499 15.646 6.262 23.37 9.334 3.754 1.494 9.472 3.818 12.82.334a10.205 10.205 0 0 0 2.439-5.459c.354-2.111.399-3.54.667-5.285"/><path stroke="#fff" stroke-linecap="round" stroke-linejoin="round" stroke-width="1.038" d="M272.65 113.77a8.279 8.279 0 0 1 4.444 4.304"/><path stroke="#fff" stroke-linecap="round" stroke-linejoin="round" stroke-width=".519" d="M245.695 121.6a9.669 9.669 0 0 0-3.616.355c-1.175.318-2.177.546-2.346 1.913-.324 2.615.313 5.459.749 8.038.467 2.764 1.037 5.509 1.561 8.263a4445.561 4445.561 0 0 0 6.718 34.583"/><path stroke="#fff" stroke-linecap="round" stroke-linejoin="round" stroke-width=".519" d="M246.893 122.583c-2.288.832-6.297.368-5.86 3.921.068.55.137 1.099.209 1.648a323.04 323.04 0 0 0 9.148 45.48"/><path stroke="#fff" stroke-linecap="round" stroke-linejoin="round" stroke-width="1.038" d="M247.381 129.252c2.183.549 4.449.69 6.683.418"/><path stroke="#B8DEE8" stroke-linecap="round" stroke-linejoin="round" stroke-width=".778" d="M274.841 74.544c-.377 5.032-1.921 9.877-3.596 14.606-.422 1.192-.855 2.379-1.281 3.568-.305.85-1.038 2.074-.468 2.948.486.746 1.689 1.347 2.391 1.874a108.508 108.508 0 0 0 11.536 7.56M250.902 94.843c2.643-.016 5.264-.457 7.9-.642s5.357-.101 7.809.883M251.198 69.575c-1.022 2.115-1.3 4.505-2.042 6.734-.983 2.952-2.806 5.761-2.664 8.87.101 2.207 1.201 4.276 1.31 6.483.154 3.14-1.447 6.285-.066 9.379"/><path stroke="#B8DEE8" stroke-linecap="round" stroke-linejoin="round" stroke-width=".778" d="m247.416 94.615-6.226-3.187a1.126 1.126 0 0 1-.399-.285 1.098 1.098 0 0 1-.045-.987c1.787-5.826 5.36-14.59 10.512-20.558"/><path fill="#070630" d="m273.806 42.736-.208-.216a8.637 8.637 0 0 0 2.452-4.254c.237-1.071.442-3.334-.47-4.23a2.47 2.47 0 0 0-1.314-.832l.036-.298a2.69 2.69 0 0 1 1.487.915c1.006.987.821 3.299.554 4.51a8.937 8.937 0 0 1-2.537 4.405ZM250.91 59.737l-.113-.28a1.672 1.672 0 0 0 .872-1.684 4.97 4.97 0 0 0-.762-1.998l-.043-.077c-.631-1-1.093-2.096-1.365-3.246-.225-1.257.078-1.91.633-2.957a11.276 11.276 0 0 0 1.279-4.507l.009-.158a2.97 2.97 0 0 1 .72-2.021c.223-.282.403-.597.532-.932l.285.092a3.837 3.837 0 0 1-.572 1.013 2.688 2.688 0 0 0-.665 1.866l-.01.16a11.577 11.577 0 0 1-1.313 4.628c-.54 1.017-.811 1.602-.603 2.763a10.463 10.463 0 0 0 1.332 3.152l.044.078c.414.642.686 1.365.798 2.121a1.95 1.95 0 0 1-1.058 1.987Z"/><path fill="#070630" d="m270.855 59.464-.064-.293c1.603-.351 2.361-1.497 3.239-2.824a16.65 16.65 0 0 0 2.113-4.46c.569-1.884.708-3.873.405-5.819-.331-2.01-1.389-3.546-2.635-5.205l.241-.18c1.269 1.69 2.349 3.259 2.691 5.336.309 1.99.167 4.025-.414 5.953a16.955 16.955 0 0 1-2.15 4.54c-.877 1.325-1.704 2.575-3.426 2.952Z"/><path fill="#D0F7FC" d="m191.199 14.456 6.778 38.438h49.817l-6.778-38.438h-49.817Z"/><path fill="#CC6164" d="M239.735 7.21h-49.817l1.278 7.246h49.817l-1.278-7.246Z"/><path fill="#96E4FF" d="M223.874 17.725h-14.38l-.371-2.104h14.38l.371 2.104Z"/><path fill="#E68799" d="M200.109 24.994h-4.076a.845.845 0 0 1-.796-.677l-.719-4.077a.546.546 0 0 1 .112-.476.554.554 0 0 1 .446-.2h4.076a.843.843 0 0 1 .796.676l.719 4.077a.56.56 0 0 1-.112.476.553.553 0 0 1-.446.2Z"/><path fill="#96E4FF" d="M206.74 24.994h-4.076a.845.845 0 0 1-.796-.677l-.719-4.077a.56.56 0 0 1 .112-.476.554.554 0 0 1 .446-.2h4.076a.846.846 0 0 1 .796.676l.719 4.077a.56.56 0 0 1-.112.476.554.554 0 0 1-.446.2ZM213.371 24.994h-4.076a.843.843 0 0 1-.796-.677l-.719-4.077a.56.56 0 0 1 .112-.476.554.554 0 0 1 .445-.2h4.077a.846.846 0 0 1 .796.676l.719 4.077a.56.56 0 0 1-.112.476.553.553 0 0 1-.446.2ZM220.004 24.994h-4.076a.843.843 0 0 1-.796-.677l-.719-4.077a.56.56 0 0 1 .111-.476.558.558 0 0 1 .446-.2h4.077a.84.84 0 0 1 .796.676l.719 4.077a.546.546 0 0 1-.112.476.548.548 0 0 1-.446.2ZM226.633 24.994h-4.076a.84.84 0 0 1-.797-.677l-.718-4.077a.546.546 0 0 1 .111-.476.558.558 0 0 1 .446-.2h4.077a.84.84 0 0 1 .796.676l.719 4.077a.546.546 0 0 1-.112.476.55.55 0 0 1-.446.2ZM233.266 24.994h-4.077a.84.84 0 0 1-.796-.677l-.719-4.077a.546.546 0 0 1 .112-.476.55.55 0 0 1 .446-.2h4.076a.84.84 0 0 1 .797.676l.718 4.077a.545.545 0 0 1-.311.628.548.548 0 0 1-.246.049ZM239.893 24.994h-4.077a.84.84 0 0 1-.796-.677l-.719-4.077a.546.546 0 0 1 .112-.476.55.55 0 0 1 .446-.2h4.076a.84.84 0 0 1 .796.676l.719 4.077a.56.56 0 0 1-.111.476.558.558 0 0 1-.446.2Z"/><path fill="#E68799" d="M201.258 31.506h-4.076a.84.84 0 0 1-.797-.677l-.718-4.076a.546.546 0 0 1 .111-.476.558.558 0 0 1 .446-.2h4.077a.84.84 0 0 1 .796.676l.719 4.076a.546.546 0 0 1-.112.476.55.55 0 0 1-.446.201Z"/><path fill="#96E4FF" d="M207.895 31.506h-4.077a.84.84 0 0 1-.796-.677l-.719-4.076a.546.546 0 0 1 .112-.476.548.548 0 0 1 .446-.2h4.076a.843.843 0 0 1 .796.676l.719 4.076a.56.56 0 0 1-.111.476.558.558 0 0 1-.446.201ZM214.522 31.506h-4.077a.845.845 0 0 1-.796-.676l-.719-4.077a.546.546 0 0 1 .112-.476.553.553 0 0 1 .446-.2h4.076a.843.843 0 0 1 .796.676l.719 4.076a.56.56 0 0 1-.111.477.557.557 0 0 1-.446.2ZM221.151 31.506h-4.077a.84.84 0 0 1-.796-.677l-.719-4.076a.546.546 0 0 1 .112-.476.553.553 0 0 1 .446-.2h4.076a.843.843 0 0 1 .796.676l.719 4.076a.56.56 0 0 1-.112.476.554.554 0 0 1-.445.201ZM227.781 31.506h-4.076a.845.845 0 0 1-.796-.677l-.719-4.076a.56.56 0 0 1 .112-.476.554.554 0 0 1 .446-.2h4.076a.843.843 0 0 1 .796.676l.719 4.076a.56.56 0 0 1-.112.476.554.554 0 0 1-.446.201ZM234.412 31.506h-4.076a.843.843 0 0 1-.796-.676l-.719-4.077a.56.56 0 0 1 .112-.476.553.553 0 0 1 .445-.2h4.077a.846.846 0 0 1 .796.676l.719 4.076a.56.56 0 0 1-.112.477.553.553 0 0 1-.446.2ZM241.043 31.506h-4.076a.843.843 0 0 1-.796-.677l-.719-4.076a.56.56 0 0 1 .112-.476.545.545 0 0 1 .445-.2h4.077a.84.84 0 0 1 .796.676l.719 4.076a.546.546 0 0 1-.112.476.554.554 0 0 1-.446.201Z"/><path fill="#E68799" d="M202.408 38.019h-4.076a.846.846 0 0 1-.796-.677l-.719-4.076a.56.56 0 0 1 .112-.476.555.555 0 0 1 .446-.201h4.076a.846.846 0 0 1 .796.677l.719 4.076a.56.56 0 0 1-.112.476.553.553 0 0 1-.446.2Z"/><path fill="#96E4FF" d="M209.037 38.019h-4.076a.843.843 0 0 1-.796-.677l-.719-4.076a.56.56 0 0 1 .112-.476.555.555 0 0 1 .445-.201h4.077a.846.846 0 0 1 .796.677l.719 4.076a.56.56 0 0 1-.112.476.555.555 0 0 1-.446.2ZM215.666 38.019h-4.076a.843.843 0 0 1-.796-.677l-.719-4.076a.56.56 0 0 1 .112-.476.546.546 0 0 1 .445-.201h4.077a.841.841 0 0 1 .796.677l.719 4.076a.546.546 0 0 1-.112.476.553.553 0 0 1-.446.2ZM222.303 38.019h-4.076a.84.84 0 0 1-.797-.677l-.718-4.076a.546.546 0 0 1 .111-.476.55.55 0 0 1 .446-.201h4.076a.842.842 0 0 1 .797.677l.718 4.076a.546.546 0 0 1-.111.476.548.548 0 0 1-.446.2ZM228.932 38.019h-4.077a.84.84 0 0 1-.796-.677l-.719-4.076a.546.546 0 0 1 .112-.476.55.55 0 0 1 .446-.201h4.076a.842.842 0 0 1 .797.677l.718 4.076a.546.546 0 0 1-.111.476.558.558 0 0 1-.446.2ZM235.561 38.019h-4.077a.84.84 0 0 1-.796-.677l-.719-4.076a.546.546 0 0 1 .112-.476.55.55 0 0 1 .446-.201h4.076a.844.844 0 0 1 .796.677l.719 4.076a.56.56 0 0 1-.111.476.558.558 0 0 1-.446.2ZM242.196 38.019h-4.077a.846.846 0 0 1-.796-.677l-.719-4.076a.56.56 0 0 1 .112-.476.555.555 0 0 1 .446-.201h4.076a.844.844 0 0 1 .796.677l.719 4.076a.56.56 0 0 1-.112.476.553.553 0 0 1-.445.2Z"/><path fill="#E68799" d="M203.557 44.531h-4.077a.84.84 0 0 1-.796-.677l-.719-4.076a.546.546 0 0 1 .112-.476.55.55 0 0 1 .446-.2h4.076a.84.84 0 0 1 .797.676l.718 4.076a.56.56 0 0 1-.111.476.558.558 0 0 1-.446.201Z"/><path fill="#96E4FF" d="M210.184 44.531h-4.077a.84.84 0 0 1-.796-.677l-.719-4.076a.546.546 0 0 1 .112-.476.55.55 0 0 1 .446-.2h4.076a.84.84 0 0 1 .796.676l.719 4.076a.56.56 0 0 1-.111.476.559.559 0 0 1-.446.201ZM216.817 44.531h-4.077a.84.84 0 0 1-.796-.677l-.719-4.076a.546.546 0 0 1 .112-.476.554.554 0 0 1 .446-.2h4.076a.843.843 0 0 1 .796.676l.719 4.076a.56.56 0 0 1-.112.476.554.554 0 0 1-.445.201ZM223.449 44.531h-4.076a.845.845 0 0 1-.796-.677l-.719-4.076a.56.56 0 0 1 .112-.476.554.554 0 0 1 .446-.2h4.076a.846.846 0 0 1 .796.676l.719 4.076a.56.56 0 0 1-.112.476.554.554 0 0 1-.446.201ZM230.076 44.531H226a.843.843 0 0 1-.796-.677l-.719-4.076a.56.56 0 0 1 .112-.476.554.554 0 0 1 .446-.2h4.076a.846.846 0 0 1 .796.676l.719 4.076a.56.56 0 0 1-.112.476.554.554 0 0 1-.446.201ZM236.709 44.531h-4.076a.843.843 0 0 1-.796-.677l-.719-4.076a.56.56 0 0 1 .112-.476.546.546 0 0 1 .445-.2h4.077a.84.84 0 0 1 .796.676l.719 4.076a.546.546 0 0 1-.112.476.554.554 0 0 1-.446.201ZM243.342 44.531h-4.076a.84.84 0 0 1-.797-.677l-.718-4.076a.546.546 0 0 1 .111-.476.55.55 0 0 1 .446-.2h4.076a.84.84 0 0 1 .797.676l.718 4.076a.547.547 0 0 1-.311.628.55.55 0 0 1-.246.05Z"/><path fill="#E68799" d="M204.705 51.043h-4.076a.843.843 0 0 1-.796-.676l-.719-4.077a.56.56 0 0 1 .112-.476.554.554 0 0 1 .445-.2h4.077a.84.84 0 0 1 .796.676l.719 4.077a.546.546 0 0 1-.112.476.554.554 0 0 1-.446.2Z"/><path fill="#96E4FF" d="M211.332 51.043h-4.076a.843.843 0 0 1-.796-.676l-.719-4.077a.56.56 0 0 1 .112-.476.546.546 0 0 1 .445-.2h4.077a.846.846 0 0 1 .796.676l.719 4.077a.56.56 0 0 1-.112.476.553.553 0 0 1-.446.2ZM217.967 51.043h-4.076a.84.84 0 0 1-.797-.676l-.718-4.077a.546.546 0 0 1 .111-.476.558.558 0 0 1 .446-.2h4.077a.84.84 0 0 1 .796.676l.719 4.077a.546.546 0 0 1-.112.476.548.548 0 0 1-.446.2ZM224.594 51.043h-4.076a.84.84 0 0 1-.797-.676l-.718-4.077a.546.546 0 0 1 .111-.476.55.55 0 0 1 .446-.2h4.076a.84.84 0 0 1 .797.676l.718 4.077a.546.546 0 0 1-.311.628.55.55 0 0 1-.246.048ZM231.227 51.043h-4.077a.84.84 0 0 1-.796-.676l-.719-4.077a.546.546 0 0 1 .112-.476.55.55 0 0 1 .446-.2h4.076a.84.84 0 0 1 .797.676l.718 4.077a.546.546 0 0 1-.111.476.557.557 0 0 1-.446.2ZM237.86 51.043h-4.077a.845.845 0 0 1-.796-.676l-.719-4.077a.546.546 0 0 1 .112-.476.554.554 0 0 1 .446-.2h4.076a.843.843 0 0 1 .796.676l.719 4.077a.56.56 0 0 1-.112.476.554.554 0 0 1-.445.2ZM244.488 51.043h-4.076a.846.846 0 0 1-.796-.676l-.719-4.077a.56.56 0 0 1 .112-.476.554.554 0 0 1 .446-.2h4.076a.843.843 0 0 1 .796.676l.719 4.077a.56.56 0 0 1-.112.476.554.554 0 0 1-.446.2Z"/><path fill="#422C4F" d="M195.649 11.256a.48.48 0 0 1-.268.542.481.481 0 0 1-.213.042.73.73 0 0 1-.687-.584.487.487 0 0 1 .096-.41.48.48 0 0 1 .385-.174.727.727 0 0 1 .687.584Z"/><path fill="#C7D2D7" d="M195.062 4c-1.283 0-2.314 1.368-2.5 3.21h.861c.162-1.326.847-2.356 1.639-2.356.908 0 1.675 1.352 1.675 2.953 0 1.493-.667 2.77-1.494 2.935a.926.926 0 0 1-.48-.032.476.476 0 0 0-.285.546c.021.11.069.213.139.3.333.088.683.076 1.009-.034 1.138-.376 1.966-1.873 1.966-3.715 0-2.135-1.112-3.807-2.53-3.807Z"/><path fill="#422C4F" d="M202.397 11.256a.466.466 0 0 1-.096.41.486.486 0 0 1-.385.174.73.73 0 0 1-.687-.584.486.486 0 0 1 .269-.542.474.474 0 0 1 .212-.042.726.726 0 0 1 .687.584Z"/><path fill="#C7D2D7" d="M201.814 4c-1.283 0-2.314 1.368-2.5 3.21h.861c.162-1.326.847-2.356 1.639-2.356.908 0 1.675 1.352 1.675 2.953 0 1.493-.667 2.77-1.494 2.935a.926.926 0 0 1-.48-.032.476.476 0 0 0-.285.546c.021.11.069.213.139.3.333.088.683.076 1.009-.034 1.138-.376 1.966-1.873 1.966-3.715 0-2.135-1.112-3.807-2.53-3.807Z"/><path fill="#422C4F" d="M209.147 11.256a.466.466 0 0 1-.096.41.486.486 0 0 1-.385.174.73.73 0 0 1-.687-.584.476.476 0 0 1 .481-.584.727.727 0 0 1 .687.584Z"/><path fill="#C7D2D7" d="M208.558 4c-1.283 0-2.314 1.368-2.499 3.21h.86c.162-1.326.847-2.356 1.639-2.356.908 0 1.675 1.352 1.675 2.953 0 1.493-.667 2.77-1.494 2.935a.919.919 0 0 1-.48-.032.476.476 0 0 0-.285.546c.021.11.069.213.139.3.333.088.683.076 1.009-.034 1.138-.376 1.966-1.873 1.966-3.715 0-2.135-1.111-3.807-2.53-3.807Z"/><path fill="#422C4F" d="M215.891 11.256a.466.466 0 0 1-.096.41.478.478 0 0 1-.385.174.73.73 0 0 1-.687-.584.48.48 0 0 1 .269-.542.473.473 0 0 1 .212-.042.724.724 0 0 1 .687.584Z"/><path fill="#C7D2D7" d="M215.308 4c-1.283 0-2.314 1.368-2.499 3.21h.86c.162-1.326.847-2.356 1.639-2.356.908 0 1.675 1.352 1.675 2.953 0 1.493-.667 2.77-1.494 2.935a.926.926 0 0 1-.48-.032.476.476 0 0 0-.285.546c.021.11.069.213.139.3.333.088.683.076 1.009-.034 1.138-.376 1.966-1.873 1.966-3.715 0-2.135-1.111-3.807-2.53-3.807Z"/><path fill="#422C4F" d="M222.641 11.256a.466.466 0 0 1-.096.41.487.487 0 0 1-.385.174.73.73 0 0 1-.687-.584.48.48 0 0 1 .269-.542.473.473 0 0 1 .212-.042.725.725 0 0 1 .687.584Z"/><path fill="#C7D2D7" d="M222.056 4c-1.283 0-2.314 1.368-2.499 3.21h.86c.162-1.326.847-2.356 1.639-2.356.908 0 1.676 1.352 1.676 2.953 0 1.493-.668 2.77-1.495 2.935a.919.919 0 0 1-.479-.032.473.473 0 0 0-.286.546c.021.11.069.213.139.3.333.088.683.076 1.009-.034 1.138-.376 1.966-1.873 1.966-3.715 0-2.135-1.111-3.807-2.53-3.807Z"/><path fill="#422C4F" d="M229.389 11.256a.466.466 0 0 1-.096.41.48.48 0 0 1-.385.174.73.73 0 0 1-.687-.584.48.48 0 0 1 .481-.584.724.724 0 0 1 .687.584Z"/><path fill="#C7D2D7" d="M228.804 4c-1.283 0-2.314 1.368-2.499 3.21h.86c.162-1.326.847-2.356 1.639-2.356.908 0 1.676 1.352 1.676 2.953 0 1.493-.668 2.77-1.495 2.935a.919.919 0 0 1-.48-.032.475.475 0 0 0-.285.546c.021.11.069.213.139.3.333.088.683.076 1.009-.034 1.138-.376 1.966-1.873 1.966-3.715 0-2.135-1.111-3.807-2.53-3.807Z"/><path fill="#422C4F" d="M236.137 11.256a.466.466 0 0 1-.096.41.477.477 0 0 1-.385.174.73.73 0 0 1-.687-.584.48.48 0 0 1 .269-.542.476.476 0 0 1 .212-.042.724.724 0 0 1 .687.584Z"/><path fill="#C7D2D7" d="M235.552 4c-1.283 0-2.314 1.368-2.499 3.21h.86c.162-1.326.847-2.356 1.639-2.356.908 0 1.676 1.352 1.676 2.953 0 1.493-.668 2.77-1.495 2.935a.919.919 0 0 1-.479-.032.473.473 0 0 0-.286.546c.021.11.069.213.139.3.333.088.684.076 1.009-.034 1.138-.376 1.966-1.873 1.966-3.715 0-2.135-1.111-3.807-2.53-3.807Z"/><path fill="#1792AF" d="m189.921 7.21-8.056 45.684H197.976L189.921 7.21Z"/><path fill="#468097" d="m189.922 7.21-1.588 9.005 6.468 36.68h3.175L189.922 7.21Z"/><path fill="#EBA58E" d="m210.072 43.739-.076-.151-.885.815.961-.664Z"/></svg>