<svg xmlns="http://www.w3.org/2000/svg" width="400" height="200" fill="none" viewBox="0 0 400 200"><path fill="#F6F5F5" d="M381.988 165.428c-4.862-23.599-27.66-44.727-54.443-45.192-9.948-.172-20.444 2.257-29.526-1.385-6.717-2.692-11.379-8.258-17.359-12.101-9.122-5.862-20.996-7.426-32.16-6.363-11.164 1.063-21.844 4.526-32.395 7.961-16.232-17.058-41.625-26.78-66.605-25.499-24.981 1.281-48.97 13.535-62.922 32.142-27.764-.31-54.123 19.364-58.796 43.884-2.397 12.58 1.075 25.649 8.567 36.473h342.66c3.768-9.846 4.902-20.584 2.979-29.92Z"/><path fill="#1AC698" d="m350.948 195.59-.311-.484c6.277-3.243 12.03-8.125 17.097-14.512 4.799-6.049 8.793-13.309 11.551-20.996 5.487-15.291 7.421-31.594 9.263-47.379-14.656 4.01-28.451 14.535-37.907 28.94-9.562 14.567-14.564 32.913-13.724 50.336l-.622.024c-.845-17.527 4.188-35.986 13.809-50.643 9.632-14.673 23.742-25.357 38.715-29.312l.446-.118-.048.415c-1.86 15.942-3.784 32.427-9.338 47.908-2.777 7.74-6.802 15.053-11.637 21.149-5.12 6.452-10.938 11.389-17.294 14.672Z"/><path fill="#1AC698" d="m338.369 192.397-.621-.048c.564-5.871 2.611-11.769 6.255-18.033 3.518-6.045 8.054-11.567 11.612-15.702a725.735 725.735 0 0 1 2.62-3.024c7.534-8.665 15.324-17.624 18.971-28.549l.597.16c-3.681 11.025-11.507 20.027-19.076 28.732-.861.991-1.752 2.015-2.618 3.022-3.543 4.117-8.058 9.613-11.553 15.619-3.606 6.197-5.63 12.027-6.187 17.823Z"/><path fill="#1AC698" d="M354.848 163.562c-.858 0-1.715-.051-2.565-.153l.083-.553c3.726.449 7.662-.13 11.383-1.674 3.808-1.604 7.115-4.026 9.627-7.051l.498.335c-2.573 3.099-5.962 5.58-9.863 7.223a24 24 0 0 1-9.163 1.873ZM360.982 152.56c-2.041-6.427-.641-14.153 3.564-19.682l.515.314c-4.106 5.398-5.472 12.941-3.48 19.216l-.599.152ZM372.24 195.659l-.22-.523c7.063-2.39 13.427-7.274 17.919-13.753 3.813-5.499 6.394-12.211 7.674-19.954-7.833.315-15.666 3.142-21.544 7.785l-.412-.419c6.078-4.801 14.209-7.694 22.308-7.937l.372-.011-.053.329c-1.273 7.961-3.902 14.858-7.815 20.501-4.565 6.583-11.039 11.548-18.229 13.982Z"/><path fill="#1AC698" d="m353.302 194.18-.265-.505c14.203-6.008 26.994-14.393 37.683-24.702l.457.379c-10.744 10.362-23.599 18.79-37.875 24.828ZM298.902 196c-5.46-1.837-10.436-5.265-14.387-9.914-3.638-4.278-6.353-9.479-7.851-15.039-2.966-11.002-1.562-22.736-.013-32.872l.069-.453.418.263c9.948 6.244 20.234 12.702 27.695 21.609 8.309 9.92 11.26 21.581 7.895 31.195l-.595-.167c3.305-9.443.39-20.917-7.798-30.693-7.297-8.712-17.359-15.086-27.136-21.224-1.513 9.98-2.826 21.467.07 32.211 1.479 5.485 4.156 10.614 7.741 14.832 3.881 4.565 8.761 7.93 14.111 9.729l-.219.523Z"/><path fill="#1AC698" d="m283.455 148.283-.559.248 24.03 43.574.559-.247-24.03-43.575Z"/><path fill="#1AC698" d="M295.967 173.356c-3.316-.031-6.569-.816-9.453-2.282-2.885-1.466-5.305-3.565-7.035-6.1l.535-.286c1.709 2.504 4.114 4.566 6.98 5.987 2.866 1.421 6.094 2.151 9.369 2.119l.015.558c-.137.003-.274.004-.411.004ZM62.307 195.204c-7.096-1.306-13.73-4.468-19.715-9.398-5.384-4.434-10-10.162-13.35-16.564-6.49-12.406-8.468-26.142-10.38-39.426l-.067-.46.484.163c18.474 6.192 31.384 13.318 40.63 22.424 11.816 11.637 16.816 26.912 13.049 39.863l-.603-.14c3.714-12.772-1.232-27.849-12.907-39.348-9.096-8.958-21.783-15.991-39.903-22.113 1.887 13.098 3.888 26.616 10.262 38.8 3.316 6.337 7.882 12.005 13.207 16.39 5.9 4.86 12.434 7.977 19.418 9.262l-.125.547Z"/><path fill="#1AC698" d="M68.778 191.947c-5.112-8.936-11.15-17.422-18.037-25.344-6.885-7.924-14.587-15.249-23.005-21.879l.412-.42c8.446 6.654 16.176 14.005 23.085 21.956 6.91 7.95 12.97 16.465 18.1 25.433l-.555.254Z"/><path fill="#1AC698" d="M46.825 163.505a175.295 175.295 0 0 1-17.532-6.533l.272-.502a174.81 174.81 0 0 0 17.466 6.508l-.206.527ZM57.856 160.303l-1.393 12.403.62.055 1.393-12.402-.62-.056ZM37.064 195.052c-3.652 0-7.413-.973-10.936-2.836-3.494-1.849-6.666-4.502-9.175-7.674-2.001-2.531-4.171-7.075-6.45-13.504a142.894 142.894 0 0 1-2.825-8.911l-.117-.429.482.089c.648.119 15.934 2.965 21.404 7.361l-.416.415c-2.203-1.77-6.548-3.581-12.564-5.237a117.664 117.664 0 0 0-8.062-1.899c.745 2.623 4.798 16.407 9.057 21.792 2.458 3.108 5.564 5.707 8.983 7.516 3.716 1.966 7.698 2.912 11.514 2.739l.032.557c-.308.014-.617.021-.927.021Z"/><path fill="#1AC698" d="M35.022 188.043c-6.16-7.673-13.254-14.709-21.149-20.978l.413-.418c7.93 6.296 15.054 13.363 21.242 21.07l-.506.326ZM113.689 195.838l-.407-.423c7.973-6.149 13.557-14.41 15.947-23.589 2.39-9.178 1.462-18.8-2.651-27.475-5.308.838-10.457 3.227-14.907 6.918-4.164 3.453-7.612 7.918-9.97 12.91-4.453 9.428-5.303 19.993-5.84 30.894l-.623-.025c.54-10.953 1.396-21.573 5.89-31.087 2.392-5.064 5.891-9.595 10.12-13.102 4.606-3.82 9.955-6.274 15.469-7.096l.241-.036.096.201c4.229 8.8 5.214 18.58 2.81 27.917-2.404 9.336-8.07 17.742-16.175 23.993Z"/><path fill="#1AC698" d="m103.949 193.863-.594-.171c4.384-12.184 10.522-23.804 18.26-34.566l.524.303c-7.709 10.721-13.824 22.296-18.19 34.434Z"/><path fill="#1AC698" d="m113.138 172.98-.355-.459c3.956-2.448 8.461-4.092 13.199-4.819l.105.551c-4.649.712-9.068 2.325-12.949 4.727Z"/><path fill="#DADADA" d="M257.834 178.32c-.524 0-1.036-.14-1.471-.4a2.457 2.457 0 0 1-.976-1.065 2.15 2.15 0 0 1-.151-1.371c.103-.46.355-.883.725-1.215a2.755 2.755 0 0 1 1.356-.649 2.93 2.93 0 0 1 1.531.135c.483.179.897.484 1.188.874a2.2 2.2 0 0 1 .446 1.318c0 .629-.28 1.232-.776 1.677a2.818 2.818 0 0 1-1.872.696Zm0-4.188c-.401 0-.792.107-1.125.306-.333.2-.593.483-.746.815a1.634 1.634 0 0 0-.115 1.048c.078.352.271.675.554.929.283.254.644.426 1.037.496.393.07.8.034 1.17-.103.37-.137.686-.37.909-.668.223-.298.341-.649.341-1.008 0-.481-.214-.942-.594-1.282a2.15 2.15 0 0 0-1.431-.533Z"/><path fill="#1AC698" d="M362.219 110.211a2.872 2.872 0 0 1-1.472-.4 2.449 2.449 0 0 1-.975-1.065 2.141 2.141 0 0 1-.151-1.371c.102-.46.355-.883.725-1.214.37-.332.842-.558 1.356-.65a2.946 2.946 0 0 1 1.53.135c.484.18.898.484 1.189.874a2.2 2.2 0 0 1 .446 1.318c-.001.629-.28 1.232-.776 1.677a2.818 2.818 0 0 1-1.872.696Zm0-4.187c-.401 0-.792.106-1.125.306a1.867 1.867 0 0 0-.746.814 1.635 1.635 0 0 0-.116 1.048c.079.352.271.675.555.929.283.254.644.427 1.037.497.393.07.8.034 1.17-.103.37-.138.686-.37.909-.669.222-.298.341-.649.341-1.008a1.726 1.726 0 0 0-.594-1.282 2.148 2.148 0 0 0-1.431-.532ZM397.114 147.756c1.291 0 2.337-.938 2.337-2.094s-1.046-2.093-2.337-2.093c-1.29 0-2.337.937-2.337 2.093s1.047 2.094 2.337 2.094ZM22.749 108.676c1.29 0 2.337-.937 2.337-2.093 0-1.157-1.046-2.094-2.337-2.094-1.29 0-2.337.937-2.337 2.094 0 1.156 1.046 2.093 2.337 2.093ZM2.648 145.383a2.88 2.88 0 0 1-1.47-.4 2.455 2.455 0 0 1-.976-1.065 2.145 2.145 0 0 1-.151-1.371 2.31 2.31 0 0 1 .725-1.215 2.75 2.75 0 0 1 1.356-.649 2.927 2.927 0 0 1 1.53.135c.484.179.898.483 1.189.874a2.2 2.2 0 0 1 .446 1.318c0 .629-.28 1.232-.777 1.677a2.816 2.816 0 0 1-1.872.696Zm0-4.188a2.2 2.2 0 0 0-1.125.306c-.333.2-.592.483-.746.815a1.638 1.638 0 0 0-.115 1.048c.078.352.271.675.554.929.284.254.644.426 1.037.496.393.07.8.034 1.17-.103.37-.137.687-.37.91-.668.222-.298.34-.649.34-1.008 0-.481-.213-.942-.593-1.282a2.152 2.152 0 0 0-1.432-.533Z"/><path fill="#DADADA" d="M146.758 172.876a2.881 2.881 0 0 1-1.472-.399 2.454 2.454 0 0 1-.975-1.065 2.15 2.15 0 0 1-.151-1.371c.102-.46.355-.883.725-1.215.37-.332.842-.558 1.356-.649a2.926 2.926 0 0 1 1.53.135c.484.179.898.483 1.189.874a2.2 2.2 0 0 1 .446 1.318c0 .629-.28 1.232-.776 1.677a2.812 2.812 0 0 1-1.872.695Zm0-4.187c-.401 0-.792.107-1.125.306-.333.2-.593.483-.746.814a1.639 1.639 0 0 0-.116 1.049c.079.352.272.675.555.929.283.253.644.426 1.037.496.393.07.8.034 1.17-.103.37-.137.686-.37.909-.668.222-.299.341-.649.341-1.008 0-.481-.214-.942-.594-1.283a2.153 2.153 0 0 0-1.431-.532Z"/><path fill="#D3DFFF" d="M225.595 140.637h-54.216v54.711h54.216v-54.711Z"/><path fill="#86A7FF" d="M226.059 195.766h-55.151v-55.548h55.151v55.548Zm-54.216-.837h53.281v-53.873h-53.281v53.873Z"/><path fill="#1F3C88" d="M225.595 140.637h-54.216v23.316h54.216v-23.316Z" opacity=".2"/><path fill="#fff" d="M208.695 167.74c5.638-5.051 5.638-13.24 0-18.291-5.638-5.05-14.778-5.05-20.416 0-5.638 5.051-5.638 13.24 0 18.291s14.778 5.051 20.416 0Z"/><path fill="#D3DFFF" d="M86.54 4.419h223.895c1.27 0 2.488.452 3.386 1.256.898.805 1.403 1.896 1.403 3.034V151.27c0 1.138-.505 2.229-1.403 3.034-.898.804-2.116 1.256-3.386 1.256H86.541c-1.27 0-2.489-.452-3.386-1.256-.898-.805-1.403-1.896-1.403-3.034V8.709c0-.563.124-1.121.365-1.642a4.29 4.29 0 0 1 1.037-1.392 4.858 4.858 0 0 1 1.554-.93 5.276 5.276 0 0 1 1.832-.326Z"/><path fill="#86A7FF" d="M310.027 155.979H86.942c-1.5-.002-2.94-.537-4-1.487-1.062-.951-1.66-2.24-1.66-3.585V9.071c.001-1.344.598-2.633 1.66-3.584 1.06-.95 2.5-1.485 4-1.487h223.085c1.501.002 2.94.536 4.001 1.487 1.061.95 1.658 2.24 1.66 3.584v141.836c-.002 1.345-.599 2.634-1.66 3.585-1.061.95-2.5 1.485-4.001 1.487ZM86.942 4.837c-1.253.002-2.454.448-3.34 1.242-.886.794-1.385 1.87-1.386 2.992v141.836c.001 1.123.5 2.199 1.386 2.993.886.793 2.087 1.24 3.34 1.241h223.085c1.253-.001 2.454-.448 3.34-1.241.886-.794 1.385-1.87 1.386-2.993V9.071c-.001-1.122-.5-2.198-1.386-2.992-.886-.794-2.087-1.24-3.34-1.242H86.942Z"/><path fill="#fff" d="M310.983 9.749H85.988v124.12h224.995V9.749Z"/><path fill="#86A7FF" d="M311.449 134.288H85.519V9.331h225.93v124.957Zm-224.995-.838h224.061V10.168H86.455V133.45Z"/><path fill="#D3DFFF" d="M221.937 20.611h-50.89v5.33h50.89v-5.33ZM262.467 31.143H130.512v1.994h131.955v-1.994Z"/><path fill="#86A7FF" d="M287.851 90.792h-50.912v1.994h50.912v-1.994ZM280.779 95.744h-43.84v1.994h43.84v-1.994ZM264.591 100.697h-27.652v1.994h27.652v-1.994Z"/><path fill="#D3DFFF" d="M281.72 109.916h-44.781v1.994h44.781v-1.994ZM275.499 114.868h-38.56v1.994h38.56v-1.994ZM126.893 85.904h-21.61v30.345h21.61V85.904Z"/><path fill="#86A7FF" d="M156.671 85.856h-24.292V95.88h24.292V85.856Z"/><path fill="#D3DFFF" d="M156.671 100.764h-24.292v15.527h24.292v-15.527Z"/><path fill="#86A7FF" d="M218.983 116.509h-44.98c-.922-.001-1.805-.329-2.457-.913-.651-.584-1.018-1.375-1.019-2.2v-20.24c.001-.825.368-1.616 1.019-2.2.652-.583 1.535-.912 2.457-.913h44.98c.921.001 1.804.33 2.456.913.651.584 1.018 1.375 1.019 2.2v20.24c-.001.825-.368 1.616-1.019 2.2-.652.584-1.535.912-2.456.913Zm-44.98-25.978c-.778 0-1.523.277-2.072.77-.55.492-.859 1.16-.86 1.856v20.239c.001.696.31 1.364.86 1.856a3.117 3.117 0 0 0 2.072.77h44.98a3.116 3.116 0 0 0 2.071-.77c.55-.492.859-1.16.86-1.856v-20.24c-.001-.696-.31-1.363-.86-1.855a3.113 3.113 0 0 0-2.071-.77h-44.98Z"/><path fill="#3A6BEA" d="m175.93 110.898-.487-.218 3.073-5.506 3.798 3.565 4.522-8.75 6.064 5.103 6.672-5.977 6.521 3.57 8.368-7.815.392.337-8.67 8.098-6.529-3.575-6.742 6.04-5.899-4.965-4.541 8.787-3.815-3.58-2.727 4.886Z"/><path fill="#86A7FF" d="M203.963 109.774h-5.166v2.435h5.166v-2.435Z"/><path fill="#3A6BEA" d="M216.334 110.748h-8.973v.487h8.973v-.487Z"/><path fill="#D3DFFF" d="M216.769 57.486c-.902-2.993-2.616-5.74-4.987-7.999-2.372-2.258-5.33-3.957-8.61-4.946l-6.68 17.833 20.277-4.888Z"/><path fill="#86A7FF" d="m196.491 62.374-9.294 16.868c3.622 1.601 7.682 2.232 11.694 1.819 4.011-.414 7.805-1.855 10.926-4.151 3.121-2.296 5.436-5.35 6.669-8.795a16.946 16.946 0 0 0 .283-10.629l-20.278 4.888Z"/><path fill="#3A6BEA" d="M203.17 44.54c-5.048-1.517-10.55-1.26-15.394.72-4.844 1.98-8.668 5.533-10.698 9.943-2.03 4.41-2.114 9.345-.236 13.808 1.879 4.463 5.58 8.12 10.354 10.231l9.294-16.868 6.68-17.833Z"/><path fill="#D3DFFF" d="M145.764 75.582h-29.576v1.994h29.576v-1.993Z"/><path fill="#86A7FF" d="M156.942 71.22h-51.93V44.325h51.93v26.894Zm-51.387-.488h50.843v-25.92h-50.843v25.92Z"/><path fill="#D3DFFF" d="M153.135 50.196c-1.723-.31-3.431.696-4.521 1.935a15.768 15.768 0 0 0-1.363 1.88c-.445.73-.941 1.432-1.486 2.105-1.068 1.255-2.727 2.304-4.464 2.067-2.818-.385-4.359-3.85-7.209-3.806-1.331.021-2.472.846-3.379 1.723-.907.876-1.735 1.871-2.915 2.425-1.65.773-3.687.523-5.398-.136-1.71-.658-3.211-1.684-4.837-2.497-2.741-1.353-5.807-2.092-8.936-2.155v13.156h44.695V50.24c-.062-.015-.123-.033-.187-.044Z"/><path fill="#86A7FF" d="M122.4 58.389c1.711.658 3.748.909 5.398.135 1.181-.553 2.008-1.549 2.915-2.425.907-.876 2.048-1.701 3.379-1.722 2.85-.045 4.391 3.42 7.209 3.805 1.737.237 3.396-.811 4.464-2.066a19.423 19.423 0 0 0 1.486-2.106c-1.731.072-3.463.149-4.963-.568-1.492-.714-2.47-2.104-3.958-2.825-2.67-1.294-5.936-.06-8.597 1.25-1.59.784-3.363 1.625-5.125 1.239-1.992-.437-3.16-2.255-4.819-3.34-3.177-2.075-7.949-1.068-10.664 1.483l-.005.005c-.317.296-.493.69-.493 1.1v1.382c3.129.063 6.195.803 8.936 2.156 1.626.813 3.127 1.838 4.837 2.497ZM288.113 81.99h-52.009V44.287h52.009V81.99Zm-51.386-.559h50.763V44.847h-50.763V81.43Z"/><path fill="#86A7FF" d="M250.143 59.994h-5.438v16.4h5.438v-16.4Z"/><path fill="#D3DFFF" d="M250.143 51.712h-5.438v8.281h5.438v-8.281ZM259.93 51.712h-5.438v12.3h5.438v-12.3Z"/><path fill="#86A7FF" d="M259.93 64.013h-5.438v12.381h5.438V64.013ZM269.719 57.132h-5.438v19.262h5.438V57.132Z"/><path fill="#D3DFFF" d="M269.719 51.712h-5.438v5.42h5.438v-5.42Z"/><path fill="#86A7FF" d="M279.508 64.317h-5.438v12.077h5.438V64.317Z"/><path fill="#D3DFFF" d="M279.508 51.712h-5.438v12.605h5.438V51.712Z"/><path fill="#102048" d="m91.397 195.348-10.179-9.49.022-7.003-12.363.329 1.02 16.164h21.5Z"/><path fill="#E28B6D" d="m81.324 152.547-14.021 1.675.553 8.762 13.436-.292.032-10.145Z"/><path fill="#F9B384" d="m81.292 162.691-13.436.292 1.022 16.2 12.364-.329.05-16.163Z"/><path fill="#fff" d="m80.957 185.352-5.297 2.233.53 1.01 5.298-2.233-.53-1.01Z"/><path fill="#E28B6D" d="m110.927 149.662-13.502-.465-1.773 9.256 12.935 1.692 2.34-10.483Z"/><path fill="#102048" d="m113.936 185.95-8.308-12.561 1.074-4.812c-3.664-.752-9.32-1.91-12.504-2.546l-2.8 14.616 22.538 5.303Z"/><path fill="#F9B384" d="m108.583 160.145-12.934-1.693-1.452 7.578c3.184.636 8.84 1.794 12.504 2.546l1.882-8.431Z"/><path fill="#fff" d="m105.427 172.859-5.245 1.582.397 1.058 5.245-1.582-.397-1.058Z"/><path fill="#FBC343" d="M119.961 151.06s-5.609 6.325-15.997 4.276c-10.382-2.043-8.513 3.35-14.333 4.467-5.814 1.116-22.017-8-27.42.558 0 0-3.215-32.408-1.75-52.919.398-5.538 1.134-10.21 2.374-13.141l24.858-.307 5.471-.067s.019.106.063.318c.093.44.28 1.34.592 2.624 2.031 8.446 9.16 33.496 26.142 54.191Z"/><path fill="#E49B31" d="M93.82 96.869c-5.56 3.288-17.15 8.938-33.36 10.573.4-5.538 1.135-10.21 2.375-13.141l24.858-.307 5.534.25c.094.442.28 1.34.592 2.625Z"/><path fill="#fff" d="m66.327 124.585 5.99-18.207-27.198-7.181-5.99 18.207 27.198 7.181Z"/><path fill="#86A7FF" d="m66.537 124.927-27.795-7.339 6.167-18.742 27.795 7.339-6.167 18.742Zm-27.02-7.717 26.599 7.024 5.814-17.671-26.6-7.024-5.814 17.671Z"/><path fill="#86A7FF" d="m66.985 107.767-1.784 5.421.598.158 1.784-5.421-.598-.158ZM63.248 106.78l-4.295 13.053.598.158 4.294-13.053-.597-.158ZM59.513 105.794l-4.294 13.053.597.157 4.294-13.052-.597-.158ZM55.777 104.808l-4.295 13.052.598.158 4.294-13.052-.597-.158ZM52.043 103.82l-3.281 9.974.597.158 3.282-9.974-.598-.158Z"/><path fill="#F9B384" d="M108.885 60.99s.768-6.634 1.459-6.522c.691.112.616 1.733.616 1.733s1.616-3.7 2.366-3.695c.751.004-.016 1.512-.016 1.512s.835-1.513 1.458-1.396c.623.117.112 1.4.112 1.4s.651-1.24 1.283-1.02c.631.22.235 1.236.235 1.236s.345-.804.934-.268c.588.535-2.432 8.303-2.432 8.303l-4.257 1.088-1.758-2.372Z"/><path fill="#3A6BEA" d="M114.924 62.294s-3.714 13.683-13.08 17.68a13.623 13.623 0 0 1-7.534.927l-1.677-2.674L81.641 60.71l3.838-1.206s8.625 2.88 13.299 9.3c0 0 4.362-.368 10.176-8.183l5.97 1.674Z"/><path fill="#102048" d="M101.841 79.975a13.621 13.621 0 0 1-7.534.927l-1.676-2.674.43-6.537s6.356 3.232 8.78 8.284Z"/><path fill="#F9B384" d="M63.149 106.373s-.84 6.442-1.576 6.333c-.736-.11-.647-1.731-.647-1.731s-1.74 3.707-2.54 3.706c-.799-.001.026-1.513.026-1.513s-.897 1.517-1.56 1.403c-.664-.114-.112-1.4-.112-1.4s-.7 1.243-1.372 1.026c-.672-.218-.244-1.236-.244-1.236s-.372.806-.996.272c-.624-.533 2.634-8.316 2.634-8.316l4.54-1.106 1.847 2.562Z"/><path fill="#3A6BEA" d="M78.055 59.64c-18.436 2.001-23.862 24.89-21.76 46.384l6.856.372s1.142-21.028 10.594-31.077l7.893-14.608-3.583-1.07Z"/><path fill="#3A6BEA" d="m81.636 60.711 12.775 7.723s3.531 14.794 3.323 27.913c0 0-24.719 8.189-36.974-.372l9.659-28.1 11.217-7.164Z"/><path fill="#102048" d="M88.969 47.335c1.184-3.698-2.97-8.025-10.916-4.35 0 0-7.894 1.21-6.492 13.492l8.31.28 9.098-9.422Z"/><path fill="#102048" d="M79.715 42.73c1.086-3.908-3.654-4.533-4.443-2.136-.106.32-2.415-.821-3.061 1.042-.74 2.137 1.832 3.558 4.74 3.022l2.764-1.928Z"/><path fill="#F9B384" d="M85.473 52.152v7.352l-3.584 4.511-3.838-4.371.205-7.632 7.217.14Z"/><path fill="#102048" d="M85.48 54.662v4.718c-2.568-1-3.671-4.02-3.671-4.02l3.67-.698Z"/><path fill="#F9B384" d="M88.97 47.336s2.552 12.072-7.16 8.025l-3.19-3.28 1.984-6.63 5.105-1.116 3.26 3Z"/><path fill="#102048" d="M88.965 47.336s-2.036-2.838-4.58-1.465c-2.545 1.372-2.416 6.187-5.064 4.978-2.649-1.21-1.117-4.932-1.117-4.932l3.895-2.652 4.362.442 2.504 3.63Z"/><path fill="#F9B384" d="M79.7 52.922c.882-.456 1.126-1.556.545-2.458-.581-.9-1.767-1.262-2.648-.806-.882.456-1.126 1.557-.545 2.458.58.901 1.766 1.262 2.648.806Z"/><path fill="#102048" d="M81.946 69.085c.688 0 1.246-.5 1.246-1.116 0-.617-.558-1.117-1.246-1.117-.689 0-1.247.5-1.247 1.117 0 .616.558 1.116 1.247 1.116ZM64.18 97.843l-.612-.107a99.92 99.92 0 0 1 2.442-8.818c2.056-6.252 4.2-10.378 6.372-12.264l.433.4c-5.013 4.356-8.6 20.625-8.635 20.79ZM61.87 84.661c-1.145-.769-3.826-.69-3.853-.689l-.023-.557c.12-.004 2.93-.087 4.25.8l-.375.446ZM332.25 178.32l-.208 10.607-2.7 6.42h14.644l-.831-17.306-10.905.279ZM310.704 179.437v8.793l-11.528 7.117h23.213l-1.402-16.887-10.283.977Z"/><path fill="#fff" d="m311.077 187.786-.755.888 3.48 2.373.754-.889-3.479-2.372Z"/><path fill="#3A6BEA" d="m330.173 93.184-.062.212-2.069 7.308-4.512 15.927a68.482 68.482 0 0 0-1.451 8.151c-2.2 18.127.641 41.296 2.118 51.289a3.937 3.937 0 0 1-.169 1.842 4.279 4.279 0 0 1-1.003 1.616 4.902 4.902 0 0 1-1.658 1.1 5.38 5.38 0 0 1-2.018.388h-8.207a5.344 5.344 0 0 1-2.615-.679 4.614 4.614 0 0 1-1.81-1.822c-10.463-19.629-8.761-48.944-6.661-56.118 3.321-11.349 5.608-28.282 5.608-28.282l6.973-.268 17.536-.664Z"/><path fill="#3A6BEA" d="M345.883 175.892c-.032 1.213-.593 2.367-1.562 3.215-.968.848-2.269 1.323-3.623 1.324h-7.03c-1.257 0-2.471-.409-3.416-1.152-.945-.743-1.555-1.768-1.719-2.885-1.339-9.155-4.605-32.223-6.456-51.612-.965-10.172-1.539-19.327-1.24-24.932.106-2.127.343-3.74.736-4.706l8.537-1.748 8.693-1.775s2.156 2.06 4.138 13.03c2.063 11.444 3.926 32.597 2.942 71.241Z"/><path fill="#102048" d="M321.19 140.279c-.386-7.15-.14-13.245.75-18.636.295-1.747 1.323-3.329 2.875-4.42l5.84-4.159.388.437-5.841 4.159c-1.427 1.003-2.374 2.458-2.646 4.065-.884 5.354-1.127 11.414-.744 18.527l-.622.027ZM303.674 142.59l-.076-.554c3.912-.435 7.266-.496 10.252-.186l-.072.554c-2.935-.304-6.24-.244-10.104.186ZM331.721 141.286l-.076-.554c3.913-.435 7.267-.496 10.252-.186l-.072.554c-2.935-.305-6.24-.243-10.104.186ZM314.512 174.384c-5.33 0-9.278-.85-9.338-.863l.149-.542c.09.019 9.16 1.97 18.328-.11l.153.541c-3.235.734-6.459.974-9.292.974ZM336.468 174.415a54.767 54.767 0 0 1-8.462-.676l.119-.548c.103.018 10.356 1.766 17.181-.494l.216.524c-2.827.936-6.197 1.194-9.054 1.194Z"/><path fill="#1F3C88" d="M342.946 104.651c-3.97-1.898-9.447-3.138-14.9-3.947a126.313 126.313 0 0 0-7.204-.854c-7.297-.665-13.149-.665-13.149-.665l4.948-5.337 17.536-.664-.062.212 8.693-1.775s2.156 2.06 4.138 13.03Z"/><path fill="#E28B6D" d="M319.417 51.168h-7.21v10.78h7.21v-10.78Z"/><path fill="#102048" d="M315.585 55.65c-.614 1.615-1.8 3.005-3.378 3.96v-4.707l3.378.748Z"/><path fill="#E28B6D" d="m308.49 45.667-.507 4.537s-2.359 2.836-.886 2.836c1.583 0 1.33.568 1.33.568s-.887 5.898 7.154 2.041l1.709-8.848-8.8-1.134Z"/><path fill="#102048" d="M308.49 45.667s2.185-.256 2.754 1.815c.57 2.07 1.33 3.346 3.261 1.9l2.121-3.12-3.641-1.361-4.495.766Z"/><path fill="#102048" d="M308.49 45.667c0-1.475 1.952-4.992 8.104-4.056 5.88.895 6.806 8.282 3.767 11.656 0 0-1.551 2.184-3.64-1.815l-3.577-4.31-.76-1.362-3.894-.113Z"/><path fill="#E28B6D" d="M317.048 51.183c-.581.902-1.764 1.265-2.643.811-.878-.454-1.119-1.554-.537-2.456.581-.902 1.764-1.265 2.642-.81.879.454 1.119 1.553.538 2.455Z"/><path fill="#E49B31" d="M330.693 59.594c13.813 4.001 24.719 20.75 11.944 21.029-12.775.279-20.565-10.328-20.565-10.328l8.621-10.7Z"/><path fill="#E28B6D" d="M269.571 72.368s-6.824-2.664-7.055-2.07c-.231.595 1.381 1.333 1.381 1.333s-4.39-.56-4.755.028c-.366.587 1.477.731 1.477.731s-1.88-.093-2.074.45c-.193.544 1.306.776 1.306.776s-1.526-.102-1.623.5c-.096.6 1.086.79 1.086.79s-.951-.126-.72.597c.231.722 9.265 2.188 9.265 2.188l3.153-2.784-1.441-2.538Z"/><path fill="#FBC343" d="m337.79 96.947-30.841 3.014a4.782 4.782 0 0 1-1.816-.171 4.434 4.434 0 0 1-1.573-.832 3.886 3.886 0 0 1-1.047-1.34 3.503 3.503 0 0 1-.331-1.61l.386-11.399.181-5.253.006-.129c-.212.216-.436.421-.673.614 0 .006-.006.006-.013.012-.292.24-.679.535-1.159.86-4.094 2.768-15.012 7.525-33.053-3.021l1.714-5.32 19.474.714s8.731-6.32 16.483-10.657c5.066-2.836 10.93-4.405 16.9-4.265 2.699.061 5.596.446 8.27 1.429 6.574 2.434 9.833 24.162 10.905 33.11.061.504.01 1.013-.148 1.498a3.736 3.736 0 0 1-.777 1.332 4.238 4.238 0 0 1-1.287.964 4.668 4.668 0 0 1-1.601.45Z"/><path fill="#E49B31" d="M286.898 78.221c-.564-3.466 1.852-5.275 1.955-5.35l.394.432a4.68 4.68 0 0 0-1.065 1.232c-.657 1.075-.882 2.288-.667 3.606l-.617.08ZM305.51 77.273s-.193 4.5-2.942 7.336l.181-5.254c1.028-.748 2.206-1.624 2.761-2.082Z"/><path fill="#E49B31" d="m296.38 83.269-.122-.547c4.51-.808 10.584-7.578 10.645-7.647l.487.348a44.426 44.426 0 0 1-3.688 3.586c-2.861 2.469-5.324 3.902-7.322 4.26Z"/></svg>