<svg xmlns="http://www.w3.org/2000/svg" width="203" height="301" fill="none" viewBox="0 0 203 301"><path fill="#0062DD" d="M2.551 2.667A8.645 8.645 0 0 1 5.364.694 8.333 8.333 0 0 1 8.685 0h20.57c4.698 0 8.627 3.857 8.787 8.767a9.29 9.29 0 0 1-2.073 6.189 8.846 8.846 0 0 1-2.732 2.242c-1.711.898-2.082 3.29-.678 4.65l.044.042c.369.35.786.64 1.238.86.098.047.041.195-.052.199-.909.036-1.827.08-2.737.026a5.672 5.672 0 0 1-2.346-.608c-1.365-.722-2.38-2.013-3.004-3.453a10.11 10.11 0 0 1-.291-.755H8.8c-4.763 0-8.727-3.959-8.8-8.938a9.413 9.413 0 0 1 .637-3.548 9.09 9.09 0 0 1 1.913-3.006Z"/><path fill="#fff" d="M26.837 6.54c.324-.007.647.054.948.18.302.125.576.312.806.551.233.232.416.512.54.822.122.31.182.643.175.979 0 .804-.246 1.43-.739 1.876a2.493 2.493 0 0 1-1.73.671 2.407 2.407 0 0 1-1.69-.68c-.487-.452-.73-1.075-.73-1.867a2.594 2.594 0 0 1 .174-.975c.12-.309.298-.59.524-.826a2.38 2.38 0 0 1 .79-.547c.296-.126.613-.188.932-.183ZM18.985 6.54c.325-.007.647.054.949.18.301.125.575.312.806.551.232.232.416.512.539.822.123.31.183.643.176.979 0 .804-.247 1.43-.74 1.876a2.493 2.493 0 0 1-1.73.671 2.408 2.408 0 0 1-1.69-.68c-.487-.452-.73-1.075-.73-1.867a2.596 2.596 0 0 1 .174-.975c.12-.309.299-.59.524-.826a2.38 2.38 0 0 1 .79-.547c.296-.126.613-.188.932-.183ZM11.163 6.54a2.32 2.32 0 0 1 .948.18c.302.125.576.312.807.551.232.232.415.512.538.822.123.31.183.643.177.979 0 .804-.247 1.43-.74 1.876a2.493 2.493 0 0 1-1.73.671 2.408 2.408 0 0 1-1.69-.68c-.487-.452-.73-1.075-.73-1.867a2.595 2.595 0 0 1 .174-.975c.12-.309.298-.59.524-.826.226-.236.494-.422.79-.547.296-.126.613-.188.932-.183Z"/><path fill="#FAC870" d="M77.596 300.249c41.092 0 74.403-9.66 74.403-21.576 0-11.917-33.311-21.577-74.403-21.577-41.091 0-74.403 9.66-74.403 21.577 0 11.916 33.312 21.576 74.403 21.576Z" opacity=".5"/><path fill="#011945" d="M55.407 46.305c-1.998-3.356-1.73-6.201 2.815-7.703-.248-1.233-.623-2.445-.713-3.677-.175-2.413.95-3.37 3.334-3.022.145.01.292.01.438.002-.044-.74-.097-1.463-.129-2.187-.102-2.314 2.099-4.626 4.385-5.027 1.568-.275 2.801.4 3.92 1.58.1-.292.227-.574.377-.844.341-.497.643-1.068 1.103-1.426 2.008-1.559 4.125-.893 4.95 1.506.18.524.327 1.06.422 1.371.518-.414 1.064-.848 1.607-1.285.796-.643 1.666-1.118 2.71-1.195 2.058-.153 3.129.807 3.187 2.865.016.555.003 1.112.003 1.787.417-.336.773-.637 1.143-.919.675-.512 1.409-.863 2.285-.852 1.623.02 2.526.926 2.477 2.54-.014.43-.1.857-.167 1.404.303-.067.575-.123.844-.187.255-.06.507-.133.763-.188 1.609-.348 3.149-.352 4.33 1.037 1.154 1.358.846 2.837.29 4.323-.104.277-.197.559-.3.85 4.981.713 5.581 3.696 3.222 7.16.565.311 1.173.563 1.687.942a4.31 4.31 0 0 1 .807 6.156c-1.447 1.805-3.085 3.352-5.635 3.564l-.115 1.957c.269-.118.42-.191.577-.253 1.164-.457 1.739-.111 1.618 1.093a16.455 16.455 0 0 1-.629 3.463c-.581 1.779-1.348 3.498-2.04 5.24-.14.358-.291.712-.48 1.168.69.071 1.285.108 1.872.199 1.18.183 1.658.672 1.956 1.804.174.664.465 1.295.663 1.954.157.446.252.911.282 1.383.015 1.515.336 1.988 1.788 2.391 2.92.81 5.696 1.91 8.166 3.726 1.345.988 2.263 2.228 2.995 3.719 2.623 5.343 3.921 11.088 5.246 16.828.52 2.253.99 4.517 1.48 6.777.055.256.106.513.141.772.225 1.651.121 1.781-1.521 1.96a1.839 1.839 0 0 0-.341.14c.213 1.203.435 2.432.648 3.663.586 3.396 1.157 6.796 1.759 10.189a6.328 6.328 0 0 1-.232 3.229c-1.22 3.5-2.419 7.01-3.743 10.472-.578 1.509-.987 2.958-.554 4.566.119.443.071.931.106 1.51h-2.246c-.963 1.599-1.958 3.181-2.866 4.812a2.724 2.724 0 0 0-.256 1.495c.901 9.734 1.875 19.462 2.736 29.2.524 5.918 1.473 11.777 2.203 17.665.564 4.548.996 9.113 1.402 13.678.626 7.045 1.211 14.094 1.755 21.146.704 9.272 1.722 18.526 1.678 27.842a1.848 1.848 0 0 0 .694 1.571c1.273 1.115 2.344 2.389 2.192 4.25-.045.554-.183 1.101-.301 1.784.907 1.482 1.037 3.299 1.137 5.124.184 3.387-2.904 5.231-5.986 4.457-1.976-.496-3.678-1.583-5.377-2.657a12.717 12.717 0 0 1-1.174-.834c-1.303-1.047-2.803-1.728-4.276-2.493-2.784-1.444-5.468-3.086-8.165-4.693-.515-.306-.983-.491-1.58-.429-2.17.223-4.346.408-6.517.635-1.49.155-2.97.143-4.416-.272-1.168-.335-1.526-.825-1.53-1.965-.027-6.856-.05-13.712-.072-20.568-.009-3.581.052-7.163-.007-10.743-.054-3.251.484-6.438.889-9.64.728-5.757 1.502-11.508 2.254-17.263.752-5.754 1.504-11.509 2.248-17.265.65-5.02 1.294-10.041 1.934-15.062.212-1.644.44-3.287.664-4.93a3.86 3.86 0 0 0 .07-.385c.013-.413.207-.999-.402-1.056-.61-.058-.546.549-.598.965-1.239 9.785-2.476 19.57-3.712 29.355-1.039 8.182-2.032 16.371-3.155 24.541-.683 4.971-1.62 9.906-2.36 14.869-.728 4.877-1.357 9.769-2.02 14.656-.629 4.627-1.242 9.256-1.87 13.884-.188 1.387-.57 1.646-1.927 1.231-3.796-1.162-7.581-2.357-11.377-3.519-.904-.277-1.832-.475-2.89-.745-.333 1.832-.732 3.46.134 5.185.4.824.53 1.753.372 2.654a59.28 59.28 0 0 0-1.228 9.058c-.099 1.841-.784 3.575-1.585 5.235-1.655 3.432-5.902 5.514-9.644 4.757-1.77-.358-3.417-.93-4.881-2.077-1.766-1.383-2.638-3.088-2.465-5.325.033-.433.05-.868.078-1.382-1.235-.334-1.545-1.284-1.487-2.413.05-.953.06-1.927.27-2.849.788-3.433 3.095-5.346 6.416-6.167.633-.156 1.281-.251 1.913-.373.834-1.382 3.047-7.58 3.11-8.829-1.692-.43-3.41-.884-5.138-1.302-2.925-.708-5.86-1.378-8.782-2.099a10.361 10.361 0 0 1-1.96-.722c-1.472-.701-1.88-1.411-1.684-3.025.284-2.34.634-4.671.946-7.007 2.41-18.053 6.094-35.879 9.63-53.729a288.254 288.254 0 0 1 8.147-31.815c1.62-5.066 3.17-10.155 4.822-15.46-1.173-1.343-2.473-2.865-3.816-4.348-.373-.411-.64-.761-.536-1.369a656.29 656.29 0 0 0 1.508-9.166c.599-3.794 1.184-7.589 1.755-11.387.279-1.855.514-3.717.748-5.42-.4-.593-.853-1.037-1.037-1.574-1.886-5.51-3.398-11.12-3.568-16.975-.235-8.037 3.116-14.274 9.9-18.593 1.983-1.263 4.1-2.32 6.177-3.43 1.655-.884 3.344-1.703 5.013-2.559.184-.11.36-.232.527-.367-.916-1.141-2.813-2.088-3.959-1.95-.097.474-.17.984-.306 1.477-.454 1.635-1.281 2.951-3.01 3.51-1.361.44-1.945.272-2.807-.89-.102-.139-.213-.27-.367-.466-.647.271-1.278.547-1.918.8-.596.269-1.211.495-1.84.677a3.32 3.32 0 0 1-3.986-4.213c.196-.665.525-1.29.788-1.936.143-.351.274-.707.473-1.225-.535-.074-.95-.134-1.365-.189-1.377-.181-2.647-.677-3.662-1.607a5.959 5.959 0 0 1-1.42-1.984c-.56-1.302-.128-2.26 1.115-2.945.19-.104.388-.192.613-.304-.738-.844-1.47-1.635-2.149-2.47a5.223 5.223 0 0 1-1.156-3.659c.102-2.278 1.224-3.775 3.391-4.449.414-.128.828-.254 1.24-.386.038-.011.066-.056.097-.084Zm51.808 38.928c.513.31.519.85.587 1.352.797 5.879 1.592 11.758 2.387 17.637.062.456.175.906.269 1.378l7.159-.49c-.658-3.339-1.333-6.507-2.192-9.672l-1.454.9c-.417-.872.051-1.39.423-1.79.594-.638.57-1.266.381-2.027-.888-3.577-2.321-6.948-3.912-10.25a6.342 6.342 0 0 0-1.535-1.925c-2.649-2.32-5.822-3.583-9.076-4.393l-2.378 4.105c.578.704 1.662.997 1.784 2.127-.967.51-1.464-.718-2.365-.529 0 .33-.003.676 0 1.02.125 10.17.25 20.341.377 30.511.073 5.499.187 10.998.257 16.498.011.842.227 1.468.945 2.004.854.68 1.658 1.419 2.408 2.212.145.143.116.461.167.698-.277.036-.618.191-.818.083-.373-.2-.659-.557-.989-.84-.468-.402-.816-.981-1.563-1.149.017 2.741-.018 5.381.067 7.988h8.3c.447-.939.878-1.893 1.354-2.824.202-.384.454-.739.751-1.055.101-.11.402-.112.571-.052a.502.502 0 0 1 .183.437 5.304 5.304 0 0 1-.299.86l-1.114 2.962 6.028.718c-.065-.736-.095-1.293-.167-1.845-.501-3.85-.966-7.706-1.528-11.548-.753-5.143.113-3.61-2.85-8.392-.194-.313-.329-.664-.531-1.078 1.495-.454 1.371 1.225 2.248 1.422-.104-2.965-2.033-16.926-2.486-17.89-.344.453-.718.882-1.118 1.287-.174.158-.523.124-.793.177-.001-.266-.098-.587.016-.788.367-.642.729-1.323 1.247-1.832.617-.608.624-1.236.522-2a1264.6 1264.6 0 0 1-1.642-12.72c-.056-.443-.245-.967.379-1.287ZM89.487 95.587l-.277-.078c-.61 1.514-1.2 3.037-1.836 4.542-1 2.367-1.995 4.738-3.058 7.077-.72 1.588-1.59 3.108-2.328 4.688-1.851 3.958-4.406 7.42-7.409 10.563a14.798 14.798 0 0 1-1.792 1.519 1.458 1.458 0 0 1-1.722.128 11.745 11.745 0 0 1-1.913-1.342c-3.457-3.241-6.515-6.807-8.755-11.02a7.498 7.498 0 0 0-.52-.741c-.15.161-.293.243-.307.342-1.211 8.849-2.413 17.699-3.624 26.612.273.086.55.201.838.262 9.044 1.908 18.09 3.81 27.136 5.705.533.111 1.098.07 1.785.107.108-1.119.225-2.106.296-3.097.236-3.264.421-6.531.704-9.79.07-.81-.052-1.446-.593-2.036-.317-.361-.611-.741-.88-1.139-.24-.336-.427-.766.001-1.021.202-.121.62.038.903.158.246.104.44.332.781.605l2.57-32.044Zm-9.055-30.046c.386.377.717.706 1.052 1.03 2.233 2.158 3.658 4.703 4.15 7.825.312 1.969.958 3.887 1.492 5.817.11.4.203.72-.067 1.096-1.166 1.63-2.28 3.297-3.47 4.908-.674.911-1.488 1.716-2.186 2.61-3.084 3.9-6.41 7.601-9.956 11.084-2.693 2.679-5.43 5.312-8.16 7.953-.87.842-1.778 1.645-2.67 2.467 2.41 4.551 5.565 8.419 9.293 11.831 1.644 1.504 2.114 1.495 3.682-.124 2.653-2.738 5.033-5.69 6.748-9.125 1.442-2.889 2.889-5.775 4.298-8.68.493-1.018.89-2.085 1.311-3.137.956-2.39 1.837-4.81 2.862-7.17 1.077-2.48 2.248-4.916 3.026-7.519.193-.626.505-1.21.919-1.718 1.35-1.654 2.796-3.228 4.139-4.887.654-.81 1.171-1.731 1.73-2.615.482-.761.49-1.524.077-2.352-.245-.49-.295-1.075-.437-1.615-.152-.576-.296-1.154-.468-1.724-.125-.414-.338-.805-.429-1.225-.285-1.314-.35-1.394-1.694-1.5-.479-.039-.963-.023-1.438-.086a4.694 4.694 0 0 1-.86-.294c.992-3.716 3.127-6.991 3.333-11.117-.41.378-.68.538-.824.775a30.609 30.609 0 0 0-1.676 2.94c-.751 1.62-1.256 3.368-2.121 4.918-1.06 1.899-2.377 3.655-3.602 5.46-.166.245-.448.412-.776.705-.052-.762-.041-1.309-.132-1.838-.47-2.745-2.54-4.054-4.771-5.158-.766-.38-1.59-.276-2.375.465Zm-1.881 25.374-.093-.306c-.507-.045-1.019-.06-1.517-.15a.633.633 0 0 1-.44-.383.653.653 0 0 1 .284-.525c.223-.136.486-.19.745-.155 1.756.394 2.863-.43 3.74-1.843.364-.587.912-1.055 1.343-1.604 1.343-1.711 2.67-3.435 3.91-5.033-.394-1.147-.76-2.12-1.056-3.114-.173-.582-.44-.978-1.038-1.209-1.859-.717-3.455-1.866-4.87-3.244-1.21-1.178-2.34-2.44-3.485-3.645-2.245 1.153-4.528 2.318-6.802 3.5-.967.503-1.91 1.052-2.874 1.562a1.485 1.485 0 0 0-.881 1.175 10.265 10.265 0 0 1-.724 2.231c-.088.211-.442.311-.673.462-.106-.257-.309-.52-.295-.77.026-.489.174-.97.315-1.67-1.994 1.264-3.582 2.585-4.873 4.264-3.017 3.92-4.5 8.333-4.278 13.283.19 4.206 1.114 8.288 2.19 12.34.1.3.214.596.344.884l14.082-11.586c-.046-.322-.061-.495-.097-.663-.702-3.328-1.416-6.652-2.102-9.983-.106-.516-.083-1.058-.14-1.871 1.308.924.837 2.3 1.427 3.019.85.559 2.08-.029 2.582 1.367h-2.343l2.111 9.677 5.508-6.01ZM67.57 46.422c.563.388.986.628 1.35.938 1.054.898 1.311 2.032.828 3.308-.233.564-.51 1.11-.828 1.63-.571 1.005-.478 1.76.389 2.539.284.272.61.497.964.667 1.79.778 1.733 2.326 1.062 3.738-.521 1.097-.946 1.277-2.135.955a2.379 2.379 0 0 0-2.303.582c-.664.602-.777 1.417-.519 2.29.433 1.469 1.897 2.736 3.43 2.812 1.37.069 2.738.016 3.425-1.524.025-.057.226-.036.337-.05.05.11.122.19.115.264-.034.383-.089.764-.144 1.204 2.708 1.916 5.601 3.38 9.13 3.659a3.418 3.418 0 0 0-.31-.577c-.724-.815-1.465-1.614-2.191-2.428-.708-.793-.597-1.52.322-2.03.897-.498 1.859-.583 2.766-.108 2.104 1.105 4.147 2.3 4.934 4.78.073.139.168.265.28.374.853-1.18 1.692-2.293 2.475-3.444.36-.546.669-1.124.926-1.725.462-1.035.837-2.11 1.318-3.135 1.948-4.154 1.913-8.448.948-12.808a9.065 9.065 0 0 0-2.831-4.917c-1.352-1.202-2.826-2.266-4.083-3.262-1.075.064-2.021.31-2.866.116-.832-.192-1.561-.831-2.388-1.304-2.438 1.876-5.148 1.182-7.864.334-.158.494-.271.867-.396 1.236-.12.358-.253.712-.388 1.09.49.284.915.503 1.311.767.899.599 1.157 1.36.841 2.382-.512 1.66-2.52 2.793-4.178 2.322a.897.897 0 0 1-.47-.505c-.03-.076.23-.358.399-.41.414-.13.866-.14 1.277-.274.445-.146.93-.297 1.277-.59 1.048-.88.936-1.641-.259-2.3-.634-.35-1.26-.717-1.945-1.107.197-.297.375-.605.534-.924.276-.683.602-1.362.753-2.076.15-.708-.513-1.447-.994-1.16-.72.43-1.311 1.096-1.907 1.71-.454.468.004.898.193 1.306.912 1.975-.08 3.824-1.216 4.69-.307.234-.63.446-1.37.965Zm43.31 62.879 3.519 26.67.228.125c.048-.123.101-.245.144-.369 1.147-3.34 2.303-6.677 3.432-10.023a5.957 5.957 0 0 0 .169-2.966c-.513-3.009-.936-6.033-1.402-9.05-.246-1.586-.507-3.171-.774-4.83-1.784-.126-3.453.097-5.316.443ZM59.949 270.899c.28-1.526.631-2.754.704-3.998.11-1.889-.275-3.803.497-5.701l-6.977-1.963-2.603 8.561c3.138.017 5.71 1.353 8.38 3.101Zm-9.53 10.27.273.119c-.26.525-.54 1.043-.778 1.579a8.762 8.762 0 0 0-.658 1.697c-.172.819.386 1.198 1.183.921.935-.325 1.164-1.076 1.281-1.936.063-.648.186-1.288.37-1.912.084-.25.53-.566.757-.528.24.04.497.438.597.731.09.264.005.602-.05.898a46.843 46.843 0 0 1-.415 1.913c-.117.502-.095.968.37 1.283.516.349 1.028.163 1.456-.161a3.874 3.874 0 0 0 1.473-2.399c.293-1.492.542-2.992.791-4.491.026-.314.029-.63.007-.944-.47-.14-.92-.286-1.377-.405-2.003-.524-4.047-.582-6.1-.532-2.494.061-2.5.055-3.75 2.239-.336.588-.716 1.177-.627 1.914.872.015.887.024 1.172-.508.32-.6.668-1.159 1.376-1.414-.528 1.132-1.472 2.12-1.046 3.817.852-.984 1.204-2.127 2.454-2.773-.684 1.518-1.91 2.596-1.504 4.372 1.632-.688 1.568-2.597 2.745-3.48Zm21.35-184.776c-.42.303-.776.535-1.105.8-3.865 3.119-7.729 6.24-11.59 9.364a8.829 8.829 0 0 0-1 .837c-.18.198-.376.54-.326.763.198.874.49 1.728.8 2.766 4.988-4.104 9.152-8.734 13.591-13.07l-.37-1.46Zm24.97 30.524v-3.83c-2.84-.366-5.605-.785-8.488-.761-.075 1.464-.212 2.783-.004 4.233l8.491.358Zm-6.945-23.624-.37 4.848 7.048.448v-4.805l-6.678-.491Zm6.89 11.653-7.734-.69-.321 4.019c2.817-.22 5.416.385 8.056.304v-3.633Zm-6.452-17.518 6.12.583v-3.97l-5.82-.206-.3 3.593Zm-12.905-28.01c2.086 2.613 4.305 4.917 7.499 6.326a12.69 12.69 0 0 0-1.015-4.48 1.12 1.12 0 0 0-.94-.764c-1.79-.312-3.566-.69-5.544-1.082ZM122.2 269.751c-.307-1.844-1.649-2.483-3.057-3.384 1.492-.17 2.142.698 2.938 1.279a5.357 5.357 0 0 0-.681-1.3c-.654-.896-2.045-1.52-2.695-1.133-.922.549-1.828 1.158-2.426 2.264.687.636 1.304 1.318 2.03 1.852 1.093.803 2.484 1.178 3.259 2.451.604-.562.53-1.035.143-1.479-.827-.95-1.612-1.952-2.846-2.441-.189-.074-.314-.308-.548-.55 1.201.021 1.201.021 3.883 2.441Zm-76.197 7.744c-.858.295-1.533.421-1.922 1.096-1.069 1.854-.458 5.073 1.223 6.477 1.703 1.423 3.698 2.096 5.876 2.267.532.042 1.075-.069 1.716-.118a11.519 11.519 0 0 1-.657-1.018 8.812 8.812 0 0 1-.358-.97c-.66 1.059-1.367 1.441-2.308 1.18-.895-.249-1.451-1.176-2.448-1.255a.375.375 0 0 1-.243-.284c.044-.986-1.008-1.372-1.208-2.232-.047-.205-.285-.396-.478-.533-.865-.613-1.044-.993-.624-1.968.359-.832.86-1.602 1.431-2.642ZM92.222 88.803c.5.107.951.307 1.387.277 1.034-.072 1.757-.672 2.23-1.584.52-1 .656-3.958.242-5.413-2.21 2.086-3.521 4.327-3.86 6.72Zm21.991 181.332c.945.813 1.667 1.502 2.461 2.095.55.416 1.156.75 1.799.995a1.494 1.494 0 0 0 1.846-.802c.271-.616.104-.96-.855-1.464-1.326-.695-2.519-1.531-3.365-2.797-.063-.094-.205-.135-.388-.25l-1.498 2.223Zm-3.434-161.983c2.458-.382 4.853-.668 7.329-.079-.066-.553-.09-.899-.154-1.237a5.18 5.18 0 0 0-.255-.707l-7.169.399.249 1.624Zm-54.51 177.532c1.764-1.044 2.706-2.655 3.168-4.557.214-.883-.67-2.161-1.5-2.455-.25 1.136-.617 2.267-.721 3.422-.114 1.263-.291 2.472-.947 3.59Zm57.675-14.708c-.382.611-.63 1.057-.026 1.481 1.432 1.005 2.932 1.894 4.647 2.313 1.775.434 3.566-.855 3.852-2.745-.602.197-1.139.292-1.476.998-.507 1.059-1.558 1.461-2.65 1.003-.902-.378-1.71-.997-2.521-1.565-.624-.437-1.187-.96-1.826-1.485Zm-6.637-3.992c-2.059-1.821-4.732-2.753-6.499-2.267l5.98 3.544.519-1.277ZM56.103 138.881l3.38 3.993 1.246-3.099-4.626-.894Zm53.376 6.864.273.074 1.986-3.103-2.64-.355.381 3.384Zm-4.528 118.628-.035.273 2.796 1.534 1.275-2.052-4.036.245Zm-43.173 4.174-.344-.074c-.129 1.088-.657 2.114-.526 3.243l.313.052.557-3.221Z"/><path fill="#fff" d="M107.218 85.233c-.624.32-.435.844-.379 1.287.533 4.242 1.08 8.482 1.642 12.72.102.765.095 1.392-.522 2-.518.51-.88 1.19-1.247 1.833-.114.2-.017.522-.016.788.27-.054.619-.019.793-.178.4-.404.774-.834 1.118-1.287.453.964 2.382 14.925 2.486 17.89-.877-.196-.753-1.876-2.248-1.421.202.414.337.764.532 1.078 2.962 4.782 2.096 3.249 2.849 8.392.562 3.841 1.027 7.697 1.528 11.547.072.552.102 1.109.167 1.846l-6.028-.719 1.114-2.961c.124-.278.224-.566.299-.861a.498.498 0 0 0-.183-.436c-.169-.061-.47-.058-.571.051a4.77 4.77 0 0 0-.75 1.055c-.477.931-.908 1.885-1.355 2.825h-8.3c-.085-2.607-.05-5.248-.067-7.989.747.168 1.095.747 1.563 1.149.33.283.616.641.989.841.2.107.541-.047.818-.083-.051-.238-.022-.556-.167-.699a23.384 23.384 0 0 0-2.408-2.211c-.718-.536-.934-1.163-.945-2.005-.07-5.499-.184-10.998-.257-16.498-.135-10.17-.26-20.34-.376-30.51-.004-.345 0-.69 0-1.02.9-.19 1.397 1.039 2.364.529-.122-1.13-1.206-1.423-1.785-2.127l2.379-4.105c3.254.81 6.427 2.072 9.076 4.393a6.34 6.34 0 0 1 1.535 1.924c1.591 3.303 3.024 6.673 3.912 10.25.189.761.214 1.39-.381 2.028-.372.4-.84.918-.423 1.79l1.454-.9c.859 3.165 1.534 6.333 2.192 9.671l-7.159.49c-.094-.472-.207-.921-.269-1.378-.799-5.878-1.595-11.757-2.387-17.637-.068-.502-.074-1.041-.587-1.352Zm-4.902 31.649c.326-.031.574.007.75-.088.259-.116.474-.312.612-.56.05-.128-.218-.431-.401-.585a1.247 1.247 0 0 0-.601-.235 64.311 64.311 0 0 0-2.585-.336c-.402-.043-.827-.004-.903.511-.071.485.274.72.677.811.845.19 1.701.337 2.451.482Zm1.202-32.8c.321-.166.592-.213.676-.365a81.172 81.172 0 0 0 1.787-3.423.58.58 0 0 0-.192-.545c-.208-.071-.62-.057-.695.07a55.82 55.82 0 0 0-1.914 3.506c-.073.145.198.461.338.756Zm11.059 19.663a2.873 2.873 0 0 0-.213-.67c-.558-.866-1.122-1.731-1.733-2.56a.7.7 0 0 0-.671-.128c-.162.092-.324.5-.248.638a46.974 46.974 0 0 0 1.851 3.082c.089.136.474.168.682.109.149-.043.232-.319.332-.471Zm-5.032 23.842c-.015-.516-.574-.762-1.025-.424a27.146 27.146 0 0 0-2.368 2.049c-.126.119-.115.493-.027.684.054.118.373.14.577.152a.577.577 0 0 0 .355-.143 86.547 86.547 0 0 0 2.21-1.842 1.53 1.53 0 0 0 .278-.476Zm-9.109-33.293c-.658-.005-1.006.596-.616 1.028.627.654 1.32 1.243 2.067 1.757.156.114.626.008.799-.157.295-.28.166-.631-.134-.905-.483-.44-.942-.909-1.439-1.332a3.668 3.668 0 0 0-.677-.391ZM89.49 95.587l-2.57 32.044c-.341-.273-.535-.501-.78-.605-.284-.12-.702-.279-.904-.158-.428.255-.24.685-.001 1.021.269.398.563.778.88 1.139.541.59.663 1.226.593 2.036-.283 3.259-.468 6.526-.704 9.79-.071.991-.188 1.978-.296 3.097-.687-.037-1.252.004-1.785-.107-9.048-1.889-18.093-3.791-27.136-5.705-.288-.061-.566-.176-.838-.262 1.211-8.913 2.413-17.763 3.624-26.612.014-.099.158-.181.307-.342.188.236.362.484.52.741 2.24 4.213 5.298 7.779 8.755 11.02.591.51 1.232.959 1.913 1.342a1.457 1.457 0 0 0 1.722-.128 14.792 14.792 0 0 0 1.792-1.519c3.004-3.143 5.558-6.605 7.409-10.563.739-1.58 1.607-3.1 2.328-4.688 1.063-2.339 2.059-4.71 3.058-7.077.636-1.505 1.226-3.028 1.836-4.542l.277.078ZM60.33 130.778c-.595-.019-.935.505-.641 1.027.377.627.819 1.212 1.318 1.746.252.284.697.561 1 .16a1.144 1.144 0 0 0 .077-1.04 12.855 12.855 0 0 0-1.388-1.7.999.999 0 0 0-.366-.193Zm22.36-11.779c-.12-.159-.16-.25-.227-.289a.622.622 0 0 0-.357-.124c-1.18.226-2.01.983-2.715 1.888a.592.592 0 0 0 .089.564.633.633 0 0 0 .58.114c1.02-.55 2.051-1.103 2.63-2.153Zm-9.958 9.771c.006-.487-.426-.744-.83-.431a14.265 14.265 0 0 0-1.85 1.772c-.125.138-.045.575.087.781.072.111.545.128.677.01.635-.571 1.22-1.199 1.81-1.819.078-.083.082-.237.106-.313Zm2.85 6.103c-.483.027-.761.467-.522.882a9.575 9.575 0 0 0 1.243 1.628c.124.135.588.182.675.081.16-.188.297-.596.197-.768a13.558 13.558 0 0 0-1.214-1.656c-.093-.115-.302-.136-.379-.167Zm-12.29-13.312c-.058-.28-.034-.588-.149-.654a24 24 0 0 0-2.179-1.111c-.14-.063-.517.063-.55.172-.063.209-.044.586.093.687.793.583 1.645 1.059 2.784.906Z"/><path fill="#FFAA8F" d="M80.436 65.541c.784-.74 1.61-.844 2.375-.465 2.232 1.104 4.3 2.414 4.77 5.159.091.529.081 1.075.132 1.837.33-.293.61-.46.777-.705 1.225-1.805 2.542-3.56 3.601-5.46.866-1.55 1.37-3.297 2.122-4.917a30.598 30.598 0 0 1 1.676-2.94c.143-.237.413-.397.824-.775-.206 4.125-2.342 7.4-3.333 11.116.276.126.565.225.86.295.475.062.959.047 1.437.085 1.344.107 1.41.187 1.695 1.5.09.42.304.812.43 1.226.171.57.315 1.147.467 1.723.142.54.192 1.126.436 1.615.414.828.406 1.591-.076 2.353-.56.883-1.076 1.805-1.73 2.614-1.343 1.66-2.79 3.233-4.14 4.887a5.101 5.101 0 0 0-.918 1.719c-.778 2.603-1.95 5.039-3.027 7.52-1.024 2.358-1.906 4.779-2.86 7.168-.422 1.053-.819 2.119-1.313 3.138-1.408 2.904-2.856 5.791-4.298 8.679-1.715 3.436-4.094 6.387-6.747 9.126-1.568 1.618-2.038 1.628-3.682.123-3.729-3.411-6.884-7.28-9.293-11.831.892-.822 1.8-1.624 2.67-2.466 2.73-2.641 5.467-5.275 8.16-7.953a119.066 119.066 0 0 0 9.956-11.084c.698-.894 1.512-1.7 2.185-2.61 1.19-1.612 2.305-3.279 3.47-4.908.27-.377.178-.696.067-1.096-.534-1.93-1.18-3.849-1.49-5.818-.493-3.121-1.919-5.667-4.151-7.825-.336-.324-.667-.652-1.052-1.03Z"/><path fill="#fff" d="m78.55 90.915-5.507 6.01-2.112-9.677h2.344c-.503-1.396-1.733-.808-2.582-1.367-.59-.718-.12-2.094-1.427-3.019.056.813.034 1.355.14 1.871.685 3.33 1.4 6.655 2.102 9.983.035.168.05.34.096.663l-14.082 11.587a9.176 9.176 0 0 1-.344-.885c-1.076-4.052-2-8.134-2.19-12.34-.222-4.95 1.262-9.362 4.278-13.282 1.292-1.68 2.88-3 4.874-4.264-.141.7-.29 1.18-.316 1.669-.013.25.19.513.295.77.232-.15.586-.25.674-.462.325-.713.568-1.462.723-2.23a1.484 1.484 0 0 1 .882-1.176c.963-.51 1.906-1.06 2.873-1.562 2.274-1.182 4.558-2.346 6.802-3.5 1.146 1.205 2.275 2.468 3.485 3.646 1.416 1.377 3.011 2.527 4.87 3.244.6.23.866.627 1.039 1.208.296.994.662 1.967 1.056 3.114-1.24 1.598-2.567 3.322-3.91 5.033-.431.549-.98 1.018-1.343 1.604-.877 1.413-1.984 2.237-3.74 1.843a1.136 1.136 0 0 0-.745.156.654.654 0 0 0-.284.524.632.632 0 0 0 .44.383c.498.09 1.01.106 1.517.15l.092.306Zm2.436-10.756c.256-.18.5-.26.58-.422.46-.918.898-1.85 1.3-2.794.06-.143-.07-.52-.175-.548-.21-.055-.608-.016-.675.115a40.558 40.558 0 0 0-1.4 3.021c-.05.122.214.375.37.628ZM76.19 75.94c-1.182-.684-2.243-.073-3.274-.093-.207-.004-.42.306-.671.503 1.19.736 2.78.59 3.945-.41Zm-7.094 18.881c-.307-.808-.595-1.622-.939-2.411a.592.592 0 0 0-.542-.19c-.152.047-.364.34-.33.467.215.835.475 1.658.781 2.464.056.145.433.244.646.222.127-.014.224-.307.384-.552ZM61.54 98.39c-.554-.86-.81-.949-1.466-.498a14.72 14.72 0 0 0-1.53 1.22c-.15.137-.171.415-.28.701 1.489.273 2.148-.967 3.276-1.423Zm-1.005-11.737c.244 1.437 1.083 2.249 2.114 2.047-.243-1.362-1.172-2.262-2.114-2.047Z"/><path fill="#FFAA8F" d="M67.577 46.423c.739-.52 1.063-.732 1.37-.966 1.136-.866 2.128-2.715 1.215-4.69-.188-.407-.646-.838-.192-1.306.596-.614 1.186-1.279 1.907-1.71.48-.287 1.144.452.994 1.16-.15.714-.477 1.393-.753 2.077a8.542 8.542 0 0 1-.534.923c.685.391 1.31.757 1.945 1.107 1.195.66 1.307 1.42.26 2.301-.348.292-.833.444-1.278.59-.411.134-.864.144-1.277.273-.17.053-.43.335-.399.41a.895.895 0 0 0 .47.506c1.657.47 3.666-.662 4.178-2.322.315-1.023.057-1.784-.84-2.382-.397-.264-.823-.483-1.312-.768.135-.377.267-.731.388-1.09.125-.369.238-.742.396-1.235 2.716.848 5.426 1.542 7.864-.334.826.473 1.556 1.111 2.388 1.303.844.195 1.79-.052 2.865-.115 1.257.995 2.731 2.06 4.084 3.261a9.065 9.065 0 0 1 2.83 4.918c.966 4.36 1 8.654-.947 12.807-.48 1.026-.856 2.1-1.318 3.136a11.088 11.088 0 0 1-.926 1.725c-.784 1.15-1.622 2.264-2.474 3.444a1.44 1.44 0 0 1-.28-.375c-.789-2.48-2.831-3.674-4.936-4.779-.907-.476-1.868-.39-2.765.108-.92.51-1.03 1.236-.322 2.03.725.814 1.467 1.613 2.191 2.428.122.182.225.375.31.576-3.53-.28-6.422-1.742-9.13-3.658.055-.44.11-.822.144-1.204.007-.074-.066-.155-.116-.265-.11.015-.311-.006-.337.05-.686 1.54-2.054 1.593-3.424 1.525-1.534-.077-2.997-1.343-3.43-2.812-.258-.874-.146-1.688.518-2.29a2.379 2.379 0 0 1 2.304-.582c1.188.322 1.613.142 2.135-.956.671-1.411.727-2.96-1.063-3.737a3.733 3.733 0 0 1-.963-.668c-.867-.778-.96-1.533-.39-2.538.318-.521.595-1.066.829-1.63.483-1.276.225-2.41-.829-3.308-.364-.31-.786-.55-1.35-.938Zm5.009 6.776c.128-.423.24-.782.344-1.142.566-1.947 1.71-3.28 3.811-3.607.217-.013.429-.074.62-.18.202-.18.383-.385.54-.607a5.297 5.297 0 0 0-.711-.446 1.237 1.237 0 0 0-.516-.014c-2.306.101-4.764 2.582-4.818 4.88-.01.412-.075.893.73 1.116Zm11.398-2.613-.283.148c0 .204-.088.487.014.6 1.12 1.25 2.272 2.472 3.504 3.799.167.608-.824 1.417.024 2.24.735-.473.683-1.235.879-1.869.201-.65-.028-1.14-.554-1.595-.916-.794-1.761-1.67-2.643-2.504-.302-.285-.627-.547-.941-.82Zm-.087-4.273.337.155c.2-.12.38-.268.537-.44.792-1.172 1.823-1.949 3.268-2.103.304-.018.602-.088.882-.206.2-.098.332-.338.494-.514-.22-.154-.436-.431-.664-.442-1.988-.101-3.523.761-4.625 2.374-.207.303-.159.78-.229 1.176Zm4.275 3.386c.005-.578-.473-1.176-.97-1.212-.72-.053-1.49.665-1.457 1.36a1.066 1.066 0 0 0 1.115 1.031c.712.001 1.307-.533 1.312-1.179Zm-11.594 3.994c-.708-.027-1.226.394-1.267 1.03-.043.666.487 1.199 1.234 1.238a1.071 1.071 0 0 0 1.17-1.111c.012-.678-.432-1.13-1.138-1.157Zm9.5 8.03.25.194c.138-.084.324-.136.404-.258a3.964 3.964 0 0 1 2.537-1.711.696.696 0 0 0 .353-.16c.147-.186.281-.381.402-.586-.214-.103-.478-.343-.632-.286-.74.245-1.451.566-2.124.956a2.464 2.464 0 0 0-1.19 1.85ZM110.883 109.302c1.863-.346 3.532-.569 5.316-.443.266 1.659.528 3.243.773 4.829.467 3.017.89 6.041 1.403 9.05a5.956 5.956 0 0 1-.169 2.966c-1.13 3.346-2.286 6.683-3.433 10.023-.043.125-.095.246-.144.369l-.227-.124-3.519-26.67Z"/><path fill="#fff" d="M59.953 270.898c-2.669-1.747-5.241-3.083-8.379-3.1l2.603-8.561 6.977 1.963c-.773 1.898-.387 3.812-.497 5.701-.073 1.244-.424 2.472-.704 3.997ZM71.77 96.392l.371 1.46c-4.44 4.336-8.603 8.966-13.59 13.07-.31-1.038-.603-1.891-.8-2.766-.051-.223.144-.564.325-.762a8.829 8.829 0 0 1 1-.837c3.863-3.122 7.726-6.244 11.59-9.364.33-.265.684-.497 1.105-.8ZM96.744 126.917l-8.491-.358c-.209-1.45-.071-2.769.004-4.234 2.883-.024 5.648.396 8.487.762v3.83ZM89.796 103.293l6.678.491v4.805l-7.048-.448.37-4.848ZM96.689 114.947v3.632c-2.64.082-5.239-.523-8.056-.303l.32-4.019 7.736.69ZM90.236 97.428l.3-3.592 5.82.204v3.971l-6.12-.583ZM77.328 69.418c1.978.392 3.755.77 5.543 1.082a1.121 1.121 0 0 1 .941.763c.608 1.42.952 2.938 1.014 4.48-3.193-1.409-5.412-3.713-7.498-6.325ZM122.204 269.751c-2.682-2.42-2.682-2.42-3.883-2.441.234.242.36.475.548.55 1.234.488 2.019 1.491 2.846 2.441.387.444.461.917-.143 1.478-.775-1.272-2.166-1.647-3.259-2.45-.726-.534-1.343-1.216-2.03-1.852.598-1.107 1.504-1.715 2.426-2.264.65-.387 2.041.236 2.695 1.132.285.401.515.838.682 1.301-.797-.582-1.447-1.449-2.939-1.28 1.408.902 2.75 1.54 3.057 3.385ZM92.225 88.804c.338-2.394 1.648-4.635 3.859-6.72.414 1.455.278 4.412-.241 5.412-.474.913-1.197 1.513-2.231 1.584-.436.03-.887-.17-1.387-.276ZM114.213 270.135l1.498-2.223c.183.115.325.156.388.25.846 1.266 2.039 2.101 3.365 2.797.96.504 1.126.847.855 1.464a1.493 1.493 0 0 1-1.845.801 7.26 7.26 0 0 1-1.8-.994c-.794-.593-1.516-1.282-2.461-2.095ZM110.782 108.153l-.249-1.624 7.169-.4c.102.229.187.465.255.707.064.338.088.684.154 1.237-2.476-.589-4.871-.302-7.329.08Z"/><path fill="#fff" d="M113.949 270.976c.638.525 1.202 1.048 1.825 1.484.811.568 1.62 1.187 2.521 1.565 1.092.458 2.144.057 2.651-1.003.337-.705.873-.801 1.476-.998-.286 1.89-2.078 3.18-3.853 2.746-1.714-.419-3.215-1.308-4.647-2.314-.604-.424-.356-.87.027-1.48ZM107.31 266.984l-.52 1.277-5.979-3.544c1.767-.486 4.44.446 6.499 2.267ZM109.481 145.745l-.381-3.384 2.64.355-1.986 3.103-.273-.074ZM104.954 264.373l4.036-.245-1.274 2.052-2.796-1.533.034-.274ZM61.781 268.546l-.557 3.221a33.338 33.338 0 0 1-.313-.052c-.13-1.128.397-2.155.526-3.243l.344.074Z"/><path fill="#000" d="M102.317 116.883c-.75-.146-1.605-.292-2.45-.483-.404-.09-.75-.326-.678-.811.076-.515.5-.553.903-.51.864.092 1.725.208 2.585.335.217.024.424.105.601.235.183.154.451.457.401.585a1.317 1.317 0 0 1-.612.561c-.176.094-.424.056-.75.088ZM103.517 84.08c-.14-.295-.411-.61-.339-.755a56.37 56.37 0 0 1 1.914-3.507c.075-.127.487-.14.696-.07a.583.583 0 0 1 .192.546 77.682 77.682 0 0 1-1.787 3.423c-.084.15-.356.198-.676.364ZM114.576 103.745c-.1.153-.183.428-.333.471-.208.06-.593.028-.682-.109a47.47 47.47 0 0 1-1.85-3.081c-.076-.139.086-.547.247-.639a.702.702 0 0 1 .671.128c.612.829 1.175 1.694 1.734 2.561.098.213.17.438.213.669ZM109.541 127.587a1.547 1.547 0 0 1-.277.476c-.723.63-1.467 1.236-2.21 1.842a.58.58 0 0 1-.356.143c-.203-.013-.522-.034-.576-.152-.089-.191-.099-.566.026-.684.75-.728 1.54-1.412 2.368-2.049.451-.338 1.01-.093 1.025.424ZM100.438 94.294c.239.106.466.237.677.391.497.424.955.892 1.438 1.332.301.274.43.624.135.905-.173.165-.643.272-.8.157a13.27 13.27 0 0 1-2.066-1.757c-.39-.432-.042-1.033.616-1.028ZM60.333 130.778c.134.039.258.104.366.193.51.527.974 1.096 1.387 1.701a1.141 1.141 0 0 1-.076 1.039c-.303.402-.749.125-1-.159-.5-.534-.942-1.12-1.319-1.746-.294-.522.047-1.046.642-1.028ZM82.688 118.999c-.578 1.051-1.61 1.604-2.63 2.153a.627.627 0 0 1-.58-.113.59.59 0 0 1-.089-.564c.706-.905 1.535-1.663 2.715-1.889a.624.624 0 0 1 .357.125c.068.038.106.13.227.288ZM72.731 128.77c-.024.076-.028.23-.107.313-.59.62-1.175 1.248-1.81 1.819-.131.119-.605.102-.676-.01-.132-.206-.212-.643-.088-.781a14.265 14.265 0 0 1 1.85-1.772c.405-.313.837-.056.831.431ZM75.582 134.872c.077.032.287.052.38.167.445.521.85 1.074 1.212 1.656.101.172-.036.581-.196.768-.087.101-.551.055-.674-.081a9.573 9.573 0 0 1-1.244-1.627c-.24-.415.039-.855.522-.883ZM63.29 121.561c-1.138.153-1.99-.322-2.783-.906-.137-.101-.157-.478-.094-.686.034-.11.41-.235.55-.173.745.333 1.473.704 2.18 1.111.115.066.09.374.148.654ZM80.991 80.159c-.156-.253-.42-.506-.37-.628.427-1.025.891-2.035 1.4-3.022.067-.13.465-.17.675-.115.105.028.236.405.175.548-.401.945-.839 1.876-1.3 2.794-.08.162-.323.243-.58.423ZM76.193 75.94c-1.164 1-2.754 1.146-3.945.41.251-.197.464-.507.671-.503 1.03.02 2.092-.59 3.274.094ZM69.096 94.82c-.16.245-.257.538-.383.552-.214.022-.59-.077-.647-.222a23.458 23.458 0 0 1-.781-2.464c-.034-.128.179-.42.33-.468a.592.592 0 0 1 .543.19c.343.79.63 1.604.938 2.412ZM61.541 98.39c-1.128.455-1.787 1.695-3.275 1.423.108-.287.13-.565.28-.701.482-.44.993-.848 1.529-1.22.655-.452.912-.362 1.466.497ZM60.541 86.651c.942-.214 1.871.686 2.114 2.048-1.032.201-1.87-.61-2.114-2.047ZM72.582 53.198c-.804-.223-.739-.704-.73-1.116.055-2.298 2.513-4.779 4.819-4.88.17-.031.346-.027.515.014.249.13.486.279.711.446a3.605 3.605 0 0 1-.54.608c-.19.105-.402.166-.62.179-2.1.327-3.244 1.66-3.81 3.607-.105.36-.217.719-.345 1.142ZM83.984 50.585c.314.273.639.535.94.82.883.834 1.728 1.71 2.644 2.503.526.456.755.947.554 1.596-.196.634-.144 1.395-.879 1.87-.848-.824.144-1.633-.024-2.242-1.232-1.326-2.383-2.549-3.504-3.798-.102-.113-.014-.396-.014-.6l.283-.149ZM83.893 46.313c.07-.397.022-.874.229-1.177 1.101-1.612 2.636-2.475 4.624-2.374.228.012.443.288.664.442-.162.177-.294.417-.494.514-.28.119-.578.188-.882.207-1.445.154-2.476.93-3.268 2.103-.157.172-.338.32-.537.44l-.336-.155ZM88.17 49.699c-.005.645-.6 1.18-1.312 1.179a1.065 1.065 0 0 1-1.115-1.031c-.032-.695.737-1.413 1.458-1.36.496.035.975.633.97 1.212ZM76.572 53.692c.705.027 1.149.479 1.137 1.157a1.07 1.07 0 0 1-1.17 1.111c-.746-.04-1.277-.572-1.234-1.239.041-.635.56-1.056 1.267-1.03ZM86.074 61.722a2.465 2.465 0 0 1 1.19-1.85c.673-.391 1.385-.711 2.124-.956.154-.057.418.183.632.286-.12.204-.255.4-.402.585a.695.695 0 0 1-.353.16 3.964 3.964 0 0 0-2.537 1.711c-.08.122-.266.174-.403.259l-.25-.195Z"/><path fill="#F8B133" d="M190.144 263.657v12.341c0 6.814-4.56 11.002-10.532 11.002-3.4 0-6.715-.453-8.698-3.252-1.5-2.118-2.398-4.815-2.398-7.75v-12.341h21.628Z"/><path fill="#59D3BC" d="m182.483 273.716-.828.076c-.002-.059-.05-1.475.108-3.761a54.8 54.8 0 0 1 1.374-8.973c.982-4.053 2.405-7.693 4.23-10.819 2.29-3.924 5.222-7.044 8.714-9.273l.427.657c-7.642 4.879-11.049 13.325-12.561 19.551a54.21 54.21 0 0 0-1.357 8.842c-.156 2.253-.108 3.685-.107 3.7Z"/><path fill="#59D3BC" d="M197.038 235.666c-2.036 1.818-2.748 4.48-2.048 6.775a7.2 7.2 0 0 0 3.108-.744 7.275 7.275 0 0 0 2.491-2.014c1.4-1.778 1.768-3.965 1.19-5.864a7.218 7.218 0 0 0-4.741 1.847Z"/><path fill="#15BA9B" d="M186.015 242.146c-.043 2.593 1.512 4.759 3.789 5.682 1.474-1.515 2.233-3.629 1.853-5.741-.38-2.112-1.81-3.735-3.694-4.499-1.18 1.21-1.92 2.819-1.948 4.558Z"/><path fill="#59D3BC" d="M194.305 249.832c2.637.379 5.238-.812 6.751-2.85-1.176-1.595-3.143-2.59-5.395-2.505a7.22 7.22 0 0 0-3.085.831 7.272 7.272 0 0 0-2.433 2.083c.939 1.277 2.395 2.188 4.162 2.441Z"/><path fill="#15BA9B" d="M179.82 251.423c.483 2.522 2.465 4.328 4.912 4.795 1.157-1.745 1.483-3.936.679-5.911-.804-1.975-2.553-3.279-4.577-3.666-.927 1.395-1.337 3.093-1.014 4.782Z"/><path fill="#59D3BC" d="M189.416 257.75c2.646.332 5.227-.903 6.703-2.964-1.207-1.573-3.195-2.532-5.447-2.408a7.224 7.224 0 0 0-3.071.883 7.282 7.282 0 0 0-2.398 2.124c.965 1.258 2.439 2.143 4.213 2.365ZM178.794 273.96l.875-.061c-.008-.062-.193-1.544-.738-3.9a57.937 57.937 0 0 0-2.924-9.115c-1.698-4.057-3.786-7.608-6.207-10.557-3.038-3.701-6.612-6.457-10.621-8.19l-.335.756c8.773 3.794 13.727 12.018 16.338 18.249a56.972 56.972 0 0 1 2.884 8.981c.538 2.321.726 3.822.728 3.837Z"/><path fill="#59D3BC" d="M157.306 236.777c2.423 1.551 3.608 4.204 3.261 6.713a7.62 7.62 0 0 1-6.292-1.93c-1.754-1.616-2.502-3.832-2.215-5.908a7.608 7.608 0 0 1 5.246 1.125ZM169.866 241.668c.475 2.695-.784 5.214-3.002 6.559-1.788-1.33-2.931-3.404-2.886-5.668.044-2.264 1.264-4.197 3.099-5.31 1.431 1.062 2.47 2.613 2.789 4.419Z"/><path fill="#15BA9B" d="M162.508 251.073c-2.684.839-5.591.037-7.506-1.831.96-1.859 2.843-3.227 5.202-3.519a7.614 7.614 0 0 1 3.353.346 7.653 7.653 0 0 1 2.881 1.759c-.766 1.489-2.131 2.683-3.93 3.245Z"/><path fill="#59D3BC" d="M177.863 250.288c-.083 2.708-1.846 4.924-4.318 5.823-1.496-1.623-2.2-3.85-1.691-6.043.509-2.193 2.114-3.847 4.158-4.591 1.198 1.297 1.907 2.997 1.851 4.811Z"/><path fill="#59D3BC" d="M168.917 258.498c-2.701.792-5.595-.059-7.476-1.958.997-1.841 2.907-3.176 5.274-3.426a7.6 7.6 0 0 1 3.346.402 7.65 7.65 0 0 1 2.851 1.808c-.795 1.473-2.184 2.644-3.995 3.174ZM177.37 269.003l.933.341c.021-.068.503-1.689 1.011-4.379a65.562 65.562 0 0 0 1.119-10.789c.088-4.984-.458-9.626-1.623-13.795-1.463-5.235-3.91-9.737-7.272-13.381l-.692.629c7.36 7.975 8.747 18.776 8.616 26.434a64.737 64.737 0 0 1-1.1 10.631c-.499 2.652-.987 4.293-.992 4.309Z"/><path fill="#59D3BC" d="M172.035 220.584c1.803 2.723 1.823 6.017.322 8.456a8.677 8.677 0 0 1-3.368-1.81 8.743 8.743 0 0 1-2.27-3.09c-1.081-2.483-.848-5.122.394-7.14a8.664 8.664 0 0 1 4.922 3.584ZM182.813 231.441c-.734 3.01-3.184 5.037-6.093 5.407-1.247-2.201-1.486-4.876-.41-7.201 1.076-2.324 3.219-3.762 5.627-4.069.998 1.76 1.368 3.845.876 5.863Z"/><path fill="#59D3BC" d="M170.917 237.789c-3.161-.37-5.807-2.541-6.94-5.358 1.84-1.484 4.413-2.032 6.989-1.246a8.665 8.665 0 0 1 3.315 1.904 8.732 8.732 0 0 1 2.183 3.151c-1.471 1.188-3.429 1.796-5.547 1.549ZM187.177 244.058c-1.319 2.766-4.154 4.247-7.122 4.038-.811-2.37-.527-5.001.998-7.038 1.525-2.036 3.94-3.009 6.396-2.837.65 1.896.611 3.983-.272 5.837Z"/><path fill="#15BA9B" d="M174.178 248.435c-3.159-.426-5.768-2.642-6.852-5.476 1.87-1.448 4.456-1.948 7.021-1.117a8.67 8.67 0 0 1 3.282 1.96 8.738 8.738 0 0 1 2.13 3.187c-1.494 1.16-3.465 1.731-5.581 1.446Z"/><path fill="#E84E1B" d="M190.144 263.658v12.34c0 6.815-4.842 11.002-10.814 11.002-3.4 0-6.433-.452-8.416-3.251h.154c17.481.139 19.076-20.091 19.076-20.091Z" opacity=".2"/><path fill="#fff" d="M172.847 276.669c1.067 0 1.932-2.428 1.932-5.422 0-2.994-.865-5.422-1.932-5.422-1.068 0-1.933 2.428-1.933 5.422 0 2.994.865 5.422 1.933 5.422Z" opacity=".3"/><path fill="#E84E1B" d="M186.628 271.921c-.697 2.172-2.713 7.038-7.169 8.745a.137.137 0 0 1-.17-.062.145.145 0 0 1-.015-.096.14.14 0 0 1 .052-.082c1.289-.972 3.985-3.419 7.053-8.618a.135.135 0 0 1 .076-.061.135.135 0 0 1 .168.075.135.135 0 0 1 .005.099Z" opacity=".2"/></svg>