<svg xmlns="http://www.w3.org/2000/svg" width="400" height="200" fill="none" viewBox="0 0 400 200"><path fill="#D5EEFF" d="M304.221 79.844c-4.542-4.999-10.063-8.843-14.846-13.576-4.783-4.732-8.967-10.761-9.565-17.72-.577-6.71 2.224-13.139 4.155-19.55 1.931-6.412 2.847-14.026-.939-19.398-3.014-4.276-8.416-5.996-13.387-5.524-4.972.47-9.613 2.816-13.992 5.39-12.079 7.1-24.028 16.523-37.795 16.503-8.69-.012-16.927-3.863-24.884-7.617-18.37-8.668-38.221-17.383-57.912-13.255-6.549 1.374-12.954 4.248-17.84 9.132-8.329 8.325-11.182 21.286-11.426 33.51-.244 12.223 1.69 24.433 1.061 36.64-.628 12.207-4.368 25.075-13.439 32.45-3.22 2.618-7.219 4.729-8.717 8.76a14.835 14.835 0 0 0-.587 6.28c1.186 15.509 11.393 28.928 23.783 36.976 12.389 8.047 26.813 11.558 41.02 14.54 0 0 79.928.791 90.226-.446 10.297-1.237 28.251-5.737 34.738-14.423 3.755-5.027 6.083-11.251 10.377-15.752 4.782-5.014 11.441-7.32 16.933-11.408 8.936-6.652 14.413-18.153 14.793-29.831.38-11.678-4.161-23.321-11.757-31.68Z"/><path fill="#B6AEE2" d="M263.681 164.354v-10.217c1.062 1.618 1.477 3.66 1.461 5.612-.018 1.227-.312 2.354-.881 3.38-.156.435-.35.843-.58 1.225Zm-105.226-2.666-3.522-.231-2.809-.183c-2.237-.147-4.173-1.285-5.709-2.988-1.541-1.71-2.124-4.141-2.105-6.449.018-1.228.312-2.354.881-3.38a6.608 6.608 0 0 1 1.85-2.752 8.12 8.12 0 0 1 2.737-1.715l1.836.121 6.841.447v17.13Z"/><path fill="#fff" d="M158.456 175.477h105.226v-78.89H158.456v78.89Z"/><path fill="#0062DD" d="M158.456 96.587h105.226V73.312H158.456v23.275Z"/><path fill="#19181D" d="M158.456 97.417h105.226v-4.3H158.456v4.3Z"/><path fill="#7B72A8" d="M170.877 83.654c-2.13 0-3.856-1.856-3.856-4.145 0-2.29 1.726-4.145 3.856-4.145s3.856 1.855 3.856 4.145c0 2.289-1.726 4.145-3.856 4.145Z"/><path fill="#19181D" d="M174.415 78.785c0 2.243-1.584 4.06-3.538 4.06-1.953 0-3.537-1.817-3.537-4.06 0-2.242 1.584-4.06 3.537-4.06 1.954 0 3.538 1.818 3.538 4.06Z"/><path fill="#B4BAC5" d="M173.611 73.73v4.733c0 1.731-1.225 3.137-2.735 3.137-.51 0-.984-.16-1.392-.437a2.66 2.66 0 0 1-.456-.389 3.14 3.14 0 0 1-.448-.608 5.11 5.11 0 0 0 1.35-.497c2.09-1.11 3.505-3.513 3.681-5.94Z"/><path fill="#fff" d="M173.611 69.535v4.195c-.176 2.426-1.591 4.83-3.682 5.939a5.1 5.1 0 0 1-1.349.497 3.43 3.43 0 0 1-.441-1.703v-8.928c0-1.736 1.225-3.139 2.736-3.139.756 0 1.44.35 1.934.918.495.57.802 1.356.802 2.221Z"/><path fill="#7B72A8" d="M186.954 83.654c-2.13 0-3.856-1.856-3.856-4.145 0-2.29 1.726-4.145 3.856-4.145s3.857 1.855 3.857 4.145c0 2.289-1.727 4.145-3.857 4.145Z"/><path fill="#19181D" d="M190.493 78.785c0 2.243-1.584 4.06-3.538 4.06-1.953 0-3.538-1.817-3.538-4.06 0-2.242 1.585-4.06 3.538-4.06 1.954 0 3.538 1.818 3.538 4.06Z"/><path fill="#B4BAC5" d="M189.689 73.73v4.733c0 1.731-1.225 3.137-2.736 3.137-.509 0-.984-.16-1.392-.437a2.654 2.654 0 0 1-.455-.389 3.06 3.06 0 0 1-.448-.608 5.104 5.104 0 0 0 1.349-.497c2.091-1.11 3.506-3.513 3.682-5.94Z"/><path fill="#fff" d="M189.69 69.535v4.195c-.176 2.426-1.591 4.83-3.682 5.939-.448.24-.902.402-1.35.497a3.44 3.44 0 0 1-.44-1.703v-8.928c0-1.736 1.225-3.139 2.736-3.139.756 0 1.44.35 1.934.918.495.57.802 1.356.802 2.221Z"/><path fill="#7B72A8" d="M203.031 83.654c-2.13 0-3.857-1.856-3.857-4.145 0-2.29 1.727-4.145 3.857-4.145 2.129 0 3.856 1.855 3.856 4.145 0 2.289-1.727 4.145-3.856 4.145Z"/><path fill="#19181D" d="M206.568 78.785c0 2.243-1.584 4.06-3.537 4.06-1.954 0-3.538-1.817-3.538-4.06 0-2.242 1.584-4.06 3.538-4.06 1.953 0 3.537 1.818 3.537 4.06Z"/><path fill="#B4BAC5" d="M205.765 73.73v4.733c0 1.731-1.225 3.137-2.735 3.137-.51 0-.984-.16-1.392-.437a2.623 2.623 0 0 1-.456-.389 3.1 3.1 0 0 1-.448-.608 5.104 5.104 0 0 0 1.349-.497c2.091-1.11 3.506-3.513 3.682-5.94Z"/><path fill="#fff" d="M205.767 69.535v4.195c-.176 2.426-1.591 4.83-3.681 5.939-.448.24-.901.402-1.35.497a3.429 3.429 0 0 1-.44-1.703v-8.928c0-1.736 1.225-3.139 2.736-3.139.756 0 1.439.35 1.933.918.496.57.802 1.356.802 2.221Z"/><path fill="#7B72A8" d="M219.108 83.654c-2.13 0-3.856-1.856-3.856-4.145 0-2.29 1.726-4.145 3.856-4.145s3.856 1.855 3.856 4.145c0 2.289-1.726 4.145-3.856 4.145Z"/><path fill="#19181D" d="M222.645 78.785c0 2.243-1.584 4.06-3.538 4.06-1.954 0-3.538-1.817-3.538-4.06 0-2.242 1.584-4.06 3.538-4.06 1.954 0 3.538 1.818 3.538 4.06Z"/><path fill="#B4BAC5" d="M221.842 73.73v4.733c0 1.731-1.225 3.137-2.736 3.137-.509 0-.984-.16-1.392-.437a2.692 2.692 0 0 1-.455-.389 3.06 3.06 0 0 1-.448-.608 5.11 5.11 0 0 0 1.35-.497c2.091-1.11 3.505-3.513 3.681-5.94Z"/><path fill="#fff" d="M221.844 69.535v4.195c-.176 2.426-1.591 4.83-3.682 5.939-.448.24-.902.402-1.349.497a3.43 3.43 0 0 1-.441-1.703v-8.928c0-1.736 1.226-3.139 2.736-3.139.756 0 1.439.35 1.934.918.495.57.802 1.356.802 2.221Z"/><path fill="#7B72A8" d="M235.185 83.654c-2.129 0-3.856-1.856-3.856-4.145 0-2.29 1.727-4.145 3.856-4.145 2.13 0 3.857 1.855 3.857 4.145 0 2.289-1.727 4.145-3.857 4.145Z"/><path fill="#19181D" d="M238.722 78.785c0 2.243-1.584 4.06-3.538 4.06-1.954 0-3.537-1.817-3.537-4.06 0-2.242 1.583-4.06 3.537-4.06s3.538 1.818 3.538 4.06Z"/><path fill="#B4BAC5" d="M237.92 73.73v4.733c0 1.731-1.225 3.137-2.735 3.137-.51 0-.984-.16-1.392-.437a2.667 2.667 0 0 1-.457-.389 3.136 3.136 0 0 1-.447-.608 5.117 5.117 0 0 0 1.349-.497c2.091-1.11 3.506-3.513 3.682-5.94Z"/><path fill="#fff" d="M237.919 69.535v4.195c-.176 2.426-1.591 4.83-3.682 5.939-.447.24-.901.402-1.349.497a3.429 3.429 0 0 1-.44-1.703v-8.928c0-1.736 1.225-3.139 2.736-3.139.755 0 1.439.35 1.933.918.496.57.802 1.356.802 2.221Z"/><path fill="#7B72A8" d="M250.064 83.45c-1.543-.54-2.659-2.1-2.659-3.94 0-.76.191-1.473.523-2.086a4.596 4.596 0 0 0-.204 1.361c0 2.052 1.325 3.747 3.046 4.022a32.97 32.97 0 0 0-.678.626l-.028.018Zm4.627-3.661a4.703 4.703 0 0 0-.096-2.365c.333.613.523 1.325.523 2.085v.006c-.143.09-.285.181-.427.274Z"/><path fill="#19181D" d="M254.798 78.785c0 2.243-1.584 4.06-3.538 4.06-1.954 0-3.538-1.817-3.538-4.06 0-2.242 1.584-4.06 3.538-4.06 1.954 0 3.538 1.818 3.538 4.06Z"/><path fill="#B4BAC5" d="M253.996 73.73v4.733c0 1.731-1.225 3.137-2.736 3.137-.51 0-.984-.16-1.392-.437a2.699 2.699 0 0 1-.456-.389 3.096 3.096 0 0 1-.447-.608 5.117 5.117 0 0 0 1.349-.497c2.091-1.11 3.505-3.513 3.682-5.94Z"/><path fill="#fff" d="M253.996 69.535v4.195c-.177 2.426-1.591 4.83-3.682 5.939-.448.24-.902.402-1.349.497a3.43 3.43 0 0 1-.441-1.703v-8.928c0-1.736 1.225-3.139 2.736-3.139.756 0 1.439.35 1.933.918.496.57.803 1.356.803 2.221Z"/><path fill="#EFEFEF" d="M197.649 124.606c-.71 0-1.286-.66-1.286-1.474 0-.816.576-1.476 1.286-1.476.71 0 1.285.66 1.285 1.476 0 .814-.575 1.474-1.285 1.474ZM216.293 124.606c-.71 0-1.286-.66-1.286-1.474 0-.816.576-1.476 1.286-1.476.71 0 1.285.66 1.285 1.476 0 .814-.575 1.474-1.285 1.474ZM234.936 124.606c-.711 0-1.286-.66-1.286-1.474 0-.816.575-1.476 1.286-1.476.71 0 1.285.66 1.285 1.476 0 .814-.575 1.474-1.285 1.474ZM253.579 124.606c-.711 0-1.286-.66-1.286-1.474 0-.816.575-1.476 1.286-1.476.709 0 1.285.66 1.285 1.476 0 .814-.576 1.474-1.285 1.474ZM179.006 139.247c-.71 0-1.285-.661-1.285-1.475 0-.816.575-1.476 1.285-1.476s1.286.66 1.286 1.476c0 .814-.576 1.475-1.286 1.475ZM197.649 139.247c-.71 0-1.286-.661-1.286-1.475 0-.816.576-1.476 1.286-1.476.71 0 1.285.66 1.285 1.476 0 .814-.575 1.475-1.285 1.475ZM216.293 139.247c-.71 0-1.286-.661-1.286-1.475 0-.816.576-1.476 1.286-1.476.71 0 1.285.66 1.285 1.476 0 .814-.575 1.475-1.285 1.475ZM234.936 139.247c-.711 0-1.286-.661-1.286-1.475 0-.816.575-1.476 1.286-1.476.71 0 1.285.66 1.285 1.476 0 .814-.575 1.475-1.285 1.475ZM253.579 139.247c-.711 0-1.286-.661-1.286-1.475 0-.816.575-1.476 1.286-1.476.709 0 1.285.66 1.285 1.476 0 .814-.576 1.475-1.285 1.475ZM179.006 153.888c-.71 0-1.285-.661-1.285-1.476 0-.814.575-1.476 1.285-1.476s1.286.662 1.286 1.476c0 .815-.576 1.476-1.286 1.476ZM197.649 153.888c-.71 0-1.286-.661-1.286-1.476 0-.814.576-1.476 1.286-1.476.71 0 1.285.662 1.285 1.476 0 .815-.575 1.476-1.285 1.476ZM216.293 153.888c-.71 0-1.286-.661-1.286-1.476 0-.814.576-1.476 1.286-1.476.71 0 1.285.662 1.285 1.476 0 .815-.575 1.476-1.285 1.476ZM234.936 153.888c-.711 0-1.286-.661-1.286-1.476 0-.814.575-1.476 1.286-1.476.71 0 1.285.662 1.285 1.476 0 .815-.575 1.476-1.285 1.476ZM253.579 153.888c-.711 0-1.286-.661-1.286-1.476 0-.814.575-1.476 1.286-1.476.709 0 1.285.662 1.285 1.476 0 .815-.576 1.476-1.285 1.476ZM179.006 168.528c-.71 0-1.285-.661-1.285-1.476 0-.814.575-1.475 1.285-1.475s1.286.661 1.286 1.475c0 .815-.576 1.476-1.286 1.476ZM197.649 168.528c-.71 0-1.286-.661-1.286-1.476 0-.814.576-1.475 1.286-1.475.71 0 1.285.661 1.285 1.475 0 .815-.575 1.476-1.285 1.476ZM216.293 168.528c-.71 0-1.286-.661-1.286-1.476 0-.814.576-1.475 1.286-1.475.71 0 1.285.661 1.285 1.475 0 .815-.575 1.476-1.285 1.476Z"/><path fill="#EFEFEF" d="M201.748 126.92H183.104l.433.497v-14.64l-.433.498h18.644l-.434-.498v14.64c0 .641.867.642.867 0v-14.64c0-.269-.198-.497-.433-.497H183.104c-.235 0-.434.227-.434.497v14.64c0 .27.199.498.434.498h18.644c.557 0 .559-.995 0-.995Z"/><path fill="#EFEFEF" d="M220.39 126.92h-18.643l.433.497v-14.64l-.433.498h18.643l-.434-.498v14.64c0 .641.867.642.867 0v-14.64c0-.269-.198-.497-.433-.497h-18.643c-.235 0-.434.227-.434.497v14.64c0 .27.199.498.434.498h18.643c.558 0 .559-.995 0-.995Z"/><path fill="#EFEFEF" d="M239.034 126.92h-18.643l.433.497v-14.64l-.433.498h18.643l-.434-.498v14.64c0 .641.868.642.868 0v-14.64c0-.269-.199-.497-.434-.497h-18.643c-.235 0-.434.228-.434.497v14.64c0 .27.199.498.434.498h18.643c.558 0 .56-.995 0-.995Z"/><path fill="#EFEFEF" d="M257.677 126.92h-18.643c.144.166.288.332.434.497v-14.64c-.146.166-.29.333-.434.498h18.643l-.434-.498v14.64c0 .641.867.642.867 0v-14.64c0-.269-.198-.497-.433-.497h-18.643c-.235 0-.434.228-.434.497v14.64c0 .27.198.498.434.498h18.643c.558 0 .559-.995 0-.995ZM183.105 141.56H164.461l.434.498v-14.64l-.434.498H183.105l-.434-.498v14.64c0 .64.867.642.867 0v-14.64c0-.269-.198-.498-.433-.498H164.461c-.234 0-.434.228-.434.498v14.64c0 .269.199.498.434.498H183.105c.557 0 .559-.996 0-.996Z"/><path fill="#EFEFEF" d="M201.748 141.56H183.104l.433.498V127.417l-.433.498h18.644a70.34 70.34 0 0 1-.434-.498v14.641c0 .64.867.642.867 0V127.417c0-.269-.198-.497-.433-.497H183.104c-.235 0-.434.227-.434.497v14.641c0 .269.199.498.434.498h18.644c.557 0 .559-.996 0-.996Z"/><path fill="#EFEFEF" d="M220.39 141.56h-18.643l.433.498V127.417l-.433.498h18.643l-.434-.498v14.641c0 .64.867.642.867 0V127.417c0-.269-.198-.497-.433-.497h-18.643c-.235 0-.434.227-.434.497v14.641c0 .269.199.498.434.498h18.643c.558 0 .559-.996 0-.996Z"/><path fill="#EFEFEF" d="M239.034 141.56h-18.643l.433.498V127.417l-.433.498h18.643l-.434-.498v14.641c0 .64.868.641.868 0V127.417c0-.269-.199-.497-.434-.497h-18.643c-.235 0-.434.228-.434.497v14.641c0 .269.199.498.434.498h18.643c.558 0 .56-.996 0-.996Z"/><path fill="#EFEFEF" d="M257.677 141.56h-18.644l.434.498v-12.819l.001-1.822-.434.498h18.643c-.144-.165-.29-.331-.434-.498v14.641c0 .64.867.641.867 0V127.417c0-.269-.198-.497-.433-.497h-18.643c-.235 0-.434.228-.434.497l-.001 12.82v1.821c0 .269.199.498.434.498H257.677c.558 0 .559-.996 0-.996ZM183.105 156.2H164.461l.434.498v-14.64l-.434.498H183.105l-.434-.498v14.64c0 .64.867.642.867 0v-14.64c0-.269-.198-.498-.433-.498H164.461c-.234 0-.434.229-.434.498v14.64c0 .269.199.497.434.497H183.105c.557 0 .559-.995 0-.995Z"/><path fill="#EFEFEF" d="M201.748 156.2H183.104l.433.498v-14.64l-.433.498h18.644l-.434-.498v14.64c0 .64.867.642.867 0v-14.64c0-.269-.198-.498-.433-.498H183.104c-.235 0-.434.229-.434.498v14.64c0 .269.199.497.434.497h18.644c.557 0 .559-.995 0-.995Z"/><path fill="#EFEFEF" d="M220.39 156.2h-18.643l.433.498v-14.64l-.433.498h18.643l-.434-.498v14.64c0 .64.867.642.867 0v-14.64c0-.269-.198-.498-.433-.498h-18.643c-.235 0-.434.229-.434.498v14.64c0 .269.199.497.434.497h18.643c.558 0 .559-.995 0-.995Z"/><path fill="#EFEFEF" d="M239.034 156.2h-18.643l.433.498v-14.64l-.433.498h18.643l-.434-.498v14.64c0 .64.868.642.868 0v-12.819l-.001-1.821c0-.269-.198-.498-.433-.498h-18.643c-.235 0-.434.229-.434.498v14.64c0 .269.199.497.434.497h18.643c.558 0 .56-.995 0-.995Z"/><path fill="#EFEFEF" d="M257.677 156.2h-18.643c.144.166.288.332.434.498v-12.819l-.001-1.821-.434.498H257.677l-.434-.498v14.64c0 .64.867.642.867 0v-14.64c0-.269-.198-.498-.433-.498h-18.644c-.234 0-.434.229-.434.498l.001 12.819v1.821c0 .269.198.497.434.497h18.643c.558 0 .559-.995 0-.995ZM183.105 170.84H164.461l.434.498v-14.64l-.434.497H183.105l-.434-.497v14.64c0 .641.867.641.867 0v-14.64c0-.27-.198-.498-.433-.498H164.461c-.234 0-.434.228-.434.498v14.64c0 .269.199.498.434.498H183.105c.557 0 .559-.996 0-.996Z"/><path fill="#EFEFEF" d="M201.748 170.84H183.104l.433.498v-14.64l-.433.497h18.644l-.434-.497v14.64c0 .641.867.641.867 0v-14.64c0-.27-.198-.498-.433-.498H183.104c-.235 0-.434.228-.434.498v14.64c0 .269.199.498.434.498h18.644c.557 0 .559-.996 0-.996Z"/><path fill="#EFEFEF" d="M220.39 170.84h-18.643l.433.498v-14.64l-.433.497h18.643l-.434-.497v14.64c0 .641.867.641.867 0v-14.64c0-.27-.198-.498-.433-.498h-18.643c-.235 0-.434.228-.434.498v14.64c0 .269.199.498.434.498h18.643c.558 0 .559-.996 0-.996ZM201.747 104.625h-32.129v-4.398h32.129v4.398ZM244.629 108.143h13.048v-4.397h-13.048v4.397Z"/><path fill="#000" d="m173.972 173.646 3.854 5.147.547.731c.502.672 1.568.637 2.077 0 .572-.715.536-1.668 0-2.384l-3.854-5.147-.547-.731c-.502-.671-1.568-.636-2.077 0-.572.715-.536 1.668 0 2.384ZM154.156 171.263l-3.853 5.147a198.5 198.5 0 0 0-.547.731c-.501.668-.615 1.736 0 2.383.549.58 1.542.715 2.077 0l3.853-5.147.548-.731c.5-.668.614-1.736 0-2.383-.55-.58-1.543-.715-2.078 0Z"/><path fill="#2EB2FF" d="M186.464 155.68c0 13.541-9.564 24.518-21.362 24.518-11.798 0-21.362-10.977-21.362-24.518 0-13.54 9.564-24.517 21.362-24.517 11.798 0 21.362 10.977 21.362 24.517Z"/><path fill="#fff" d="M182.166 155.68c0 10.816-7.64 19.584-17.064 19.584s-17.063-8.768-17.063-19.584c0-10.816 7.639-19.584 17.063-19.584s17.064 8.768 17.064 19.584Z"/><path fill="#000" d="m180.214 124.604 3.821 2.924c.349.267.82.159 1.053-.242l.834-1.435c.232-.4.138-.941-.211-1.208l-3.821-2.924c-.35-.267-.821-.159-1.054.241l-.833 1.435c-.233.401-.139.942.211 1.209Z"/><path fill="#2EB2FF" d="M169.499 126.761c.037-.068.075-.135.114-.203 3.116-5.364 9.034-6.13 13.709-2.553 4.673 3.576 6.334 10.141 3.218 15.506l-.118.198-16.923-12.948Z"/><path fill="#000" d="M169.496 126.759s3.205 3.903 7.879 7.48c4.675 3.576 9.047 5.471 9.047 5.471s-3.205-3.903-7.88-7.48c-4.674-3.576-9.046-5.471-9.046-5.471ZM149.991 124.604l-3.821 2.924c-.349.267-.821.159-1.054-.242l-.833-1.435c-.233-.4-.138-.941.211-1.208l3.821-2.924c.349-.267.821-.159 1.054.241l.833 1.435c.233.401.138.942-.211 1.209Z"/><path fill="#2EB2FF" d="M160.706 126.761a10.361 10.361 0 0 0-.114-.203c-3.117-5.364-9.034-6.13-13.709-2.553-4.674 3.576-6.335 10.141-3.218 15.506.039.067.079.132.119.198l16.922-12.948Z"/><path fill="#000" d="M160.708 126.759s-3.206 3.903-7.88 7.48c-4.674 3.576-9.047 5.471-9.047 5.471s3.206-3.903 7.88-7.48c4.674-3.576 9.047-5.471 9.047-5.471ZM158.871 167.278l2.45-3.506 3.913-5.6.908-1.299c.398-.571.608-1.371.23-2.044l-2.674-4.752c-.417-.741-1.323-1.114-2.01-.605-.644.477-.973 1.513-.527 2.306l2.674 4.753.23-2.043-2.45 3.507-3.913 5.599-.908 1.301c-.252.361-.43.709-.43 1.192 0 .413.16.907.43 1.191.534.562 1.564.735 2.077 0Z"/><path fill="#009846" d="M228.824 140.486c.062.231.186.436.348.599.323.407.769.489 1.168.357.133-.037.261-.103.379-.202.231-.173.414-.424.5-.717 2.417-4.381 5.126-8.53 8.139-12.394.434-.556.478-1.406 0-1.955-.441-.506-1.267-.558-1.703 0a97.533 97.533 0 0 0-7.615 11.354 70.64 70.64 0 0 0-1.895-3.123c-.385-.601-1.044-.901-1.648-.496-.515.346-.82 1.286-.432 1.891a68.356 68.356 0 0 1 2.759 4.686Z"/><path fill="#009846" d="M244.69 124.786c-1.704-2.374-4.337-3.731-6.895-4.423-2.864-.774-6.174-.908-8.699 1.092-.535.424-.778 1.213-.433 1.891.31.608 1.11.922 1.648.496 1.795-1.422 4.098-1.45 6.204-.973 1.916.434 3.92 1.196 5.433 2.667 3.145 3.058 3.022 8.18 1.083 12.038-1.983 3.948-5.488 7.038-9.224 8.487-3.88 1.506-8.646 1.118-11.672-2.344-3.626-4.15-1.786-10.406-.017-15.061.259-.683.175-1.482-.433-1.891-.509-.342-1.385-.192-1.647.497-1.951 5.133-3.871 11.616-.809 16.735 2.945 4.925 8.552 6.428 13.437 5.281 4.676-1.098 9.068-4.627 11.776-9.099 2.739-4.527 3.463-10.914.248-15.393Z"/><path fill="#A69ECE" d="M264.666 148.416c-.327 0-.656-.006-.985-.019v-.454c.697.178 1.398.327 2.095.45-.369.015-.739.023-1.11.023Z"/><path fill="#E8E8E8" d="M263.68 148.397a26.25 26.25 0 0 1-5.571-.815v-1.675c.639.308 1.291.595 1.955.859 1.199.478 2.406.87 3.616 1.177v.454Zm-6.438-1.053a28.025 28.025 0 0 1-2.452-.847 28.857 28.857 0 0 1-6.906-3.942h4.806a31.089 31.089 0 0 0 4.552 2.915v1.874Zm-5.804-5.784h-4.813a5.265 5.265 0 0 0-2.458-.942l.159-.252 3.951.103a5.583 5.583 0 0 1 3.161 1.091Zm-10.285-1.039-1.686-.044v-.238l1.866.049-.18.233Zm-2.554-.067-4.664-.121c-.856-.022-1.423-1.029-1.089-1.934l.681-1.846a92.191 92.191 0 0 1 5.072-7.439v3.808l-1.923 5.213c-.356.965.248 2.038 1.161 2.062l.762.019v.238Zm-3.665-4.158c-.71 0-1.286.66-1.286 1.476 0 .814.576 1.475 1.286 1.475.71 0 1.285-.661 1.285-1.475 0-.816-.575-1.476-1.285-1.476Zm4.533-5.725V127.968l.029-.053h.869c-.075.35-.175.694-.298 1.03l-.6 1.626Zm1.049-3.651h-.831a1.435 1.435 0 0 0-.218-.601v-2.466c.286.135.567.282.841.443a8.03 8.03 0 0 1 .208 2.624Zm-3.438 0h-.608a7.516 7.516 0 0 0-.31-1.85 36.963 36.963 0 0 1-.273-.949c.207-.262.332-.608.332-.989 0-.115-.011-.226-.032-.333l.327.069c.693.157 1.396.357 2.085.617V125.781a1.033 1.033 0 0 0-.946.393c-.193.248-.385.495-.575.746Zm1.521-6.318a15.327 15.327 0 0 0-.805-.239 15.014 15.014 0 0 0-2.818-.496 39.418 39.418 0 0 1-.47-6.592h3.958c.026.752.07 1.501.135 2.246v5.081Zm-.155-8.322h-3.912a39.181 39.181 0 0 1 1.697-10.023 37.91 37.91 0 0 1 1.852-4.84h2.943a41.795 41.795 0 0 0-2.58 14.863Z"/><path fill="#897FBB" d="M242.909 93.117h-2.463c2.597-4.03 5.893-7.302 9.616-9.666l.007.002c-2.81 2.674-5.246 5.922-7.16 9.664Z"/><path fill="#17161A" d="M241.026 97.417h-2.944a35.663 35.663 0 0 1 2.365-4.3h2.464a39.358 39.358 0 0 0-1.885 4.3Z"/><path fill="#706899" d="m250.072 83.453-.007-.003.028-.017-.021.02Z"/><path fill="#D9D9D9" d="M235.888 124.121a40.083 40.083 0 0 1-.363-1.434c.222.03.443.068.663.112.022.107.032.218.032.333 0 .381-.125.727-.332.989ZM234.936 139.247c-.711 0-1.286-.661-1.286-1.475 0-.816.575-1.476 1.286-1.476.71 0 1.285.66 1.285 1.476 0 .814-.575 1.475-1.285 1.475ZM238.466 113.276l-1.75-.001-2.208.001c.004-.332.013-.664.026-.996h3.912c.003.332.01.664.02.996ZM239.468 126.32a1.173 1.173 0 0 0-.868-.539V123.485c.292.111.583.233.868.368v2.467Zm-.049-5.426a17.03 17.03 0 0 0-.819-.292v-5.081c.157 1.82.432 3.616.819 5.373ZM236.461 127.739c.019-.272.022-.545.011-.819h.607c-.207.272-.414.545-.618.819ZM239.467 140.478l-.868-.023v-.238l.868.023v.238Zm-.868-7.555v-3.809c.251-.33.504-.658.758-.985.04-.051.077-.105.11-.161V130.571l-.868 2.352Zm1.767-5.008h-.869a1.65 1.65 0 0 0 .189-.995h.831c-.03.335-.079.667-.151.995ZM258.111 147.582a27.943 27.943 0 0 1-.867-.238v-1.874c.286.15.576.296.867.437v1.675Zm-5.419-5.027h-4.806a27.646 27.646 0 0 1-.911-.728 5.864 5.864 0 0 0-.349-.267H251.44c.1.073.198.149.294.229.314.262.634.518.958.766Z"/><path fill="#009846" d="m233.528 136.554 2.5-6.778a7.356 7.356 0 0 0 .433-2.037 97.488 97.488 0 0 1 1.193-1.565 1.033 1.033 0 0 1 .946-.393 1.173 1.173 0 0 1 .868.539c.119.181.19.388.218.6a1.65 1.65 0 0 1-.189.995l-.03.053c-.033.056-.07.11-.11.161-.254.327-.507.655-.758.985a92.198 92.198 0 0 0-5.071 7.44ZM244.168 140.619a4.86 4.86 0 0 0-.436-.03l-2.578-.067c.061-.078.122-.156.181-.234l2.992.078c-.053.085-.105.169-.159.253Zm-3.858-16.322a10.091 10.091 0 0 0-.842-.444 11.743 11.743 0 0 0-.868-.367 15.636 15.636 0 0 0-2.412-.687c-.219-.043-.44-.081-.662-.112a39.41 39.41 0 0 1-.548-2.819c.958.068 1.911.25 2.818.495a16.642 16.642 0 0 1 1.624.532c.226 1.025.489 2.038.789 3.036.037.121.07.243.101.366Z"/><path fill="#fff" d="m297.167 69.501-.771 5.646c-.12.874-.818 1.452-1.59 1.313-.772-.139-1.283-.933-1.164-1.808l.771-5.646c.119-.874.818-1.452 1.59-1.313.772.139 1.284.933 1.164 1.808Z"/><path fill="#EDCA2F" d="M275.085 93.137a12.44 12.44 0 0 0-1.318-.225 16.365 16.365 0 0 0-.303-.16l.147.025.008.002a12.817 12.817 0 0 1 .476.093l.011.003a11.914 11.914 0 0 1 .535.128c.007.001.014.004.02.006l.109.03a11.953 11.953 0 0 1 .315.098Z"/><path fill="#FFFAEC" d="M285.276 42.476c-16.777-6.717-35.024 3.338-40.93 22.573a41.884 41.884 0 0 0-.074 24.315 7.97 7.97 0 0 1-.141 5.014l-3.391 9.19c-.356.965.248 2.038 1.161 2.062l10.44.272a5.626 5.626 0 0 1 3.456 1.32 30.86 30.86 0 0 0 8.331 4.977c16.836 6.706 35.265-3.625 41-22.99 5.69-19.207-3.193-40.062-19.852-46.733Z"/><path fill="#fff" d="M282.861 67.164h-18.114v20.784h18.114V67.164Z"/><path fill="#FBC02D" d="M282.038 94.56H265.57l-.823-3.778.823-3.779h16.468l.823 3.779-.823 3.779Z"/><path fill="#4CAF50" d="m285.332 87.948 3.293-.945V68.11l-3.293-.945-3.294.945v18.894l3.294.945Z"/><path fill="#1E88E5" d="m282.037 68.109.823-3.78-.823-3.778h-20.585c-1.364 0-2.47 1.269-2.47 2.834v23.618l3.294.945 3.293-.945V68.109h16.468Z"/><path fill="#E53935" d="M282.038 87.003v7.558l6.587-7.558h-6.587Z"/><path fill="#1565C0" d="M286.155 60.55h-4.117v7.559h6.587v-4.724c0-1.565-1.106-2.834-2.47-2.834ZM261.452 94.56h4.117v-7.557h-6.587v4.724c0 1.565 1.106 2.834 2.47 2.834Z"/><path fill="#1E88E5" d="M267.748 73.59h3.499v10.111h-1.636v-8.536h-1.863V73.59ZM275.967 73.446c2.404 0 3.814 1.777 3.814 5.027 0 3.466-1.762 5.373-4.318 5.373-.881 0-1.725-.217-2.316-.65l.604-1.416c.478.361 1.057.492 1.674.492 1.662 0 2.707-1.185 2.707-3.482v-.014c-.529.708-1.372 1.054-2.354 1.054-1.738 0-3.034-1.213-3.034-3.105 0-2.008 1.422-3.279 3.223-3.279Zm.125 4.911c1.058 0 1.788-.737 1.788-1.733 0-.953-.655-1.705-1.825-1.705-1.02 0-1.725.665-1.725 1.72 0 1.054.692 1.718 1.762 1.718Z"/><path fill="#FFEDF0" d="M302.508 135.002c-11.602-15.443-31.786-17.203-45.284-3.933-5.751 5.653-9.33 13.116-10.66 21.015-.286 1.698-1.104 3.218-2.307 4.261l-6.941 6.014c-.73.632-.674 1.908.106 2.452l8.923 6.225c1.061.74 1.911 1.825 2.417 3.125a37.9 37.9 0 0 0 5.047 9.09c11.657 15.466 32.12 17.091 45.526 3.611 13.297-13.37 14.693-36.527 3.173-51.86Z"/><path fill="#fff" d="M260.8 146.633c0-3.86 2.727-6.99 6.092-6.99h20.513c3.364 0 6.091 3.13 6.091 6.99v23.535c0 3.86-2.727 6.989-6.091 6.989h-20.513c-3.365 0-6.092-3.129-6.092-6.989v-23.535Z"/><path fill="#3A4453" d="M271.843 162.054h3.434v9.133h-1.842v-7.437h-1.592v-1.696ZM279.457 161.898c2.206 0 3.559 1.578 3.559 4.527 0 3.157-1.649 4.918-4.059 4.918-.842 0-1.649-.221-2.206-.626l.682-1.552c.432.339.944.456 1.489.456 1.32 0 2.184-.9 2.241-2.661-.467.535-1.149.822-1.979.822-1.535 0-2.74-1.122-2.74-2.844 0-1.866 1.33-3.04 3.013-3.04Zm.136 4.305c.808 0 1.365-.574 1.365-1.37 0-.782-.512-1.357-1.387-1.357-.785 0-1.331.522-1.331 1.357s.535 1.37 1.353 1.37Z"/><path fill="#FE677F" d="M260.8 146.633c0-3.86 2.727-6.99 6.092-6.99h20.513c3.364 0 6.091 3.13 6.091 6.99v8.263H260.8v-8.263Z"/><path fill="#fff" d="M270.831 152.438c-.847 0-1.595-.372-2.055-1.055l.812-1.117c.342.528.721.797 1.171.797.586 0 .893-.404.893-1.2v-3.443h-2.218v-1.345h3.669v4.695c0 1.789-.784 2.668-2.272 2.668ZM277.348 152.438c-1.794 0-2.857-1.179-2.857-3.309v-4.054h1.46v3.992c0 1.375.523 1.944 1.406 1.944.892 0 1.406-.569 1.406-1.944v-3.992h1.442v4.054c0 2.13-1.063 3.309-2.857 3.309ZM281.648 152.314v-7.239h1.46v5.874h3.164v1.365h-4.624Z"/><path fill="#2E2E47" d="M101.386 72.03s-8.647-18.576-4.384-23.09c4.263-4.514 8.309-3.404 10.74 1.949 2.43 5.353 18.889-3.036 18.889-3.036s5.666 2.745 0 14.92-18.191 25.383-25.245 9.256Z"/><path fill="#F4AC8D" d="M103.467 67.448c-.152 1.885-1.448 3.252-2.895 3.055-1.448-.198-2.497-1.887-2.346-3.772.152-1.885 1.448-3.252 2.896-3.055 1.447.198 2.497 1.887 2.345 3.772Z"/><path fill="#EE8965" d="M100.591 68.922c-.7 0-1.268-.74-1.268-1.651 0-.912.568-1.651 1.268-1.651h.042a54.005 54.005 0 0 0-.029 3.302h-.013Z"/><path fill="#F4AC8D" d="M124.942 67.63c-.152 1.884-1.448 3.252-2.895 3.054-1.448-.198-2.498-1.886-2.346-3.771.152-1.885 1.448-3.253 2.895-3.055 1.448.197 2.497 1.886 2.346 3.771Z"/><path fill="#EE8965" d="M122.84 68.855a55.917 55.917 0 0 0-.05-3.187c.551.18.959.829.959 1.603 0 .75-.383 1.382-.909 1.584Z"/><path fill="#fff" d="M86.564 189.11c1.13-3.508 4.347-51.948 4.347-51.948s-2.87-33.684.522-36.698c2.284-2.03 7.57-4.184 10.774-5.373a81.934 81.934 0 0 1 2.614-.924c7.723-1.17 13.319-.979 17.356.059 8.229 2.121 9.97 7.76 10.029 12.538.086 7.119 3.071 57.566 3.39 61.757.379 4.993.39 12.494.783 15.471.344 2.635.607 5.118.607 5.118H86.564Z"/><path fill="#53A38E" d="m112.457 158.003-2.241 14.533h4.482l-2.241-14.533Z"/><path fill="#E6E3F4" d="m99.193 140.602 14.949 4.129 7.559-2.179 1.368 5.786-23.373 7.074-.503-14.81Z"/><path fill="#E6E3F4" d="M92.46 101.884s-3.706.689-4.317 6.791c-.611 6.102-4.877 42.176-1.63 54.385 2.727 10.248 27.663-4.207 27.663-4.207l18.774-6.936-3.462-8.224-30.55 8.755s1.142-28.767-1.302-39.113-5.176-11.451-5.176-11.451Z"/><path fill="#E6E3F4" d="m98.937 152.449.008-.204.273.123-.281.081Zm23.51-6.738-.747-3.159c-.143-5.952-.213-15.446.452-23.366.22-.122.423-.287.604-.485-.48 9.536-.058 21.542.178 26.871l-.487.139Zm.613-31.362a2.894 2.894 0 0 0-.311-.407c.3-1.975.671-3.722 1.132-5.122-.353 1.497-.621 3.39-.821 5.529Z"/><path fill="#fff" d="M136.672 147.817a97.338 97.338 0 0 1-.106 2.927c-.171 3.266-.511 6.094-1.074 8.205-2.22 8.318-14.469 3.943-22.046.312a62.593 62.593 0 0 1-1.432-.703c-2.769-1.394-4.629-2.526-4.629-2.526l-18.328-8.223 3.46-8.226 30.551 8.755s-1.629-29.183.815-39.528c2.444-10.345 4.685-12.204 4.685-12.204s4.684 1.859 5.295 7.96c.474 4.74 3.162 27.576 2.809 43.251Z"/><path fill="#F4AC8D" d="M97.9 144.502s3.816.313 4.388 4.629l-4.652 1.333.264-5.962Z"/><path fill="#53A38E" d="m121.215 93.953-9.056 35.254-8.865-34.817c1.552-.476 1.611-.462 1.611-.462 7.732-.97 12.268-.834 16.31.025Z"/><path fill="#F4AC8D" d="M112.115 103.231c-2.93-.025-5.29-3.139-5.271-6.957l.055-11.02 10.611.09-.055 11.02c-.018 3.817-2.409 6.891-5.34 6.867Z"/><path fill="#EE8965" d="M112.444 90.87c-1.776 0-3.774-.66-5.561-2.815 0 0 .376.293 1.036.624 1.145.713 2.381 1.077 3.678 1.077 1.563 0 3.214-.53 4.897-1.62.352-.227.686-.489 1.005-.783l-.01 1.88s-2.247 1.637-5.045 1.637Z"/><path fill="#F4AC8D" d="M118.996 51.434c-5.534-8.014-15.775-4.307-17.528 6.226-.786 4.726-1.268 10.604-.457 16.47 1.827 13.22 8.364 18.614 15.484 14.007 7.119-4.607 7.44-23.479 4.912-31.655-.579-1.873-1.398-3.58-2.411-5.048ZM104.905 93.928s-.363 12.94 6.325 13.377c6.688.437 7.872-9.14 8.455-13.754 0 0-6.916-2.165-14.78.377Z"/><path fill="#D9D1EC" d="M121.355 105.4s1.705-1.084 3.032-2.042c.785-5.384-.151-9.57-6.471-9.895 0 0 2.227 2.963.808 10.576-1.65 8.849-6.565 25.168-6.565 25.168s8.153-10.105 10.59-19.231c.414-1.549.865-3.128 1.164-4.599l-2.558.023Z"/><path fill="#fff" d="M121.355 104.889s1.364-1.009 2.691-1.967c.786-5.384-.17-9.542-6.49-9.866 0 0 2.239 2.82.82 10.433-1.65 8.85-6.122 25.509-6.122 25.509s7.906-10.43 10.343-19.557c.414-1.549.803-3.082 1.102-4.552h-2.344Z"/><path fill="#D9D1EC" d="M103.058 105.729s-1.808-1.158-3.135-2.116c-.786-5.383.24-9.538 6.56-9.863 0 0-1.865 2.968-.446 10.58 1.65 8.85 6.122 24.998 6.122 24.998s-8.232-9.829-10.67-18.955a81.622 81.622 0 0 1-1.109-4.634l2.678-.01Z"/><path fill="#fff" d="M103.057 105.218s-1.363-1.008-2.69-1.965c-.786-5.385.17-9.543 6.49-9.868 0 0-2.239 2.822-.82 10.434 1.65 8.85 6.122 25.509 6.122 25.509s-7.907-10.431-10.344-19.557c-.413-1.549-.801-3.082-1.101-4.553h2.343Z"/><path fill="#F4AC8D" d="M140.091 146.893c-.178-.93-2.35.079-3.535.317-1.186.239-1.435.095-1.324-.103.112-.198 2.48-1.254 3.571-1.63 1.091-.375 2.832-.915 2.612-1.898-.221-.982-1.941-.27-3.428.185-1.486.455-2.798 1.333-2.923.886-.126-.448 5.151-2.964 5.534-3.183.384-.219 1.66-.827 1.451-1.67-.209-.843-1.374-.433-1.977-.204-.604.228-2.264.957-3.62 1.677-1.357.718-1.79.961-1.919.697-.13-.264 2.805-2.497 3.89-3.269 1.085-.77 1.94-1.831 1.377-2.548-.563-.716-2.531.996-3.703 1.875-1.173.878-3.195 2.399-4.096 2.756-.901.358-1.662.919-1.735.277a6.084 6.084 0 0 0-.061-.327c-.092-.428.23-1.56.579-2.3.348-.741.301-1.998.091-2.732-.211-.733-.672-1.021-1.112.784-.439 1.804-1.621 4.035-2.493 4.995-.871.959-1.49 1.472-1.444 3.081.016.528-8.465 3.944-9.72 4.38-1.256.435.918 6.922 1.913 6.447.993-.473 9.287-5.66 9.868-5.176.582.484 1.138.582 2.975.286.919-.148 2.66-.589 4.108-.98 0 0 2.733-.723 3.757-1.139 1.024-.416 1.542-.554 1.364-1.484Z"/><path fill="#fff" d="M92.137 98.732s-4.684 1.857-5.296 7.959c-.61 6.102-4.888 42.181-1.629 54.385 3.259 12.203 28.106-2.918 28.106-2.918l13.313-5.973-2.594-9.287-26.401 7.566s1.63-29.182-.815-39.528c-2.444-10.347-4.684-12.204-4.684-12.204Z"/><path fill="#448E7B" d="m111.891 128.154-3.84-15.08-.291-1.235a215.366 215.366 0 0 1-1.514-6.936 60.269 60.269 0 0 1-.44-2.503 26.943 26.943 0 0 1-.177-1.65v-.001l.014.058 6.248 27.347ZM112.781 126.781l5.948-26.036c-.022.621-.15 1.571-.356 2.752-.553 2.961-1.42 6.796-2.331 10.587l-3.261 12.697Z"/><path fill="#B8B7B6" d="M123.603 116.324c0 1.719-1.071 3.111-2.39 3.111-.421 0-.818-.142-1.161-.393-.732-.531-1.227-1.549-1.227-2.718 0-1.718 1.07-3.11 2.388-3.11.133 0 .263.014.39.041 1.134.243 2 1.524 2 3.069Z"/><path fill="#858584" d="M122.408 116.324c0 .859-.535 1.556-1.194 1.556-.66 0-1.195-.697-1.195-1.556 0-.859.535-1.556 1.195-1.556.659 0 1.194.697 1.194 1.556Z"/><path fill="#969696" d="M121.214 119.435c-.421 0-.818-.142-1.161-.393-.012-.233.122-.446.259-.605.193-.225.407-.414.625-.599a.953.953 0 0 0 .277.042c.66 0 1.195-.697 1.195-1.556 0-.129-.012-.255-.035-.375.026-.106.043-.216.051-.328.055-.777-.671-1.63-.821-2.366 1.134.243 2 1.524 2 3.069 0 .953-.33 1.806-.848 2.377a2.405 2.405 0 0 1-.604.485 1.92 1.92 0 0 1-.938.249Z"/><path fill="#5C5C5D" d="M121.215 117.88a.922.922 0 0 1-.277-.043c.219-.185.442-.364.65-.569.346-.341.663-.788.786-1.317l.001-.002c.023.12.035.246.035.375 0 .859-.535 1.556-1.195 1.556Z"/><path fill="#DBDAD8" d="M119.594 116.525a.283.283 0 0 1-.085-.013c-.182-.059-.298-.308-.314-.552-.016-.244.049-.483.119-.71.126-.404.279-.81.525-1.113a.705.705 0 0 1 .571-.28c.116 0 .234.024.352.064.12.04.245.11.308.249.091.202.014.459-.112.634-.504.143-.889.701-.934 1.386-.108.184-.264.335-.43.335Z"/><path fill="#B8B7B6" d="M107.016 118.578c-.022 2.599-.38 5.126-.593 6.642-.167 1.178-.889 2.028-1.701 2.028l-.091-.001-.441-.036.031-.681.442.033c.585.049 1.119-.584 1.245-1.468.196-1.38.555-3.932.574-6.546.019-2.493-.274-5.04-1.318-6.672-.784-1.225-1.942-1.847-3.443-1.847h-.007c-1.518.003-2.744.669-3.648 1.984-1.058 1.538-1.571 3.756-1.794 5.965-.263 2.583-.13 5.149-.008 6.582.067.796.483 1.381 1.014 1.423l.998.078-.031.681-.999-.077c-.777-.062-1.41-.915-1.502-2.029-.122-1.458-.257-4.047.006-6.687.233-2.343.78-4.726 1.925-6.392 1.008-1.464 2.366-2.206 4.039-2.209h.007c1.664 0 2.957.704 3.846 2.093 1.154 1.803 1.472 4.506 1.449 7.136Z"/><path fill="#48484A" d="M99.565 126.282a1.226 1.226 0 0 1-2.454 0 1.226 1.226 0 0 1 2.454 0Z"/><path fill="#343434" d="M99.564 126.282c0 .227-.063.438-.17.619a1.214 1.214 0 0 1 0-1.241c.107.182.17.395.17.622Z"/><path fill="#48484A" d="M102.277 126.773a1.226 1.226 0 0 1 2.454 0 1.226 1.226 0 0 1-2.284.622 1.228 1.228 0 0 1-.17-.622ZM107.018 118.579l-.534-.029c.019-2.493-.274-5.041-1.318-6.673-.784-1.224-1.942-1.846-3.443-1.846h-.007c-1.518.002-2.744.668-3.648 1.983-1.058 1.538-1.571 3.757-1.794 5.965l-.522-.029c.233-2.343.78-4.725 1.925-6.392 1.008-1.464 2.366-2.206 4.039-2.208h.007c1.664 0 2.957.703 3.846 2.092 1.154 1.803 1.473 4.507 1.449 7.137Z"/><path fill="#48484A" d="m102.606 109.679-.654-.057c.368-7.105 1.265-12.165 2.669-15.039 1.1-2.252 2.125-2.318 2.238-2.318l.008.854c-.034.002-3.426.41-4.261 16.56ZM121.539 113.251l-.652-.074c.823-12.361-.615-17.207-1.967-19.096-.754-1.053-1.406-1.052-1.436-1.052l-.024-.853c.037-.003.937-.038 1.897 1.265 1.465 1.99 3.033 7.044 2.182 19.81Z"/><path fill="#B12227" d="M116.011 78.865s-4.429 1.309-8.584.242c0 0 .815 4.935 4.374 4.824 3.356-.104 4.187-4.107 4.21-5.066Z"/><path fill="#fff" d="M111.664 81.356c-2.736.077-3.563-1.378-3.922-2.174 3.224.735 5.804.169 8.052-.258-.229.9-1.551 2.359-4.13 2.432Z"/><path fill="#E96F4B" d="M112.108 77.01a.204.204 0 0 1-.032-.003c-.623-.132-1.277-.377-1.784-.955a2.817 2.817 0 0 1-.658-1.8c0-.214.026-.43.085-.638.127-.448.365-.776.608-1.064.245-.288.501-.542.695-.824.605-.871.747-2.18.85-3.457.011-.132.096-.229.195-.229l.021.001c.108.016.186.142.175.282-.109 1.278-.237 2.704-.949 3.745-.229.33-.496.592-.724.86-.228.27-.411.538-.502.862a1.697 1.697 0 0 0-.062.462 2.244 2.244 0 0 0 .525 1.416c.417.479.996.711 1.588.834.107.022.18.153.162.293-.015.125-.099.215-.193.215Z"/><path fill="#2E2E47" d="M108.388 68.946c.001.926-.43 1.676-.961 1.676-.531 0-.961-.75-.962-1.676 0-.925.43-1.676.961-1.676.531 0 .962.75.962 1.676ZM103.294 65.621s.845-2.524 2.6-3.239c1.625-.663 2.817-.173 3.418.213.263.169.387.566.296.928-.107.429-.471.647-.791.474-1.014-.55-3.228-1.208-5.523 1.624ZM115.087 68.946c-.001.926.429 1.676.96 1.676.531 0 .962-.75.962-1.676.001-.925-.429-1.676-.961-1.676-.531 0-.961.75-.961 1.676ZM119.824 65.837s-.691-2.603-2.399-3.494c-1.58-.825-2.797-.459-3.42-.135-.272.141-.419.525-.35.895.081.44.431.694.76.553 1.044-.445 3.291-.875 5.409 2.18Z"/><path fill="#F19A78" d="M118.938 60.113c-12.665 0-16.471-6-16.471-6 .538-.183 1.356-.26 2.357-.26 5.478 0 16.404 2.304 16.404 2.304.085.148.165.329.24.53.288.97.538 2.084.743 3.3a43.979 43.979 0 0 1-3.273.126Z"/><path fill="#2E2E47" d="M125.792 56.84c.733-.361-1.544 9.908-.9 9.319 2.572-2.355 5.173-13.937 4.776-17.657-.14-1.307-.522-2.609-1.242-3.517a3.723 3.723 0 0 0-2.652-1.404c-1.208-.096-6.128.953-6.302 3.388.306-4.285-.956-6.282-4.158-6.76-2.962-.443-6.067-.537-8.805 1.034-2.078 1.193-3.802 3.27-5.307 5.521-.504.754-1.003 1.57-1.182 2.55-.785 4.297 5.848 6.802 8.018 7.764 3.663 1.624 7.588 2.214 11.43 1.696a20.526 20.526 0 0 0 6.324-1.934Z"/></svg>