<svg xmlns="http://www.w3.org/2000/svg" width="400" height="200" fill="none" viewBox="0 0 400 200"><g opacity=".21" style="mix-blend-mode:multiply"><path fill="#C4ADAD" d="M199.736 196c84.354 0 152.736-1.988 152.736-4.44 0-2.452-68.382-4.44-152.736-4.44-84.354 0-152.736 1.988-152.736 4.44 0 2.452 68.382 4.44 152.736 4.44Z"/></g><path fill="#fff" d="M106.075 154.952h-1.842c-.702 0-1.272.572-1.272 1.277v19.04c0 .706.57 1.278 1.272 1.278h1.842c.703 0 1.273-.572 1.273-1.278v-19.04c0-.705-.57-1.277-1.273-1.277Z"/><path fill="#fff" d="M94.402 164.824v1.85c0 .705.57 1.277 1.273 1.277h18.963c.703 0 1.272-.572 1.272-1.277v-1.85c0-.705-.569-1.277-1.272-1.277H95.675c-.703 0-1.273.572-1.273 1.277Z"/><path fill="#F48462" d="M152.717 63.334s-5.21 11.793-8.17 11.04c-2.96-.753-3.96-4.542-3.96-4.542s-3.811-6.561-.099-8.387c4.123-2.027 12.229 1.89 12.229 1.89ZM121.574 171.053l5.862 10.085 13.518-4.305-6.925-11.481-12.455 5.701ZM95.955 181.821l.37-11.07 13.12-.659v12.388l-13.49-.659ZM68.48 63.845s5.902 14.819 14.411 19.56c6.962 3.879 14.75 2.286 14.75 2.286l-1.332-14.01-7.676-1.918c-1.43-.617-5.571-3.454-6.737-4.489l-5.73-6.45-7.685 5.021Z"/><path fill="#FFB164" d="m116.03 101.779-.607 31.268s-.328 15.51-.894 28.294c-.189 4.452-.976 11.936-1.224 14.96H93.732c-.08-13.404-.962-52.805-.385-59.222.696-7.895 2.087-15.44 2.087-15.44l18.071.12 2.525.02Z"/><path fill="#FFB164" d="M122.161 176.75c-2.316-3.902-7.714-15.845-9.853-20.804-.957-2.217 1.195-54.187 1.195-54.187v-.12l6.242-1.636s17.76 54.46 22.024 70.089l-19.608 6.658Z"/><path fill="#fff" d="M97.125 110.386c-.346 0-.691-.041-1.028-.122a.183.183 0 0 1-.137-.146.18.18 0 0 1 .218-.203c3.885.917 6.358-4.123 6.382-4.174a.179.179 0 1 1 .322.156c-.024.049-2.199 4.489-5.757 4.489ZM114.45 161.084a.179.179 0 0 1-.178-.176l-.942-47.097a.186.186 0 0 1 .08-.153l5.43-3.599a.195.195 0 0 1 .065-.027.178.178 0 0 1 .133.028.176.176 0 0 1 .075.184.19.19 0 0 1-.027.064.19.19 0 0 1-.049.049l-5.348 3.545.939 46.999a.18.18 0 0 1-.049.127.176.176 0 0 1-.125.055l-.004.001Z"/><path fill="#5C69A5" d="M109.641 70.268s5.24.22 7.317 4.117c2.077 3.896 3.647 27.118 3.647 27.118s-5.809 2.384-14.286 2.281c-8.478-.103-11.344-2.142-11.344-2.142l-1.631-14.32s.258-15.537 2.371-16.596c2.114-1.058 10.418-1.295 13.926-.458Z"/><path fill="#F48462" d="M76.445 58.224s-.83-3.696-2.796-5.38c-1.967-1.683-4.294-2.768-3.887-1.27a24.066 24.066 0 0 0 1.77 3.947l-3.569-.954a30.779 30.779 0 0 0-4.017-1.537c-1.69-.452-2.222.795-2.222.795s-1.69-.451-2.425.047c-.736.498-.214 1.564-.214 1.564s-2.425.046-1.512 1.912c.913 1.865 5.712 5 8.039 6.086 2.326 1.086 7.569 1.792 7.569 1.792s4.708 1.034 3.264-7.002Z"/><path fill="#000" d="M63.397 59.011a.178.178 0 0 1-.173-.135.179.179 0 0 1 .089-.201l6.189-3.333a.179.179 0 1 1 .168.316l-6.189 3.332a.178.178 0 0 1-.084.021ZM73.8 60.548a.173.173 0 0 1-.067-.013c-3.2-1.288-2.239-4.497-2.229-4.53a.18.18 0 0 1 .224-.117.178.178 0 0 1 .117.225 3.299 3.299 0 0 0 .187 2.455 3.277 3.277 0 0 0 1.834 1.635.179.179 0 0 1 .109.2.18.18 0 0 1-.175.145Z"/><path fill="#5C69A5" d="M68.48 65.62S72.669 77.6 80.35 82.59c6.058 3.937 14.468 4.184 14.468 4.184l6.706-16.963s-12.008-.36-15.321-2.828c-3.314-2.468-8.615-7.856-8.615-7.856l-9.107 6.494Z"/><path fill="#F7B369" d="M85.761 72.598a.535.535 0 0 1-.5-.269c-.528-.923 1.342-4.24 1.722-4.894a.179.179 0 0 1 .198-.084.177.177 0 0 1 .134.168c.005.153.102 3.748-.895 4.78a.9.9 0 0 1-.659.3Zm1.199-4.39c-.79 1.458-1.677 3.44-1.389 3.943.025.044.067.089.19.089a.545.545 0 0 0 .404-.19c.651-.675.776-2.755.795-3.843Z"/><path fill="#5C69A5" d="M111.936 70.682s7.785 2.934 14.623 2.603c6.838-.33 12.626-6.301 12.626-6.301l7.156 8.01s-4.604 12.787-15.494 15.387c-10.889 2.6-19.548-4.367-19.548-4.367l.637-15.332Z"/><path fill="#F7B369" d="M129.709 76.882a1.063 1.063 0 0 1-.669-.232c-.99-.77-.967-3.261-.966-3.367a.186.186 0 0 1 .029-.094.174.174 0 0 1 .074-.065.176.176 0 0 1 .187.022c.262.21 2.55 2.075 2.337 3.112a.77.77 0 0 1-.633.573c-.117.034-.238.05-.359.051Zm-1.269-3.209c.032.71.177 2.195.818 2.694a.774.774 0 0 0 .717.119c.334-.091.366-.249.377-.3.114-.556-1.013-1.741-1.912-2.513ZM119.629 90.25a.18.18 0 0 1-.176-.155l-1.121-8.09a.182.182 0 0 1 .034-.132.179.179 0 0 1 .319.083l1.121 8.09a.182.182 0 0 1-.034.132.18.18 0 0 1-.143.072Z"/><path fill="#68B6D8" d="M112.309 191.246c0 1.103-.425 2.364-1.294 2.681-.869.318-7.903.979-14.057.512-5.892-.45-7.115-.829-7.55-1.297-.212-.238.203-1.34.678-2.407.03-.053.05-.115.08-.167.243-.538.496-1.059.678-1.429.187-.36.41-.7.667-1.014a17.485 17.485 0 0 0 2.223-3.175c.425-1.093 1.072-3.456 1.506-4.567a2.247 2.247 0 0 1 1.496-1.323s4.094-3.138 12.986-.088c1.052.361 1.293 5.828 1.293 6.613v.785c0 .732.576 2.178.95 3.377.101.3.182.582.243.838.058.216.092.438.101.661ZM160.635 192.619a.592.592 0 0 0 .459-.7c-.27-1.59-1.222-6.033-3.659-7.905-2.996-2.3-9.244-3.185-11.525-4.716-2.281-1.531-4.846-5.249-6.196-4.532-1.35.717-3.881 3.984-7.573 3.545-3.691-.438-6.387-.419-7.374.516-.986.935-.477 13-.046 13.771.431.771 5.622.02 6.075.142.453.122 1.709-2.982 2.563-2.523.854.458 1.903 1.902 3.162 2.56 1.174.614 20.398.386 24.114-.158Z"/><path fill="#5C69A5" d="M144.628 181.129a.177.177 0 0 1-.166-.114.177.177 0 0 1 0-.132c.309-.744.662-1.468 1.059-2.169.972-2.125 2.019-4.823 1.635-5.68a.349.349 0 0 0-.243-.214.68.68 0 0 0-.602.13c-1.238.92-1.503 5.312-1.505 5.356a.177.177 0 0 1-.06.123.178.178 0 0 1-.252-.014.18.18 0 0 1-.044-.13c.011-.187.278-4.605 1.649-5.624a1.04 1.04 0 0 1 .898-.19.716.716 0 0 1 .484.416c.337.751-.172 2.47-.838 4.141.808-1.005 1.766-1.739 2.741-1.459a.9.9 0 0 1 .711.668c.322 1.458-3.118 4.505-3.511 4.847a.18.18 0 0 1-.198.028.214.214 0 0 1-.056-.043.182.182 0 0 1 .02-.255c1.024-.892 3.631-3.44 3.397-4.499-.042-.193-.193-.325-.461-.402-1.247-.358-2.548 1.386-3.427 2.932a48.994 48.994 0 0 1-1.073 2.188.178.178 0 0 1-.158.096ZM100.831 186.299a.175.175 0 0 1-.065-.013c-.313-.123-3.06-1.233-3.38-2.33a.726.726 0 0 1 .11-.645.884.884 0 0 1 .617-.356c.728-.1 1.8.483 2.571.988-.852-1.195-2.107-3.171-1.772-4.032a.7.7 0 0 1 .589-.436c1.935-.295 3.252 5.372 3.395 6.02a.183.183 0 0 1-.072.185.18.18 0 0 1-.277-.108c-.368-1.668-1.625-5.947-2.992-5.743a.339.339 0 0 0-.31.213c-.335.858 1.632 3.622 2.419 4.614a.183.183 0 0 1-.014.239.178.178 0 0 1-.238.012c-.602-.485-2.36-1.713-3.252-1.597a.519.519 0 0 0-.376.211.363.363 0 0 0-.056.334c.23.787 2.365 1.781 3.168 2.098a.18.18 0 0 1-.065.346Z"/><path fill="#000" d="M109.319 58.748s3.217-4.62 1.618-6.251c-1.599-1.632-3.762.264-3.762.264a2.038 2.038 0 0 0-.89-1.41 2.02 2.02 0 0 0-1.643-.262c-2.263.372-3.466 2.906-3.466 2.906s-2.145-1.873-3.377.237c-1.233 2.11-.053 5.33-.053 5.33s-1.6-.125-1.048 1.712 3.177 3.586 3.177 3.586l9.444-6.112Z"/><path fill="#F48462" d="m102.09 66.174.277 4.936s1.214.98 4.103 1.052c2.152.053 2.467-1.01 2.467-1.01l-.276-1.56-.431-2.421-5.258-.853-.882-.144Z"/><path fill="#000" d="M102.973 66.318c.032.164.089.322.169.468 1.239 2.404 4.276 2.765 5.52 2.806l-.432-2.421-5.257-.853Z"/><path fill="#F48462" d="M108.693 55.858s2.928 6.042 2.104 9.539c-.824 3.496-3.982 3.08-5.886 2.49a6.21 6.21 0 0 1-2.822-1.712 2.637 2.637 0 0 1-2.968-.92c-1.239-1.588-.594-3.497.39-3.97.983-.47 2.203.206 2.203.206l-1.006-1.75s3.555-9.248 7.985-3.883Z"/><path fill="#000" d="M101.673 64.15a.173.173 0 0 1-.095-.029l-2.305-1.474a.179.179 0 0 1 .191-.302l2.305 1.474c.033.02.058.052.071.088a.176.176 0 0 1 .004.113.177.177 0 0 1-.171.129Z"/><path fill="#000" d="M99.651 64.235a.178.178 0 0 1-.176-.151.18.18 0 0 1 .122-.198l1.437-.46a.178.178 0 0 1 .232.186.176.176 0 0 1-.062.121.181.181 0 0 1-.061.034l-1.438.46a.181.181 0 0 1-.054.008ZM104.858 58.93a.177.177 0 0 1-.11-.039.163.163 0 0 1-.045-.053.174.174 0 0 1-.017-.136c.079-.356.282-.672.574-.89a1.5 1.5 0 0 1 1.013-.293.177.177 0 0 1 .091.316.185.185 0 0 1-.13.04 1.149 1.149 0 0 0-1.204.924.178.178 0 0 1-.172.13ZM109.466 58.175a.181.181 0 0 1-.106-.035 1.63 1.63 0 0 0-.589-.335.178.178 0 0 1-.253-.16.177.177 0 0 1 .036-.11c.212-.278.818.17 1.018.316a.181.181 0 0 1 .064.2.18.18 0 0 1-.17.123ZM108.903 62.919a.175.175 0 0 1-.147-.08.182.182 0 0 1-.002-.199c.445-.679-.521-1.818-.931-2.2a.177.177 0 0 1-.057-.124.18.18 0 0 1 .171-.186.178.178 0 0 1 .128.047c.069.065 1.689 1.59.987 2.66a.175.175 0 0 1-.149.081ZM109.579 60.548a.178.178 0 0 1-.169-.122l-.371-1.115a.178.178 0 1 1 .338-.114l.371 1.115a.18.18 0 0 1-.009.137.184.184 0 0 1-.103.09.189.189 0 0 1-.057.009ZM106.468 60.785a.174.174 0 0 1-.169-.122l-.372-1.115a.18.18 0 0 1 .113-.227.177.177 0 0 1 .225.113l.372 1.115a.18.18 0 0 1-.169.236Z"/><path fill="#000" d="M109.29 57.224a2.079 2.079 0 0 0-1.816-.901 2.65 2.65 0 0 0-1.894.968s.654 2.043-.952 3.24a4.068 4.068 0 0 1-2.913.96l-1.234-.364-.987-1.724 3.286-3.985 4.395-2.657 2.426 1.973-.311 2.49ZM107.612 64.962a1.8 1.8 0 0 1-1.644-.929.178.178 0 0 1 .073-.24.178.178 0 0 1 .241.07 1.485 1.485 0 0 0 1.486.733.178.178 0 0 1 .17.283.179.179 0 0 1-.116.07c-.07.01-.14.013-.21.013Z"/><path fill="#F7B369" d="M102.221 74.748a1.06 1.06 0 0 1-.968-.547 1.148 1.148 0 0 1-.145-.449c-.146-1.138 1.069-2.687 1.121-2.753a.178.178 0 0 1 .223-.047c.039.022 4.025 2.092 6.37.065a.176.176 0 0 1 .194-.026c.371.182 2.22 1.127 2.166 1.893-.018.257-.219.45-.596.572-1.534.498-3.59-.739-4.101-1.07-.58.497-2.856 2.362-4.264 2.362Zm.2-3.41c-.269.369-1.066 1.542-.959 2.369a.774.774 0 0 0 .317.559c.814.612 3.145-1.051 4.284-1.992a9.325 9.325 0 0 1-3.642-.936Zm4.487.889c.703.418 2.364 1.277 3.569.888.126-.041.34-.129.349-.256.026-.368-1.06-1.086-1.863-1.494a4.074 4.074 0 0 1-2.055.862Z"/><path fill="#000" d="M142.759 70.15a.18.18 0 0 1-.174-.136.18.18 0 0 1 .011-.115.178.178 0 0 1 .079-.086c1.424-.752 1.933-3.64 1.938-3.669a.178.178 0 0 1 .351.06c-.021.126-.544 3.092-2.123 3.926a.176.176 0 0 1-.082.02Z"/><path fill="#D3BCBC" d="M154.968 16.666h93.327a5.006 5.006 0 0 1 3.554 1.478 5.064 5.064 0 0 1 1.472 3.567v126.495c0 1.338-.53 2.622-1.472 3.568a5.018 5.018 0 0 1-3.554 1.478h-93.327a5.018 5.018 0 0 1-3.553-1.478 5.058 5.058 0 0 1-1.472-3.568V21.711a5.055 5.055 0 0 1 3.102-4.661 5.013 5.013 0 0 1 1.923-.384Z"/><path fill="#EAD8D8" d="M149.992 16.666h93.327c1.333 0 2.611.531 3.553 1.478a5.053 5.053 0 0 1 1.472 3.567v126.495a5.054 5.054 0 0 1-1.472 3.568 5.014 5.014 0 0 1-3.553 1.478h-93.327a5.014 5.014 0 0 1-3.553-1.478 5.054 5.054 0 0 1-1.472-3.568V21.711c0-1.338.529-2.621 1.472-3.567a5.013 5.013 0 0 1 3.553-1.478Z"/><path fill="#F48462" d="M139.929 64.11s-.311-2.041.558-2.754c.868-.713 6.976-3.667 8.14-2.029.583.82-3.839 3.83-3.839 3.83a12.038 12.038 0 0 1-.657 3.868c-.726 2.193-2.361 1.014-2.361 1.014l-1.841-3.928Z"/><path fill="#85A6D6" d="M145.142 39.184c9.677 0 17.521-7.876 17.521-17.592 0-9.716-7.844-17.592-17.521-17.592-9.676 0-17.521 7.876-17.521 17.592 0 9.716 7.845 17.593 17.521 17.593Z"/><path fill="#92B4EA" d="M143.117 39.184c9.676 0 17.521-7.876 17.521-17.592 0-9.716-7.845-17.592-17.521-17.592-9.677 0-17.521 7.876-17.521 17.592 0 9.716 7.844 17.593 17.521 17.593Z"/><path fill="#fff" d="M144.032 10.794h-1.842c-.702 0-1.272.572-1.272 1.278v19.04c0 .706.57 1.278 1.272 1.278h1.842c.703 0 1.273-.572 1.273-1.278v-19.04c0-.706-.57-1.278-1.273-1.278Z"/><path fill="#fff" d="M132.363 20.667v1.85c0 .705.57 1.277 1.273 1.277h18.963c.702 0 1.272-.572 1.272-1.277v-1.85c0-.705-.57-1.277-1.272-1.277h-18.963c-.703 0-1.273.572-1.273 1.277Z"/><path fill="#5C69A5" d="M211.95 30.56h-31.674a6.102 6.102 0 0 1-4.316-1.798 6.153 6.153 0 0 1-1.79-4.333V17.27a.909.909 0 0 1 .904-.908.904.904 0 0 1 .905.908v7.158a4.325 4.325 0 0 0 1.26 3.049 4.291 4.291 0 0 0 3.037 1.265h31.674a4.295 4.295 0 0 0 3.037-1.265 4.328 4.328 0 0 0 1.259-3.05v-7.157a.904.904 0 1 1 1.81 0v7.158a6.153 6.153 0 0 1-1.79 4.333 6.102 6.102 0 0 1-4.316 1.797Z"/><path fill="#fff" d="M212.451 48.072c-.001 1.881.395 3.74 1.163 5.456a13.28 13.28 0 0 0 3.679 4.83c.479.4.988.764 1.521 1.088a13.71 13.71 0 0 0 .919.514 13.231 13.231 0 0 0 8.136 1.25c.499-.08.993-.189 1.479-.328a13.192 13.192 0 0 0 5.268-2.941c.487-.441.941-.919 1.357-1.428.142-.174.282-.354.412-.537a13.37 13.37 0 0 0 1.962-11.95 13.335 13.335 0 0 0-3.216-5.327 13.251 13.251 0 0 0-5.276-3.275 13.208 13.208 0 0 0-11.918 1.863 13.29 13.29 0 0 0-4.035 4.73 13.352 13.352 0 0 0-1.451 6.055Z"/><path fill="#000" d="M222.886 44.112s-2.253-2.622-1.377-3.719c.875-1.097 2.315-.074 2.315-.074a1.247 1.247 0 0 1 .922-1.156c.17-.045.348-.053.522-.025 1.406.086 2.299 1.56 2.299 1.56s1.194-1.28 2.078-.067c.885 1.212.364 3.253.364 3.253s.97-.176.747.98c-.224 1.158-1.719 2.391-1.719 2.391l-6.151-3.143Z"/><path fill="#F48462" d="m227.764 48.199.137 3.033s-.681.675-2.442.9c-1.312.168-1.57-.462-1.57-.462l.071-.97.113-1.507 3.16-.851.531-.143Z"/><path fill="#000" d="M227.234 48.342a.984.984 0 0 1-.075.296c-.607 1.547-2.441 1.958-3.198 2.06l.113-1.506 3.16-.85Z"/><path fill="#F48462" d="M223.089 42.307s-1.414 3.876-.693 5.96c.721 2.086 2.625 1.634 3.752 1.153a3.82 3.82 0 0 0 1.618-1.222 1.62 1.62 0 0 0 1.757-.748c.658-1.049.145-2.175-.485-2.402a1.686 1.686 0 0 0-1.334.264l.506-1.132s-2.747-5.43-5.121-1.873Z"/><path fill="#000" d="M227.885 46.934a.112.112 0 0 1-.064-.02.109.109 0 0 1-.041-.12.107.107 0 0 1 .037-.057l1.317-1.044a.11.11 0 0 1 .081-.023.111.111 0 0 1 .073.04.107.107 0 0 1 .022.082.108.108 0 0 1-.041.073l-1.316 1.045a.112.112 0 0 1-.068.024Z"/><path fill="#000" d="M229.122 46.861c-.022-.002-.929-.193-.929-.193a.109.109 0 0 1-.085-.13.109.109 0 0 1 .129-.085l.907.19a.108.108 0 0 1 .086.119.11.11 0 0 1-.108.099ZM225.613 43.945a.106.106 0 0 1-.061-.02.11.11 0 0 1-.04-.05.705.705 0 0 0-.793-.49.11.11 0 0 1-.082-.015.114.114 0 0 1-.047-.069.108.108 0 0 1 .015-.082.107.107 0 0 1 .067-.048.921.921 0 0 1 1.043.624c.007.016.009.034.007.052a.1.1 0 0 1-.018.05.105.105 0 0 1-.091.048ZM222.748 43.772a.11.11 0 0 1-.062-.019.112.112 0 0 1-.044-.116.112.112 0 0 1 .033-.056c.113-.103.459-.413.603-.258a.113.113 0 0 1 .029.066.113.113 0 0 1-.017.07.109.109 0 0 1-.128.043 1.001 1.001 0 0 0-.34.242.107.107 0 0 1-.074.028ZM223.386 46.636a.11.11 0 0 1-.085-.04c-.495-.612.4-1.645.438-1.688.01-.011.021-.02.034-.027a.11.11 0 0 1 .121.017c.011.009.02.02.026.034a.12.12 0 0 1 .011.041.103.103 0 0 1-.006.043.107.107 0 0 1-.021.037c-.227.259-.747 1.016-.433 1.403a.107.107 0 0 1 .024.057.113.113 0 0 1-.05.106.111.111 0 0 1-.059.017ZM222.826 45.229c-.083-.016-.12-.075-.106-.134l.157-.705a.109.109 0 0 1 .17-.066.112.112 0 0 1 .03.031.115.115 0 0 1 .014.083l-.158.705a.11.11 0 0 1-.107.086ZM224.742 45.18c-.083-.017-.12-.076-.106-.135l.157-.704a.108.108 0 0 1 .17-.066.111.111 0 0 1 .03.031.114.114 0 0 1 .014.083l-.158.704a.11.11 0 0 1-.107.086Z"/><path fill="#000" d="M222.805 43.18a1.277 1.277 0 0 1 1.054-.664 1.632 1.632 0 0 1 1.218.473 1.861 1.861 0 0 0 .783 1.92 2.5 2.5 0 0 0 1.84.404l.731-.3.496-1.116-2.256-2.229-2.85-1.348-1.36 1.358.344 1.502ZM224.205 47.809a.113.113 0 0 1-.121-.116c0-.014.004-.029.01-.042a.103.103 0 0 1 .062-.057.107.107 0 0 1 .042-.006.9.9 0 0 0 .863-.54.11.11 0 0 1 .202 0 .114.114 0 0 1 .001.084 1.138 1.138 0 0 1-1.059.677Z"/><path fill="#40507F" d="M217.293 58.357c.479.4.988.764 1.522 1.088.233.143.469.28.711.409.068.037.137.071.208.106a13.228 13.228 0 0 0 8.135 1.25c.499-.08.993-.189 1.479-.328a13.197 13.197 0 0 0 5.268-2.941 13.053 13.053 0 0 0 1.77-1.965 10.202 10.202 0 0 0-4.594-3.985 8.276 8.276 0 0 0-2.003-.522c-.042-.006-.082-.011-.125-.015-.065-.008-.131-.014-.193-.02-.072-.008-.126-.01-.18-.014-.085-.006-.167-.011-.241-.014-.18-.014-.362-.029-.535-.035-4.938-.19-7.567 1.777-7.72 1.894a.116.116 0 0 0-.032.032c-.048.054-.168.182-.341.385a23.786 23.786 0 0 0-3.129 4.675Z"/><path fill="#40507F" d="M219.731 59.96a13.23 13.23 0 0 0 8.136 1.25c.499-.08.993-.189 1.479-.328a13.194 13.194 0 0 0 4.369-2.19c-.555-3.39-1.141-6.198-1.596-6.51a2.804 2.804 0 0 0-.33-.19 6.393 6.393 0 0 0-2.002-.523c-.043-.006-.083-.011-.125-.015-.066-.008-.131-.014-.194-.02-.06-.005-.122-.008-.179-.014-.085-.006-.168-.011-.242-.014-.324-.017-.532-.014-.532-.014-.017-.209-.145-1.683-.543-1.651-.424.037-1.451.745-2.537.834a11.3 11.3 0 0 1-1.886-.009c-.219 0-.265 1.168-.265 1.168a7.378 7.378 0 0 0-2.523 1.563c-.048.054-.168.182-.341.385a3.247 3.247 0 0 0-.342.529c-.304.593-.378 2.953-.347 5.749Z"/><path fill="#F7B369" d="M226.213 51.986a2.237 2.237 0 0 1-.503-.05.107.107 0 0 1-.068-.05.106.106 0 0 1-.014-.082.105.105 0 0 1 .089-.084.108.108 0 0 1 .043.001c.937.22 2.699-.426 2.717-.432a.11.11 0 0 1 .15.107c0 .014-.004.029-.01.042a.11.11 0 0 1-.064.057 8.182 8.182 0 0 1-2.34.492Z"/><path fill="#A37B90" d="M206.029 40.548h-50.855a1.076 1.076 0 0 1-1.003-.666 1.08 1.08 0 0 1 0-.832 1.069 1.069 0 0 1 .588-.586c.132-.054.273-.082.415-.08h50.855a1.076 1.076 0 0 1 1.003.666 1.08 1.08 0 0 1-.236 1.184 1.074 1.074 0 0 1-.767.314ZM206.029 58.354h-50.855a1.079 1.079 0 0 1-1.078-1.082 1.079 1.079 0 0 1 1.078-1.083h50.855a1.082 1.082 0 0 1 .762 1.848 1.075 1.075 0 0 1-.762.317ZM154.998 47.286h45.177a1.023 1.023 0 0 1 1.017 1.022v.122a1.023 1.023 0 0 1-1.017 1.021h-45.177a1.017 1.017 0 0 1-1.018-1.021v-.122a1.017 1.017 0 0 1 1.018-1.022Z"/><path fill="#fff" d="M156.88 67.03h8.453a2.142 2.142 0 0 1 1.982 1.33c.108.262.163.542.163.825v8.487a2.16 2.16 0 0 1-.628 1.523c-.403.404-.948.631-1.517.631h-8.453a2.14 2.14 0 0 1-1.517-.63 2.156 2.156 0 0 1-.629-1.524v-8.487a2.16 2.16 0 0 1 1.325-1.99c.26-.109.539-.164.821-.164ZM156.88 88.726h8.453c.569 0 1.114.227 1.517.63.402.404.628.952.628 1.524v8.487a2.16 2.16 0 0 1-.628 1.523 2.144 2.144 0 0 1-1.518.631h-8.452a2.14 2.14 0 0 1-1.517-.631 2.156 2.156 0 0 1-.629-1.523V90.88a2.158 2.158 0 0 1 1.325-1.99c.26-.109.539-.164.821-.164ZM156.88 110.42h8.453c.569 0 1.114.227 1.517.631.402.404.628.952.628 1.523v8.487a2.16 2.16 0 0 1-.628 1.523 2.144 2.144 0 0 1-1.518.631h-8.452a2.14 2.14 0 0 1-1.517-.631 2.157 2.157 0 0 1-.629-1.523v-8.487a2.155 2.155 0 0 1 2.146-2.154ZM165.333 132.114h-8.453a2.15 2.15 0 0 0-2.146 2.154v8.487a2.15 2.15 0 0 0 2.146 2.154h8.453a2.15 2.15 0 0 0 2.145-2.154v-8.487a2.15 2.15 0 0 0-2.145-2.154Z"/><path fill="#68B6D8" d="M160.559 77.731a.903.903 0 0 1-.708-.343l-4.01-5.067a.911.911 0 0 1 .159-1.26.902.902 0 0 1 1.258.13l3.257 4.116 4.407-6.295a.906.906 0 0 1 1.257-.217.908.908 0 0 1 .223 1.261l-5.103 7.29a.905.905 0 0 1-.713.385h-.027ZM160.56 99.51a.9.9 0 0 1-.708-.344l-4.01-5.067a.909.909 0 0 1 1.148-1.368c.105.06.196.141.269.238l3.257 4.116 4.407-6.296a.902.902 0 0 1 1.257-.216.908.908 0 0 1 .223 1.26l-5.103 7.29a.905.905 0 0 1-.713.386h-.027Z"/><path fill="#D3BCBC" d="M173.673 68.394h44.605a.567.567 0 0 1 .562.564v.214a.567.567 0 0 1-.562.564h-44.605a.567.567 0 0 1-.562-.564v-.214a.567.567 0 0 1 .562-.564ZM226.12 72.758h-52.4a.61.61 0 0 0-.609.61v.121c0 .337.273.61.609.61h52.4a.61.61 0 0 0 .609-.61v-.12a.61.61 0 0 0-.609-.611ZM237.165 78.463h-63.387a.669.669 0 0 1-.623-.929.681.681 0 0 1 .365-.364.67.67 0 0 1 .258-.049h63.387a.666.666 0 0 1 .623.413.672.672 0 0 1-.623.93ZM173.673 133.477h44.605a.565.565 0 0 1 .562.564v.214a.567.567 0 0 1-.562.564h-44.605a.567.567 0 0 1-.562-.564v-.214a.565.565 0 0 1 .562-.564ZM226.12 137.841h-52.4a.61.61 0 0 0-.609.611v.121c0 .337.273.61.609.61h52.4a.61.61 0 0 0 .609-.61v-.121a.61.61 0 0 0-.609-.611ZM237.165 143.547h-63.387a.664.664 0 0 1-.674-.671.676.676 0 0 1 .197-.477.68.68 0 0 1 .477-.194h63.387a.667.667 0 0 1 .674.671.674.674 0 0 1-.198.476.654.654 0 0 1-.219.145.65.65 0 0 1-.257.05ZM173.673 90.088h44.605a.567.567 0 0 1 .562.564v.214a.567.567 0 0 1-.562.564h-44.605a.567.567 0 0 1-.562-.564v-.214a.567.567 0 0 1 .562-.564ZM226.12 94.451h-52.4a.61.61 0 0 0-.609.61v.121c0 .338.273.611.609.611h52.4a.61.61 0 0 0 .609-.61v-.121a.61.61 0 0 0-.609-.61ZM218.727 98.816h-45.051a.566.566 0 0 0-.565.567v.208c0 .313.253.567.565.567h45.051a.566.566 0 0 0 .565-.567v-.208a.566.566 0 0 0-.565-.567ZM173.751 111.782h58.083a.641.641 0 0 1 .64.643v.056a.646.646 0 0 1-.395.594.641.641 0 0 1-.245.049h-58.083a.64.64 0 0 1-.64-.643v-.056a.646.646 0 0 1 .64-.643ZM173.689 116.147h47.286a.594.594 0 0 1 .409.17.588.588 0 0 1 .169.411v.181a.582.582 0 0 1-.578.581h-47.286a.579.579 0 0 1-.578-.581v-.181c0-.154.061-.302.17-.41a.575.575 0 0 1 .408-.171ZM228.569 120.51h-54.836a.624.624 0 0 0-.622.625v.093c0 .345.279.625.622.625h54.836c.344 0 .622-.28.622-.625v-.093a.623.623 0 0 0-.622-.625Z"/><path fill="#F29E4C" d="M235.869 180.222h1.889l2.987-6.662-6.433 3.331 1.557 3.331Z"/><path fill="#F29E4C" d="M266.235 119.375a1.167 1.167 0 0 0-1.107-.98c-1.657-.194-3.142-.249-4.267-1.222a5.96 5.96 0 0 1-1.597-2.029 5.998 5.998 0 0 1-.592-2.517v-2.224a.876.876 0 0 0-.936-.806h-40.108a.874.874 0 0 0-.935.806v2.224c0 3.257-2.814 5.947-6.456 6.373a1.13 1.13 0 0 0-1.051 1.05c-.018.766-.023 1.957.038 3.498.413 10.388 3.853 36.693 26.929 56.042.505.427 1.65 1.177 3.264.006a.045.045 0 0 0 .02.001.045.045 0 0 0 .018-.007c20.69-17.353 25.594-40.291 26.686-52.338.232-2.62.264-5.253.094-7.877Z"/><path fill="#FFB164" d="M264.346 119.98a1.166 1.166 0 0 0-1.107-.98 7.927 7.927 0 0 1-4.267-1.827 5.97 5.97 0 0 1-1.596-2.029 6 6 0 0 1-.593-2.517v-2.224a.875.875 0 0 0-.936-.806H215.74a.876.876 0 0 0-.936.806v2.224c0 3.257-2.813 5.947-6.456 6.373a1.139 1.139 0 0 0-1.051 1.05 55.6 55.6 0 0 0 .039 3.498c.412 10.388 3.852 36.693 26.928 56.042.505.427 1.65 1.177 3.265.006a.04.04 0 0 0 .019.001.045.045 0 0 0 .018-.007c20.69-17.353 25.594-40.291 26.686-52.338.233-2.417.264-4.849.094-7.272Z"/><path fill="#EAD8D8" d="M258.973 124.682a.947.947 0 0 0-.898-.795 6.425 6.425 0 0 1-3.462-1.482 4.85 4.85 0 0 1-1.777-3.689v-1.804a.71.71 0 0 0-.759-.654h-32.541a.709.709 0 0 0-.76.654v1.804c0 2.642-2.282 4.825-5.238 5.171a.916.916 0 0 0-.584.266.927.927 0 0 0-.269.586c-.014.622-.018 1.588.032 2.838.334 8.429 3.126 29.771 21.848 45.47.41.346 1.339.955 2.649.005.005.002.01.002.016.001a.035.035 0 0 0 .014-.006c16.788-14.079 20.766-32.69 21.652-42.465.189-1.961.215-3.934.077-5.9Z"/><path fill="#A37B90" d="M246.803 128.669c-3.091-1.389-7.454.948-10.935 5.439-3.481-4.491-7.844-6.828-10.936-5.439-4.015 1.804-4.363 9.204-.777 16.529 2.523 5.154 6.32 8.894 9.748 10.032a5.487 5.487 0 0 0 3.929 0c3.429-1.138 7.226-4.878 9.748-10.032 3.587-7.325 3.239-14.725-.777-16.529Z"/><path fill="#fff" d="M233.612 151.358a.301.301 0 0 1-.296-.244l-2.831-14.337-2.21 8.212a.3.3 0 0 1-.291.224h-6.311a.293.293 0 0 1-.216-.087.287.287 0 0 1-.066-.099.29.29 0 0 1 0-.233.299.299 0 0 1 .282-.186h6.08l2.486-9.238a.296.296 0 0 1 .301-.224.307.307 0 0 1 .286.244l2.754 13.945 1.61-10.167a.306.306 0 0 1 .262-.253.309.309 0 0 1 .188.039.312.312 0 0 1 .126.145l2.283 5.509h12.983a.293.293 0 0 1 .216.087.304.304 0 0 1 .067.332.304.304 0 0 1-.283.186h-13.184a.304.304 0 0 1-.278-.186l-1.951-4.708-1.709 10.784a.301.301 0 0 1-.292.255h-.006Z"/><path fill="#50608E" d="m277.318 169.226 1.962 5.672s-2.707 1.307-2.989 2.737c-.287 1.459 1.27 2.422 1.27 2.422l-4.854 5.987 15.075-1.878-1.384-14.94h-9.08Z"/><path fill="#000" d="M291.275 58.674s5.229.659 7.131 5.7c1.902 5.042.777 11.565.777 11.565l-9.652-2.227.42-8.954 1.324-6.084Z"/><path fill="#000" d="M286.816 68.195s2.981.134 4.697-4.043a8.387 8.387 0 0 0 .656-3.774 8.386 8.386 0 0 0-1.087-3.672l-3.742 1.968-2.033 7.461 1.509 2.06Z"/><path fill="#F48462" d="M296.806 174.886v9.28l-13.021-.998V174.3l13.021.586Z"/><path fill="#A37B90" d="M274.745 99.329s-13.776 27.463-13.881 36.51c-.106 9.047 18.419 39.059 18.419 39.059s5.034 2.079 12.43 1.839c7.395-.239 8.557-1.091 8.557-1.091s-1.268-64.373-4.226-70.397c-2.958-6.025-21.299-5.92-21.299-5.92Z"/><path fill="#FFB164" d="M285.371 70.036s6.55-.221 9.93 2.855c3.381 3.076 1.162 29.914 1.162 29.914s-8.819.742-15.132 0c-6.313-.743-9.166-1.751-9.166-1.751s-.74-24.669.951-27.636c1.69-2.967 12.255-3.382 12.255-3.382Z"/><path fill="#F48462" d="m286.711 66.39.415 4.918s-.764 1.49-3.61 1.967c-2.12.356-2.911-.065-2.911-.065l.088-2.516.088-2.454 5.078-1.584.852-.266Z"/><path fill="#000" d="M285.858 66.656c-.009.167-.044.331-.102.487-.889 2.55-3.841 3.335-5.065 3.55l.089-2.454 5.078-1.583Z"/><path fill="#F48462" d="M278.741 57.121s-2.05 6.386-.747 9.726c1.302 3.34 4.367 2.484 6.166 1.632a6.216 6.216 0 0 0 2.551-2.089 2.631 2.631 0 0 0 1.616-.207 2.65 2.65 0 0 0 1.189-1.12c1.003-1.745.098-3.541-.94-3.869-1.038-.328-2.149.513-2.149.513l.75-1.871s-4.806-8.642-8.436-2.715Z"/><path fill="#000" d="M286.815 64.33a.18.18 0 0 1-.116-.314l2.073-1.782a.177.177 0 0 1 .25.02.175.175 0 0 1 .042.13.179.179 0 0 1-.06.122l-2.073 1.782a.176.176 0 0 1-.116.043Z"/><path fill="#000" d="M288.823 64.132c-.01 0-.02 0-.03-.002l-1.484-.252a.165.165 0 0 1-.065-.025.17.17 0 0 1-.079-.112.164.164 0 0 1-.002-.07.159.159 0 0 1 .024-.066.172.172 0 0 1 .181-.08l1.485.251a.177.177 0 0 1 .111.067.18.18 0 0 1-.141.289ZM283.049 59.35a.18.18 0 0 1-.132-.058 1.145 1.145 0 0 0-1.488-.277.178.178 0 0 1-.246-.053.178.178 0 0 1 .052-.247 1.495 1.495 0 0 1 1.945.335.179.179 0 0 1-.131.3ZM278.278 59.523a.178.178 0 0 1-.165-.111.176.176 0 0 1 .04-.196c.651-.639 1.141-.481 1.194-.461a.18.18 0 0 1 .108.229.178.178 0 0 1-.228.107c-.02-.005-.34-.094-.824.381a.18.18 0 0 1-.125.051Z"/><path fill="#F4E6E6" d="M287.008 69.94s-4.569 67.467-4.193 68.235c.376.768 9.018 2.111 12.068 1.535 3.05-.576 4.733-1.535 5.224-2.111.49-.575-.318-44.693-.318-44.693l.476-18.12s-6.597-4.87-13.257-4.846Z"/><path fill="#92B4EA" d="M293.815 83.78h-5.792a.898.898 0 0 0-.896.9v1.003c0 .497.401.9.896.9h5.792a.898.898 0 0 0 .896-.9v-1.002c0-.497-.401-.9-.896-.9Z"/><path fill="#000" d="M279.395 64.554a.181.181 0 0 1-.111-.039.186.186 0 0 1-.063-.099c-.493-2.09.72-3.098.772-3.14a.179.179 0 1 1 .224.28c-.045.036-1.088.917-.649 2.777a.165.165 0 0 1 .003.07.177.177 0 0 1-.135.146.178.178 0 0 1-.041.005ZM278.499 61.884a.183.183 0 0 1-.097-.028.2.2 0 0 1-.05-.05.186.186 0 0 1-.028-.133l.196-1.074-.324-.407a.181.181 0 0 1-.037-.13.179.179 0 0 1 .316-.093l.375.47c.016.02.027.044.033.069.006.024.007.05.002.076l-.211 1.153a.176.176 0 0 1-.175.147ZM281.389 66.088a1.57 1.57 0 0 1-.582-.116.175.175 0 0 1-.072-.06.177.177 0 0 1-.017-.18.186.186 0 0 1 .061-.072l1.536-1.05a.176.176 0 0 1 .194-.004.175.175 0 0 1 .067.075.174.174 0 0 1 .016.1 1.467 1.467 0 0 1-.65 1.169c-.169.093-.36.14-.553.138Zm-.074-.361a.793.793 0 0 0 .456-.09.858.858 0 0 0 .364-.471l-.82.56Z"/><path fill="#7772D3" d="M274.664 72.114a41.067 41.067 0 0 1-6.365 2.87c-1.687.58-3.441.94-5.22 1.071 0 0-.009 3.837.116 7.838a35.821 35.821 0 0 1-.418 7.032s9.916 2.14 12.214-1.037c2.298-3.176-.327-17.774-.327-17.774Z"/><path fill="#F48462" d="M255.464 66.636s-1.835-5.137-3.349-5.249c-1.514-.112.275 4.057.275 4.057l-4.099-1.574s-4.666-1.306-5.593-.898c-.928.408.599 1.927.599 1.927s-3.322-1.002-2.856.625c.466 1.626 2.739 2.561 2.739 2.561s-3.247-1.155-2.514.75c.397 1.03 7.538 5.371 12.35 5.217 4.812-.155 3.509-3.382 3.509-3.382l-1.061-4.034Z"/><path fill="#000" d="M244.969 69.117a.18.18 0 0 1-.167-.117.182.182 0 0 1 .051-.198l4.132-3.544a.177.177 0 0 1 .249.022c.03.035.046.081.042.128a.178.178 0 0 1-.059.122l-4.132 3.544a.176.176 0 0 1-.116.043ZM253.657 71.137a2.809 2.809 0 0 1-2.105-1.27c-.536-.95-.384-2.29.45-3.985a.179.179 0 1 1 .32.16c-.779 1.58-.934 2.809-.46 3.648a2.482 2.482 0 0 0 1.809 1.09.176.176 0 0 1 .119.06.18.18 0 0 1-.009.248.18.18 0 0 1-.124.05Z"/><path fill="#F7B369" d="M279.281 174.901a.18.18 0 0 1-.178-.169c-1.183-20.406-.809-53.178-.783-55.277l-6.407-3.81a.191.191 0 0 1-.052-.046.184.184 0 0 1-.012-.201.18.18 0 0 1 .247-.061l6.495 3.863a.184.184 0 0 1 .064.066.185.185 0 0 1 .023.09c-.005.342-.436 34.386.781 55.355a.18.18 0 0 1-.168.189l-.01.001Z"/><path fill="#F7B369" d="M278.439 141.596a.228.228 0 0 1-.057-.01c-.658-.219-6.44-2.191-6.806-3.906a.87.87 0 0 1 .307-.851 1.327 1.327 0 0 1 1.057-.335c2.177.204 5.501 4.627 5.641 4.816a.178.178 0 0 1-.142.286Zm-5.658-4.752a.93.93 0 0 0-.657.249.517.517 0 0 0-.199.512c.247 1.16 4.001 2.727 6 3.444-.929-1.159-3.397-4.047-5.019-4.199a1.307 1.307 0 0 0-.125-.006Z"/><path fill="#5C69A5" d="M295.662 193.635c.45-.031.871-.235 1.176-.569a1.77 1.77 0 0 0 .463-1.226c.049-3.841.628-12.445-.07-12.454-.89-.011-9.859 2.325-9.859 2.325s-.188-5.326-3.888-4.417c-2.84.697-6.162 4.04-7.554 5.558-.43.476-.993.81-1.614.96-2.645.628-9.926 2.709-10.079 6.615-.187 4.774 1.728 4.253 2.618 4.264.765.01 22.63-.82 28.807-1.056Z"/><path fill="#fff" d="M283.032 183.346a.179.179 0 0 1-.061-.348l4.261-1.567a.175.175 0 0 1 .137.006.175.175 0 0 1 .093.101.179.179 0 0 1-.107.23l-4.262 1.567a.183.183 0 0 1-.061.011Z"/><path fill="#000" d="M281.605 61.912a.183.183 0 0 1-.097-.03.17.17 0 0 1-.05-.048.188.188 0 0 1-.028-.064.205.205 0 0 1-.001-.07l.196-1.066-.423-.459a.184.184 0 0 1-.048-.128.18.18 0 0 1 .185-.172.178.178 0 0 1 .124.057l.484.525a.18.18 0 0 1 .044.154l-.211 1.154a.179.179 0 0 1-.175.147Z"/><path fill="#000" d="m286.427 61.708-.569.662.284-.955a6.458 6.458 0 0 1-3.095-1.122c-1.755-1.114-2.172-3.819-2.172-3.819a9.378 9.378 0 0 0-1.592 1.008 2.781 2.781 0 0 0-1.007 1.346s-2.2-6.12 2.415-6.915c4.615-.796 7.89 3.132 7.89 3.132s2.641.368 2.906 2.967a6.618 6.618 0 0 1-1.545 4.615 2.524 2.524 0 0 0-1.562-1.214 2.503 2.503 0 0 0-1.953.295Z"/><path fill="#F4E6E6" d="m258.523 68.675-11.377 6.166s4.097 11.88 11.644 14.888c7.316 2.917 11.156 2.269 11.156 2.269l-6.758 34.646s10.12-23.891 10.341-25.199c.221-1.307 7.17-30.958 7.17-30.958s-1.638-.236-5.244 1.156c-3.605 1.392-7.485 2.324-10.813 2.324-3.328 0-6.119-5.291-6.119-5.291Z"/><path fill="#F48462" d="m280.604 73.21-.276 2.212s6.082-2.558 6.488-3.705c.406-1.148-5.94.642-5.94.642l-.272.851Z"/><path fill="#fff" d="M280.326 75.601a.174.174 0 0 1-.129-.056.174.174 0 0 1-.048-.133l.236-3.978a.18.18 0 0 1 .188-.168.182.182 0 0 1 .068.017.183.183 0 0 1 .09.103.163.163 0 0 1 .009.07l-.218 3.69c1.104-.472 5.343-2.338 6.145-3.529a.186.186 0 0 1 .049-.05.183.183 0 0 1 .135-.027.173.173 0 0 1 .113.078c.013.02.022.041.027.065a.185.185 0 0 1-.029.134c-.979 1.455-6.34 3.677-6.568 3.77a.174.174 0 0 1-.068.014Z"/><path fill="#5C69A5" d="M293.63 136.133c-2.244 0-6.314-.371-6.644-.802-.301-.394.075-10.069.25-14.211a.182.182 0 0 1 .055-.122.181.181 0 0 1 .123-.05h9.804a.181.181 0 0 1 .127.053.188.188 0 0 1 .052.127v14.094a.177.177 0 0 1-.075.146c-.033.023-.827.574-2.782.735-.242.02-.553.03-.91.03Zm-6.045-14.827c-.225 5.348-.487 13.323-.301 13.831.353.287 5.253.773 7.227.609a6.378 6.378 0 0 0 2.529-.625v-13.814l-9.455-.001Z"/><path fill="#40507F" d="m275.863 107.695-14.475.036a1.34 1.34 0 0 1-1.202-1.003l-5.541-22.447a.733.733 0 0 1-.041-.356.737.737 0 0 1 .398-.57.744.744 0 0 1 .348-.082l14.475-.036a1.33 1.33 0 0 1 1.201 1.003l5.542 22.447a.76.76 0 0 1-.088.691.742.742 0 0 1-.617.317Z"/><path fill="#5C69A5" d="m274.168 107.695-14.476.036a1.333 1.333 0 0 1-1.201-1.003l-5.542-22.447a.757.757 0 0 1 .088-.69.747.747 0 0 1 .617-.318l14.476-.036a1.33 1.33 0 0 1 1.201 1.003l5.542 22.447a.76.76 0 0 1-.088.691.746.746 0 0 1-.617.317ZM264.711 79.266a.82.82 0 0 1-.72-.394c-.755-1.167.43-4.777.481-4.93a.178.178 0 0 1 .34.003c.129.416 1.242 4.084.452 5.06a.679.679 0 0 1-.553.261Zm-.074-4.644c-.353 1.232-.813 3.335-.347 4.055a.464.464 0 0 0 .369.228.342.342 0 0 0 .328-.125c.486-.6.009-2.848-.35-4.158Z"/><path fill="#F48462" d="M281.029 91.874s-4.453-1.52-5.303-1.468a20.252 20.252 0 0 0-2.998.734l.302 1.221s-7.485.824-7.482 2.306c.003 1.01 3.249.837 3.249.837s-3.356.454-3.25 1.601c.107 1.148 4.249 1.03 4.249 1.03s-3.428.692-2.143 1.696c1.286 1.004 12.256 2.151 13.914-.574 1.658-2.725-.538-7.383-.538-7.383Z"/><path fill="#F4E6E6" d="M300.264 74.785s12.507 11.934 9.872 22.157c-3.486 13.525-30.445 5.654-30.445 5.654l.911-12.608 16.197-.89 3.465-14.313Z"/><path fill="#5C69A5" d="M299.422 89.558c-1.699 0-3.656-.206-3.78-.22a.179.179 0 0 1-.06-.338c2.408-1.198 5.4-.925 6.16-.382a.384.384 0 0 1 .201.362c-.018.146-.137.263-.354.347a7.082 7.082 0 0 1-2.167.23Zm-3.058-.512c1.321.114 4.171.307 5.096-.053a.51.51 0 0 0 .113-.057c-.276-.3-2.758-.834-5.209.11Z"/><path fill="#000" d="M272.829 92.36a.179.179 0 0 1-.033-.355l1.969-.367a.18.18 0 0 1 .207.213.188.188 0 0 1-.078.113.171.171 0 0 1-.064.026l-1.969.368a.183.183 0 0 1-.032.003ZM268.24 95.663a.18.18 0 0 1-.177-.168.178.178 0 0 1 .155-.188l5.019-.61a.172.172 0 0 1 .132.035.175.175 0 0 1 .066.12.181.181 0 0 1-.036.132.177.177 0 0 1-.119.067l-5.018.61a.222.222 0 0 1-.022.002ZM269.182 98.444a.176.176 0 0 1-.123-.048.178.178 0 0 1-.016-.246.18.18 0 0 1 .116-.063l5.106-.65a.18.18 0 1 1 .044.356l-5.105.649a.177.177 0 0 1-.022.002Z"/><path fill="#fff" d="M263.679 86.763h-3.521c-.446 0-.879-.15-1.231-.424a2.01 2.01 0 0 1-.711-1.095l-.495-1.964a.186.186 0 0 1-.005-.07.18.18 0 0 1 .204-.153.179.179 0 0 1 .147.136l.495 1.964a1.65 1.65 0 0 0 1.596 1.248h3.521a1.354 1.354 0 0 0 1.059-.51 1.372 1.372 0 0 0 .271-1.148l-.317-1.458a.185.185 0 0 1 .023-.136.187.187 0 0 1 .048-.051.177.177 0 0 1 .277.111l.317 1.458a1.74 1.74 0 0 1-.341 1.449 1.723 1.723 0 0 1-1.337.643Z"/><path fill="#40507F" d="M288.887 76.22a.237.237 0 0 1-.232-.187.24.24 0 0 1 0-.106c.499-2.12.417-3.789-.237-4.827a2.084 2.084 0 0 0-1.202-.962.24.24 0 0 1 .002-.469.235.235 0 0 1 .093.001 2.54 2.54 0 0 1 1.497 1.157c.745 1.166.849 2.918.31 5.21a.238.238 0 0 1-.231.183ZM277.32 81.694a.235.235 0 0 1-.167-.069.234.234 0 0 1-.07-.167c-.004-.371-.053-9.123 3.221-11.514a.238.238 0 0 1 .373.136.246.246 0 0 1-.03.182.225.225 0 0 1-.064.068c-3.075 2.247-3.026 11.035-3.026 11.123a.241.241 0 0 1-.067.17.24.24 0 0 1-.168.071h-.002Z"/><path fill="#40507F" d="M288.422 84.083a.233.233 0 0 1-.113-.029.232.232 0 0 1-.086-.08.232.232 0 0 1-.038-.11.23.23 0 0 1 .019-.116c.024-.053 2.324-5.396.624-7.244a.882.882 0 0 0-.769-.303c-1.548.137-3.957 3.4-4.755 4.647a.239.239 0 0 1-.328.07.242.242 0 0 1-.103-.15.235.235 0 0 1 .031-.178c.122-.191 3.017-4.68 5.113-4.864a1.351 1.351 0 0 1 1.16.454c1.91 2.076-.437 7.529-.537 7.76a.24.24 0 0 1-.218.143ZM278.734 81.92a1.42 1.42 0 0 1-2.422 1.008 1.43 1.43 0 0 1 .215-2.192 1.417 1.417 0 0 1 2.207 1.185Z"/><path fill="#A37B90" d="M277.87 81.92a.554.554 0 0 1-.943.393.562.562 0 0 1-.119-.605.553.553 0 0 1 .901-.18.557.557 0 0 1 .161.393Z"/><path fill="#40507F" d="M284.166 81.198h-1.835a.238.238 0 0 1-.237-.24.238.238 0 0 1 .237-.239h1.835a.239.239 0 1 1 0 .479ZM288.694 84.87a.241.241 0 0 1-.203-.114l-.96-1.571a.247.247 0 0 1-.032-.088.225.225 0 0 1 .004-.093c.007-.03.02-.06.038-.085a.245.245 0 0 1 .156-.095.232.232 0 0 1 .177.042.254.254 0 0 1 .063.069l.96 1.57a.239.239 0 0 1-.203.364Z"/></svg>