<svg xmlns="http://www.w3.org/2000/svg" width="440" height="440" fill="none" viewBox="0 0 440 440"><path fill="#A2C3F2" d="M362.367 335.29s47.008-63.777 39.552-159.53c-7.457-95.753-85.893-141.33-143.7-117.24-57.806 24.09-67.355 70.799-131.079 66.002-71.677-5.396-112.64 67.344-58.89 210.768h294.117Z"/><path fill="#22A822" d="M109.592 334.973s-.824-24.575 23.508-38.58c27.424-15.784 59.932 22.947 84.19 20.388 20.518-2.164 27.865-25.707 49.698-31.001 21.739-5.271 43.109 15.852 38.058 49.187l-195.454.006Z"/><path fill="#60BF60" d="M110.286 334.929s-.819-18.58 23.342-29.168c27.229-11.934 59.508 17.348 83.594 15.414 20.373-1.637 27.668-19.436 49.347-23.439 21.585-3.985 35.644 12.287 36.409 37.237l-192.692-.044Z"/><path fill="#22A822" d="M114.826 334.941s-.78-11.152 22.254-17.508c25.96-7.163 56.734 10.414 79.698 9.252 19.424-.982 26.378-11.666 47.047-14.069 20.578-2.392 34.332 6.305 36.027 22.323l-185.026.002Z"/><path fill="#60BF60" d="M63.945 335.468S24.706 277.301 37.6 267.471c12.895-9.829 53.8 42.863 53.8 42.863s-24.079-53.191-19.036-83.497c5.042-30.306 44.015 40.722 53.402 75.57 0 0-2.368-49.095 20.049-69.076 22.416-19.98 14.194 80.288 14.194 80.288s14.077-57.719 29.371-60.492c15.294-2.774-4.586 81.888-4.586 81.888l-120.85.453Z"/><path fill="#22A822" d="M46.518 279.14a.507.507 0 0 0-.71-.125.511.511 0 0 0-.13.708l39.031 56.099a.505.505 0 0 0 .42.22.515.515 0 0 0 .453-.275.512.512 0 0 0-.034-.528l-39.03-56.099ZM118.532 335.091 80.966 231.923a.514.514 0 0 0-.457-.338.512.512 0 0 0-.503.687l37.565 103.168a.508.508 0 0 0 .655.306.515.515 0 0 0 .306-.655ZM150.153 244.966a.484.484 0 0 0-.57.375c-.109.518-10.917 52.259-13.565 89.822a.494.494 0 0 0 .118.351.477.477 0 0 0 .325.164l.04.002a.486.486 0 0 0 .482-.45c2.63-37.307 13.438-89.171 13.547-89.691a.481.481 0 0 0-.07-.365.481.481 0 0 0-.307-.208ZM186.967 263.818a.484.484 0 0 0-.887.102c-.156.542-15.555 54.407-19.087 71.177a.494.494 0 0 0 .099.404.478.478 0 0 0 .375.179.48.48 0 0 0 .473-.384c3.53-16.759 18.915-70.568 19.07-71.11a.477.477 0 0 0-.043-.368Z"/><path fill="#fff" d="M363.483 172.255a10.2 10.2 0 0 0-1.644.201A10.095 10.095 0 0 0 354.915 162a10.091 10.091 0 0 0-11.758 4.36 10.105 10.105 0 0 0-8.426-8.052 10.082 10.082 0 0 0-7.775 2.092 10.087 10.087 0 0 0-3.77 7.115 10.087 10.087 0 0 0 .525 4.078 10.085 10.085 0 0 0-8.414 4.461 10.101 10.101 0 0 0 1.475 12.995 10.09 10.09 0 0 0 13.064.629 13.913 13.913 0 0 0 13.399 7.384 13.906 13.906 0 0 0 12.076-9.394 10.097 10.097 0 0 0 13.922 3.228 10.093 10.093 0 0 0-5.75-18.641Z"/><path fill="#A2C3F2" d="M53.763 66.273c.472 0 .944.04 1.41.117a8.62 8.62 0 0 1 15.74-5.834 8.62 8.62 0 0 1 15.974-3.021 8.62 8.62 0 0 1 .8 6.832 8.62 8.62 0 1 1-4.618 15.642 11.88 11.88 0 0 1-21.811-.856 8.621 8.621 0 1 1-7.495-12.88Z"/><path fill="#60BF60" d="M379.592 335.413s34.443-51.059 23.124-59.688c-11.319-8.628-47.225 37.625-47.225 37.625s21.136-46.691 16.71-73.294c-4.427-26.602-38.636 35.746-46.876 66.335 0 0 2.078-43.095-17.599-60.634-19.678-17.539-12.46 70.477-12.46 70.477s-12.356-50.666-25.782-53.101c-13.425-2.434 4.026 71.882 4.026 71.882l106.082.398Z"/><path fill="#22A822" d="M394.89 285.968a.443.443 0 0 1 .621-.108.445.445 0 0 1 .115.62l-34.261 49.243a.437.437 0 0 1-.368.193.445.445 0 0 1-.398-.241.448.448 0 0 1 .03-.464l34.261-49.243ZM331.676 335.082l32.975-90.561a.469.469 0 0 1 .09-.15.462.462 0 0 1 .311-.145.461.461 0 0 1 .323.118.442.442 0 0 1 .119.484l-32.975 90.56a.454.454 0 0 1-.232.253.453.453 0 0 1-.343.015.454.454 0 0 1-.253-.231.462.462 0 0 1-.042-.17.461.461 0 0 1 .027-.173ZM303.918 255.97a.43.43 0 0 1 .501.329c.095.455 9.583 45.873 11.907 78.846a.417.417 0 0 1-.104.308.407.407 0 0 1-.285.144l-.035.002a.426.426 0 0 1-.423-.395c-2.309-32.748-11.795-78.275-11.891-78.731a.422.422 0 0 1 .061-.32.42.42 0 0 1 .269-.183ZM271.603 272.519a.425.425 0 0 1 .779.089c.136.476 13.654 47.758 16.754 62.479a.421.421 0 0 1-.233.47.427.427 0 0 1-.598-.295c-3.098-14.711-16.603-61.945-16.739-62.42a.423.423 0 0 1 .037-.323Z"/><path fill="#F69D85" d="m146.395 181.763-13.121 65.799-.298 1.493c-.058.283-.139.56-.241.83l-23.515 61.12a8.571 8.571 0 0 1-11.068 4.911 8.568 8.568 0 0 1-4.927-11.061l23.495-61.129-1.903-64.757a15.932 15.932 0 0 1 4.44-11.367 15.947 15.947 0 0 1 26.106 4.642 15.946 15.946 0 0 1 1.337 6.076 16.783 16.783 0 0 1-.305 3.443Z"/><path fill="#2A3047" d="M134.442 53.083s-10.948-3.937-17.492 5.009c-6.544 8.946-1.699 18.094-2.224 24.374-.524 6.279-7.471 8.224-8.208 16.994-.737 8.77 6.761 11.544 12.89 9.065 0 0-.614 12.154 9.683 11.328 10.298-.826 27.308-6.042 31.137-22.81 3.83-16.769.977-42.123-25.786-43.96Z"/><path fill="#9B453A" d="M209.188 108.702s6.619 2.684 10.214 13c0 0-7.686-2.189-10.214-13Z"/><path fill="#F69D85" d="m191.535 142.567 36.508-31.622a6.06 6.06 0 0 0-7.877-9.21l-29.496 24.909-20.914-12.243a8.529 8.529 0 1 0-16.076 5.651l27.718 19.79.125.319a6.336 6.336 0 0 0 10.012 2.406Z"/><path fill="#FF593A" d="M151.335 99.514s17.061 4.028 40.113 22.218l17.74-13.03s1.974 7.301 10.214 13c0 0-21.265 27.43-34.085 25.714-15.872-2.123-34.755-21.635-34.755-21.635l.773-26.267Z"/><path fill="#9B453A" d="M210.622 119.227a35.389 35.389 0 0 1-4.79-8.152.276.276 0 0 1 .16-.359.28.28 0 0 1 .36.161c.033.089 3.476 8.939 10.709 13.634a.278.278 0 0 1-.303.467c-2.477-1.608-4.517-3.69-6.136-5.751ZM207.388 121.4c-3.367-4.286-4.391-8.211-4.406-8.27a.28.28 0 0 1 .032-.21.281.281 0 0 1 .381-.096.283.283 0 0 1 .127.17c.021.087 2.276 8.695 11.184 14.224a.276.276 0 0 1 .124.173.286.286 0 0 1-.034.21.266.266 0 0 1-.074.079.28.28 0 0 1-.309.011 27.057 27.057 0 0 1-7.025-6.291ZM191.9 128.634a.276.276 0 0 1-.058-.194c.217-2.748-.656-6.607-.664-6.646a.267.267 0 0 1-.004-.109.272.272 0 0 1 .212-.227.283.283 0 0 1 .334.212c.037.161.9 3.98.676 6.814a.277.277 0 0 1-.496.15Z"/><path fill="#F69D85" d="M218.739 104.719s5.48-7.438 10.489-9.157c0 0 2.492 4.02 5.163 7.486 0 0 1.25 6.746-9.983 10.015-3.432.999-3.519-3.686-5.669-8.344Z"/><path fill="#F69D85" d="M217.07 104.95c.938-2.169 7.25-12.633 10.06-10.42 1.278 1.663-1.981 2.681-3.106 6.301-.772 2.484.104 6.846-3.471 6.595-1.591-.204-4.145-1.027-3.483-2.476Z"/><path fill="#F69D85" d="M233.258 101.865a1.444 1.444 0 0 0-.093-1.872 1.341 1.341 0 0 0-.983-.415 1.445 1.445 0 0 0-.275-1.57 1.335 1.335 0 0 0-1.055-.408 1.439 1.439 0 0 0-.246-1.626c-.532-.553-1.334-.55-2.013-.192-.774.407-2.266 1.66-2.824 2.734-.354.681-.484 1.824.048 2.377a1.333 1.333 0 0 0 1.054.407 1.447 1.447 0 0 0 .247 1.626 1.34 1.34 0 0 0 .982.415 1.445 1.445 0 0 0 .276 1.57c.201.209.465.348.752.394a1.444 1.444 0 0 0 .093 1.872 1.327 1.327 0 0 0 .965.417 1.332 1.332 0 0 0 .967-.411l2.851-2.927a1.442 1.442 0 0 0 .006-1.997 1.338 1.338 0 0 0-.752-.394Z"/><path fill="#AF5945" d="M229.028 105.505a.225.225 0 0 0 .283-.071c1.891-2.687 3.991-3.349 4.012-3.355a.225.225 0 0 0 .149-.279.225.225 0 0 0-.278-.149c-.091.027-2.262.703-4.248 3.526a.213.213 0 0 0-.035.08.212.212 0 0 0-.002.087.216.216 0 0 0 .091.144.26.26 0 0 0 .028.017ZM227.999 103.54l.016.007a.227.227 0 0 0 .085.018.235.235 0 0 0 .086-.017.233.233 0 0 0 .072-.048.24.24 0 0 0 .049-.073c1.001-2.393 3.931-3.63 3.961-3.643a.224.224 0 0 0-.171-.413c-.127.053-3.129 1.318-4.202 3.884a.224.224 0 0 0 .104.285ZM226.77 101.5l.009.004a.221.221 0 0 0 .296-.111c.987-2.185 3.845-3.577 3.874-3.59a.223.223 0 0 0-.193-.403c-.124.058-3.033 1.474-4.088 3.809a.224.224 0 0 0 .102.291ZM231.778 106.638a.227.227 0 0 0 .274-.058c.006-.007.637-.772 1.449-1.605a.224.224 0 0 0-.005-.315.223.223 0 0 0-.315.003 30.05 30.05 0 0 0-1.474 1.633.215.215 0 0 0-.046.188.224.224 0 0 0 .117.154ZM223.201 106.324a.22.22 0 0 0 .101.024 6.686 6.686 0 0 1 3.078.82.203.203 0 0 0 .082.03.212.212 0 0 0 .166-.042.216.216 0 0 0 .058-.066.218.218 0 0 0 .029-.082.213.213 0 0 0-.042-.165.212.212 0 0 0-.064-.059 7.15 7.15 0 0 0-2.896-.87 7.262 7.262 0 0 0 1.044-3.183.227.227 0 0 0-.053-.162.225.225 0 0 0-.314-.025.224.224 0 0 0-.078.152 6.804 6.804 0 0 1-1.187 3.292.216.216 0 0 0-.041.186.222.222 0 0 0 .117.15Z"/><path fill="#F69D85" d="M146.294 82.354h-13.875v21.751h13.875V82.354Z"/><path fill="#D1836B" d="M136.554 95.216s4.795 1.929 9.741.991v-7.08l-9.741 6.089Z"/><path fill="#F69D85" d="M142.691 94.943a14.58 14.58 0 0 0 8.764-6.92 14.593 14.593 0 0 0 1.304-11.09l-2.062-7.288a14.587 14.587 0 0 0-18.01-10.068 14.59 14.59 0 0 0-10.068 18.01l2.062 7.288a14.585 14.585 0 0 0 12.335 10.519 14.59 14.59 0 0 0 5.675-.451Z"/><path fill="#F69D85" d="M154.858 77.317a3.876 3.876 0 1 0-5.52-5.442 3.876 3.876 0 0 0 5.52 5.442ZM136.896 182.986c12.816 0 29.229-3.08 24.242-20.674-2.562-9.035-3.124-21.673-.522-37.853 2.035-12.653-16.293-26.167-20.837-26.167h-.842c-12.816 0-21.643 13.169-20.323 25.917 1.701 16.43 8.801 20.125.691 36.591-10.808 21.944 17.591 22.186 17.591 22.186Z"/><path fill="#30313C" d="M135.236 76.617c.295 1.048.102 2.019-.432 2.17-.533.15-1.206-.576-1.502-1.624-.296-1.047-.102-2.018.431-2.169.534-.15 1.207.576 1.503 1.623ZM143.713 74.224c.296 1.047.103 2.018-.431 2.169-.534.15-1.206-.576-1.502-1.623-.296-1.048-.103-2.019.431-2.17.534-.15 1.206.576 1.502 1.624Z"/><path fill="#D1836B" d="M130.237 82.072c.091.773.851 1.32 1.699 1.221.848-.099 1.462-.806 1.371-1.58-.09-.773-.851-1.32-1.698-1.221-.848.099-1.462.806-1.372 1.58ZM146.202 78.222c.091.774.851 1.32 1.699 1.222.848-.1 1.462-.807 1.371-1.58-.09-.774-.851-1.32-1.699-1.222-.847.1-1.461.807-1.371 1.58Z"/><path fill="#FF593A" d="M146.295 99.543s15.087 13.475 19.191 27.555c1.889 6.484-3.687 13.877-4.816 20.737-1.046 6.358.468 14.477.468 14.477s-12.216 2.441-18.582 2.441c-15.215 0-23.251-3.953-23.251-3.953s7.261-16.336-2.205-30.471c-7.526-11.238 2.789-26.877 15.31-30.786 0 0 5.841 6.075 10.581 5.457 3.978-.519 3.304-5.457 3.304-5.457Z"/><path fill="#F69D85" d="M127.022 82.07a3.876 3.876 0 1 0-7.75-.139 3.876 3.876 0 0 0 7.75.138Z"/><path fill="#2A3047" d="M126.864 60.331s1.58-11.763 14.056-11.586c12.476.178 15.346 11.17 9.977 15.573-3.74 3.067-15.316 3.05-20.262 1.362 0 0 .697 5.96-6.024 8.759-6.721 2.8-10.757-10.196 2.253-14.108Z"/><path fill="#DB7777" d="M137.805 84.585c.017.632 1.103 1.117 2.426 1.082 1.322-.035 2.381-.576 2.365-1.208-.017-.633-1.103-1.118-2.426-1.083-1.322.035-2.381.576-2.365 1.209Z"/><path fill="#AF5945" d="M138.974 84.834a8.844 8.844 0 0 1-2.471-.653.225.225 0 0 1-.121-.297.208.208 0 0 1 .05-.074.223.223 0 0 1 .248-.047 8.234 8.234 0 0 0 6.865-.184.226.226 0 0 1 .31.083.23.23 0 0 1 .023.172.23.23 0 0 1-.106.138 8.37 8.37 0 0 1-4.798.862ZM123.73 84.033a.23.23 0 0 1-.128-.058.23.23 0 0 1-.069-.121c-.235-1.118-.932-1.165-1.606-1.21-.403-.027-.784-.052-1.017-.321a.925.925 0 0 1-.181-.704c.13-1.716 1.997-2.213 2.076-2.234a.23.23 0 0 1 .172.024.238.238 0 0 1 .105.139.24.24 0 0 1 .005.089.211.211 0 0 1-.03.083.222.222 0 0 1-.138.105c-.067.017-1.632.44-1.737 1.828a.517.517 0 0 0 .071.372c.11.127.399.146.704.166.684.046 1.715.115 2.02 1.57a.224.224 0 0 1-.142.259.223.223 0 0 1-.105.013ZM152.703 76.825a.228.228 0 0 1-.198-.185c-.271-1.46.657-1.917 1.271-2.22.275-.135.535-.263.588-.42a.522.522 0 0 0-.076-.372c-.628-1.25-2.285-1.032-2.302-1.03a.225.225 0 0 1-.255-.193.227.227 0 0 1 .192-.256c.081-.012 1.997-.262 2.771 1.275a.927.927 0 0 1 .1.72c-.113.337-.455.506-.817.684-.607.298-1.234.607-1.025 1.73a.233.233 0 0 1-.058.196.227.227 0 0 1-.191.07Z"/><path fill="#FFB12A" d="M122.628 88.735a2.015 2.015 0 0 1-1.714-1.446 2.018 2.018 0 1 1 1.714 1.446Zm.4-3.56a1.566 1.566 0 0 0-1.398 2.53 1.565 1.565 0 1 0 1.398-2.53ZM155.083 80.13a2.019 2.019 0 1 1 .45-4.012 2.019 2.019 0 0 1-.45 4.013Zm.399-3.56a1.565 1.565 0 1 0-.348 3.11 1.565 1.565 0 0 0 .348-3.11Z"/><path fill="#AF5945" d="M131.377 75.47a.383.383 0 0 1-.336-.42.392.392 0 0 1 .071-.184c.061-.084 1.524-2.049 4.006-2.153a.38.38 0 1 1 .032.76c-2.119.09-3.41 1.825-3.422 1.842a.382.382 0 0 1-.351.154ZM139.834 72.209a.379.379 0 0 1-.327-.285.382.382 0 0 1 .152-.407 4.454 4.454 0 0 1 4.021-.314.38.38 0 1 1-.279.708 3.693 3.693 0 0 0-3.31.234.382.382 0 0 1-.257.064ZM139.634 81.527a.226.226 0 0 1-.198-.188.234.234 0 0 1 .022-.143.231.231 0 0 1 .104-.1c.497-.236 1.478-.866 1.34-1.302-.193-.608-1.743-3.188-2.324-4.131a.225.225 0 0 1 .074-.312.226.226 0 0 1 .312.074c.087.14 2.121 3.446 2.371 4.231.295.93-1.386 1.759-1.578 1.85a.227.227 0 0 1-.123.02Z"/><path fill="#9B453A" d="M152.709 125.744a2.039 2.039 0 0 1-2.003-2.44 2.04 2.04 0 0 1 2.785-1.489 2.041 2.041 0 0 1-.782 3.929Zm0-3.63c-.314 0-.621.093-.883.267a1.594 1.594 0 0 0-.24 2.444 1.587 1.587 0 0 0 2.711-1.123c0-.421-.168-.825-.465-1.123a1.592 1.592 0 0 0-1.123-.465ZM148.624 117.175a2.043 2.043 0 0 1-1.444-3.486 2.044 2.044 0 0 1 3.487 1.444 2.045 2.045 0 0 1-2.043 2.042Zm0-3.63a1.59 1.59 0 0 0-1.467.98 1.585 1.585 0 0 0 .344 1.731 1.586 1.586 0 0 0 2.444-.241 1.583 1.583 0 0 0-.198-2.005 1.59 1.59 0 0 0-1.123-.465ZM153.335 136.006a2.047 2.047 0 0 1-1.887-1.261 2.037 2.037 0 0 1 .443-2.226 2.045 2.045 0 0 1 2.225-.443 2.04 2.04 0 0 1 .662 3.331 2.044 2.044 0 0 1-1.443.599Zm0-3.631a1.589 1.589 0 1 0 0 3.178 1.589 1.589 0 0 0 0-3.178ZM152.709 156.528a2.04 2.04 0 0 1-1.887-1.261 2.037 2.037 0 0 1 .443-2.226 2.036 2.036 0 0 1 2.226-.443 2.041 2.041 0 0 1 .662 3.331 2.046 2.046 0 0 1-1.444.599Zm0-3.631c-.314 0-.621.093-.883.267a1.593 1.593 0 0 0-.24 2.444 1.587 1.587 0 0 0 2.711-1.123c0-.421-.168-.825-.465-1.123a1.592 1.592 0 0 0-1.123-.465ZM152.71 146.267a2.04 2.04 0 0 1-1.887-1.261 2.037 2.037 0 0 1 .443-2.226 2.037 2.037 0 0 1 2.225-.443 2.047 2.047 0 0 1 .662 3.331 2.046 2.046 0 0 1-1.443.599Zm0-3.631a1.587 1.587 0 0 0-1.123 2.711 1.593 1.593 0 0 0 2.444-.24 1.585 1.585 0 0 0-.199-2.005 1.585 1.585 0 0 0-1.122-.466Z"/><path fill="#F69D85" d="m166.25 179.959 3.081 67.023.07 1.522c.012.288.001.577-.034.863l-8.132 64.981a8.569 8.569 0 0 1-17.004-2.125l8.11-64.984-17.415-62.401a15.942 15.942 0 0 1 11.249-19.543 15.942 15.942 0 0 1 19.543 11.249c.294 1.117.473 2.261.532 3.415Z"/><path fill="#FFB12A" d="M161.309 162.158s13.441 27.363 18.627 73.955c2.321 20.841-7.147 67.414-7.147 67.414s-19.44 5.339-36.179-1.121l7.327-53.844s-2.964-30.19-8.589-45.19c-5.625-15.001-4.346-39.45-4.346-39.45 14.317 1.097 30.307-1.764 30.307-1.764Z"/><path fill="#404D7F" d="m177.008 334.966-20.663-.106-4.399-9.25-1.807 9.216-5.967-.03c-5.522-11.373.214-25.66.214-25.66s8.65 1.699 19.02.185l-.177 9.26 15.489 11.115c2.302 1.652 1.123 5.285-1.71 5.27Z"/><path fill="#606A97" d="M147.062 322.229a1.761 1.761 0 0 1-1.55-.928 1.751 1.751 0 0 1 .085-1.804 1.752 1.752 0 0 1 1.63-.779 1.762 1.762 0 0 1 1.585 1.917 1.751 1.751 0 0 1-.919 1.384c-.255.138-.541.21-.831.21Zm0-3.065a1.31 1.31 0 0 0-1.303 1.179 1.306 1.306 0 0 0 1.048 1.411 1.308 1.308 0 1 0 .255-2.59Z"/><path fill="#FFB12A" d="M150.661 163.536s1.686 29.552-4.48 76.025c-2.758 20.787-23.144 63.719-23.144 63.719s-20.154.509-34.849-9.786l20.056-50.504s-1.485-29.751-1.485-46.336c0-24.904 12.546-35.854 12.546-35.854 13.634 4.507 31.356 2.736 31.356 2.736Z"/><path fill="#404D7F" d="m119.574 334.811-20.031-5.07-2.047-10.037-3.97 8.511-5.785-1.463c-2.626-12.367 6.377-24.856 6.377-24.856s7.988 3.729 18.418 4.752l-2.398 8.946 12.363 14.513c1.837 2.156-.181 5.399-2.927 4.704Z"/><path fill="#606A97" d="M93.569 315.248a1.757 1.757 0 0 1-.766-3.004 1.76 1.76 0 0 1 2.54.171 1.76 1.76 0 0 1-1.774 2.833Zm.736-2.975a1.309 1.309 0 0 0-.87 2.453 1.305 1.305 0 0 0 1.679-.518 1.307 1.307 0 0 0-.809-1.935Z"/><path fill="#F1F3F2" d="m151.335 99.514 1.379 10.736-7.627-3.416-5.13 6.096-11.255-11.975 3.717-2.663s6.264 7.949 11.644 5.807c2.699-1.075 2.232-6.285 2.232-6.285l5.04 1.7Z"/><path fill="#997243" d="M143.564 251.585a.275.275 0 0 1-.225-.114.282.282 0 0 1-.04-.249c.018-.058 1.856-5.814 2.606-11.696.752-5.903 4.2-49.754 4.235-50.196a.293.293 0 0 1 .029-.105.27.27 0 0 1 .162-.138.282.282 0 0 1 .212.017.267.267 0 0 1 .139.162.276.276 0 0 1 .012.107c-.034.443-3.483 44.308-4.237 50.223-.757 5.934-2.61 11.738-2.629 11.796a.278.278 0 0 1-.264.193ZM142.16 168.207a97.633 97.633 0 0 1-11.104-.649c-8.774-1.011-14.914-2.861-14.975-2.88a.272.272 0 0 1-.164-.135.275.275 0 0 1-.021-.212.272.272 0 0 1 .135-.164.275.275 0 0 1 .212-.021c.061.018 6.162 1.856 14.889 2.861 8.046.926 20.033 1.314 31.45-2.1a.279.279 0 0 1 .211.021.296.296 0 0 1 .084.069.282.282 0 0 1-.04.392.286.286 0 0 1-.096.051c-6.991 2.09-14.191 2.767-20.581 2.767ZM127.768 293.149h-.012c-20.286-.876-35.11-10.566-35.258-10.663a.28.28 0 0 1-.077-.385.278.278 0 0 1 .384-.079c.147.097 14.849 9.702 34.975 10.571a.277.277 0 0 1 .181.476.274.274 0 0 1-.193.08ZM158.332 294.803c-6.194 0-13.408-.714-20.322-3.081a.276.276 0 0 1-.159-.141.277.277 0 0 1 .127-.372.281.281 0 0 1 .213-.014c17.208 5.892 36.331 1.451 36.522 1.405a.278.278 0 0 1 .129.542c-.116.027-7.146 1.661-16.51 1.661ZM128.19 286.038c-9.223 0-17.366-2.388-22.763-4.499-6.413-2.509-10.445-5.183-10.485-5.21a.277.277 0 1 1 .31-.462c.158.105 16.046 10.56 35.611 9.546a.283.283 0 0 1 .202.071.28.28 0 0 1-.067.459.285.285 0 0 1-.106.026c-.91.047-1.81.07-2.702.069ZM157.632 288.104a85.515 85.515 0 0 1-18.818-2.072.284.284 0 0 1-.173-.122.278.278 0 0 1 .296-.42c20.386 4.607 36.803.05 36.966.004a.275.275 0 0 1 .344.191.277.277 0 0 1-.191.344c-.11.031-7.468 2.075-18.424 2.075Z"/><path fill="#F69D85" d="M119.072 177.716a28.159 28.159 0 0 1 7.526 8.256c.222.426.611 1.088.796 1.528.499.815.802 2.069-.295 2.551-.986.474-1.714-.403-2.136-1.18-2.086-3.026-5.032-5.463-8.263-7.186-3.423-1.376-.507-6.289 2.372-3.969Z"/><path fill="#30313C" d="M303.15 61.803c-11.133-22.804-38.642-32.268-61.446-21.136C218.9 51.8 209.438 79.31 220.568 102.113a45.775 45.775 0 0 0 2.021 3.698l-107.384 86.991a6.143 6.143 0 0 0-2.021 2.973 6.225 6.225 0 0 0 1.189 5.841 6.436 6.436 0 0 0 8.95.906l107.384-86.777c13.514 12.454 33.797 16.05 51.307 7.503 22.804-11.132 32.266-38.641 21.136-61.445Zm-26.604 50.252a33.455 33.455 0 0 1-30.646-.658 32.631 32.631 0 0 1-5.151-3.435 33.108 33.108 0 0 1-4.54-4.46 33.874 33.874 0 0 1-4.445-6.855 33.476 33.476 0 0 1 23.329-47.5 33.478 33.478 0 0 1 19.928 2.019 33.4 33.4 0 0 1 14.493 11.906 33.49 33.49 0 0 1-12.968 48.983Z"/><path fill="#fff" d="M247.17 51.86a33.52 33.52 0 0 0-10.96 51.642 33.383 33.383 0 0 0 9.689 7.895 33.493 33.493 0 0 0 40.818-7.006 33.491 33.491 0 0 0-16.288-54.81 33.486 33.486 0 0 0-23.259 2.278Z" opacity=".3"/><path fill="#9B453A" d="M105.756 175.604s6.725 2.659 14.983-4.506c0 0-6.083-8.451-14.983 4.506Z"/><path fill="#F69D85" d="M127.479 107.512a8.569 8.569 0 0 0-9.8 7.125l-20.81 28.259-.086.535a6.29 6.29 0 0 0 .268 3.002l14.205 41.548a5.519 5.519 0 0 0 9.901 1.15 5.529 5.529 0 0 0 .746-3.979l-8.29-43.119 13.032-20.239c.738-4.674 5.508-13.543.834-14.282Z"/><path fill="#FF593A" d="M128.703 100.955s-11.079 3.216-21.36 16.014c-5.529 6.883-13.498 22.032-12.95 28.235.548 6.204 11.364 30.4 11.364 30.4s3.957-5.585 14.982-4.506c0 0-5.21-23.584-5.649-27.132-.44-3.548 11.172-11.819 14.912-20.283 3.986-9.022-1.299-22.728-1.299-22.728Z"/><path fill="#F69D85" d="M114.257 177.353s5.558 2.761 7.642 7.444c2.083 4.682 1.842 6.994.833 8.923-1.009 1.928-8.688-3.286-10.271-6.306-1.583-3.02-2.173-7.128 1.796-10.061Z"/><path fill="#F69D85" d="M121.962 184.832a29.852 29.852 0 0 0 7.636 8.796c1.171.872-.068 2.761-1.329 2.048a30.145 30.145 0 0 1-4.152-2.595c-2.279-1.733-4.428-3.679-6.198-5.942-2.026-2.815 2.647-5.488 4.043-2.307Z"/><path fill="#F69D85" d="M120.577 187.493a32.295 32.295 0 0 0 5.112 7.173c.76 1.199 3.481 2.153 2.325 3.818-1.058 1.509-4.505-1.871-5.602-2.585-2.199-1.85-4.26-3.899-5.948-6.236-1.903-2.868 2.816-5.364 4.113-2.17Z"/><path fill="#F69D85" d="M119.151 188.241c1.13 3.85 3.116 7.538 5.973 10.381 1.038 1.029-.463 2.725-1.608 1.832a26.948 26.948 0 0 1-2.037-1.605 29.035 29.035 0 0 1-6.81-9.348c-1.281-3.22 3.896-4.681 4.482-1.26Z"/><path fill="#F69D85" d="M115.748 186.344c.525 4.731 2.437 9.45 5.804 12.871 1.025 1.065-.556 2.732-1.671 1.773a25.585 25.585 0 0 1-2.334-2.068c-3.047-3.23-5.173-7.303-6.303-11.587-1.285-3.622 4.324-4.833 4.504-.989Z"/><path fill="#AF5945" d="M119.89 197.355a.23.23 0 0 1-.155.063.227.227 0 0 1-.155-.061c-.024-.022-2.34-2.189-3.793-4.951a.227.227 0 0 1 .096-.306.226.226 0 0 1 .306.095c1.416 2.691 3.677 4.808 3.699 4.829a.227.227 0 0 1 .002.331ZM123.63 196.647a.226.226 0 0 1-.3.011 34.328 34.328 0 0 1-4.627-4.87.227.227 0 0 1 .358-.279 33.8 33.8 0 0 0 4.557 4.798.228.228 0 0 1 .031.32l-.019.02ZM124.66 193.256a.227.227 0 0 1-.296.015c-.103-.08-2.533-1.977-3.988-3.785a.236.236 0 0 1-.042-.078.227.227 0 0 1 .075-.242.23.23 0 0 1 .253-.022.236.236 0 0 1 .068.058c1.421 1.765 3.888 3.691 3.913 3.71a.234.234 0 0 1 .086.151.236.236 0 0 1-.046.168l-.023.025Z"/><path fill="#9B453A" d="M119.967 166.911a.276.276 0 0 1-.231.074c-9.235-1.332-15.531 4.627-15.594 4.69a.277.277 0 0 1-.197.076.281.281 0 0 1-.196-.082.28.28 0 0 1 .007-.393c.062-.06 6.542-6.214 16.059-4.842.052.007.1.029.14.063a.27.27 0 0 1 .085.128.275.275 0 0 1-.073.286ZM119.012 162.514a.28.28 0 0 1-.227.075c-10.161-1.31-16.406 4.74-16.464 4.801a.284.284 0 0 1-.394-.002.279.279 0 0 1 .002-.393c.064-.061 6.488-6.303 16.927-4.958a.276.276 0 0 1 .229.189.282.282 0 0 1-.073.288ZM120.054 136.926a.265.265 0 0 1-.245-.168.256.256 0 0 1-.01-.155.26.26 0 0 1 .079-.134c.097-.088 9.801-8.97 11.132-17.486a.263.263 0 0 1 .3-.221.272.272 0 0 1 .172.106.263.263 0 0 1 .046.196c-1.359 8.7-11.199 17.704-11.298 17.794a.26.26 0 0 1-.176.068ZM164.17 137.693a.263.263 0 0 1-.195-.437c.008-.01 1.042-1.271 1.605-6.465.568-5.249-4.793-13.389-4.847-13.47a.263.263 0 0 1 .271-.403.261.261 0 0 1 .166.112c.226.34 5.52 8.38 4.931 13.818-.588 5.427-1.689 6.707-1.736 6.758a.255.255 0 0 1-.195.087Z"/><path fill="#000" d="M131.504 394h-2.736l-8.232-12.456V394H117.8v-16.704h2.736l8.232 12.432v-12.432h2.736V394Zm9.329.216c-1.248 0-2.376-.28-3.384-.84a6.227 6.227 0 0 1-2.376-2.4c-.576-1.04-.864-2.24-.864-3.6 0-1.344.296-2.536.888-3.576a6.134 6.134 0 0 1 2.424-2.4c1.024-.56 2.168-.84 3.432-.84 1.264 0 2.408.28 3.432.84a6.134 6.134 0 0 1 2.424 2.4c.592 1.04.888 2.232.888 3.576 0 1.344-.304 2.536-.912 3.576a6.377 6.377 0 0 1-2.496 2.424c-1.04.56-2.192.84-3.456.84Zm0-2.376c.704 0 1.36-.168 1.968-.504.624-.336 1.128-.84 1.512-1.512.384-.672.576-1.488.576-2.448s-.184-1.768-.552-2.424c-.368-.672-.856-1.176-1.464-1.512a4.004 4.004 0 0 0-1.968-.504c-.704 0-1.36.168-1.968.504-.592.336-1.064.84-1.416 1.512-.352.656-.528 1.464-.528 2.424 0 1.424.36 2.528 1.08 3.312.736.768 1.656 1.152 2.76 1.152Zm18.995-8.832v7.32c0 .496.112.856.336 1.08.24.208.64.312 1.2.312h1.68V394h-2.16c-1.232 0-2.176-.288-2.832-.864-.656-.576-.984-1.512-.984-2.808v-7.32h-1.56v-2.232h1.56v-3.288h2.76v3.288h3.216v2.232h-3.216Zm17.858 4.056c0 .496-.032.944-.096 1.344h-10.104c.08 1.056.472 1.904 1.176 2.544.704.64 1.568.96 2.592.96 1.472 0 2.512-.616 3.12-1.848h2.952c-.4 1.216-1.128 2.216-2.184 3-1.04.768-2.336 1.152-3.888 1.152-1.264 0-2.4-.28-3.408-.84a6.278 6.278 0 0 1-2.352-2.4c-.56-1.04-.84-2.24-.84-3.6 0-1.36.272-2.552.816-3.576.56-1.04 1.336-1.84 2.328-2.4 1.008-.56 2.16-.84 3.456-.84 1.248 0 2.36.272 3.336.816a5.746 5.746 0 0 1 2.28 2.304c.544.976.816 2.104.816 3.384Zm-2.856-.864c-.016-1.008-.376-1.816-1.08-2.424-.704-.608-1.576-.912-2.616-.912-.944 0-1.752.304-2.424.912-.672.592-1.072 1.4-1.2 2.424h7.32Zm21.556-5.64c1.04 0 1.968.216 2.784.648a4.59 4.59 0 0 1 1.944 1.92c.48.848.72 1.872.72 3.072v7.8h-2.712v-7.392c0-1.184-.296-2.088-.888-2.712-.592-.64-1.4-.96-2.424-.96s-1.84.32-2.448.96c-.592.624-.888 1.528-.888 2.712V394h-2.712v-7.392c0-1.184-.296-2.088-.888-2.712-.592-.64-1.4-.96-2.424-.96s-1.84.32-2.448.96c-.592.624-.888 1.528-.888 2.712V394h-2.736v-13.224h2.736v1.512a4.549 4.549 0 0 1 1.704-1.272 5.402 5.402 0 0 1 2.208-.456c1.056 0 2 .224 2.832.672a4.593 4.593 0 0 1 1.92 1.944c.4-.8 1.024-1.432 1.872-1.896.848-.48 1.76-.72 2.736-.72Zm11.666 2.16c.464-.608 1.096-1.12 1.896-1.536.8-.416 1.704-.624 2.712-.624 1.152 0 2.2.288 3.144.864.96.56 1.712 1.352 2.256 2.376.544 1.024.816 2.2.816 3.528 0 1.328-.272 2.52-.816 3.576-.544 1.04-1.296 1.856-2.256 2.448-.944.576-1.992.864-3.144.864-1.008 0-1.904-.2-2.688-.6-.784-.416-1.424-.928-1.92-1.536v8.208h-2.736v-19.512h2.736v1.944Zm8.04 4.608c0-.912-.192-1.696-.576-2.352-.368-.672-.864-1.176-1.488-1.512a3.862 3.862 0 0 0-1.968-.528c-.688 0-1.344.176-1.968.528-.608.352-1.104.864-1.488 1.536-.368.672-.552 1.464-.552 2.376 0 .912.184 1.712.552 2.4.384.672.88 1.184 1.488 1.536.624.352 1.28.528 1.968.528.704 0 1.36-.176 1.968-.528.624-.368 1.12-.896 1.488-1.584.384-.688.576-1.488.576-2.4Zm8.225-11.088V394h-2.736v-17.76h2.736Zm2.68 11.088c0-1.328.272-2.504.816-3.528.56-1.024 1.312-1.816 2.256-2.376a6.042 6.042 0 0 1 3.168-.864c1.04 0 1.944.208 2.712.624.784.4 1.408.904 1.872 1.512v-1.92h2.76V394h-2.76v-1.968c-.464.624-1.096 1.144-1.896 1.56-.8.416-1.712.624-2.736.624a5.875 5.875 0 0 1-3.12-.864c-.944-.592-1.696-1.408-2.256-2.448-.544-1.056-.816-2.248-.816-3.576Zm10.824.048c0-.912-.192-1.704-.576-2.376-.368-.672-.856-1.184-1.464-1.536a3.862 3.862 0 0 0-1.968-.528c-.704 0-1.36.176-1.968.528-.608.336-1.104.84-1.488 1.512-.368.656-.552 1.44-.552 2.352 0 .912.184 1.712.552 2.4.384.688.88 1.216 1.488 1.584.624.352 1.28.528 1.968.528.704 0 1.36-.176 1.968-.528.608-.352 1.096-.864 1.464-1.536.384-.688.576-1.488.576-2.4Zm9.546-4.368v7.32c0 .496.112.856.336 1.08.24.208.64.312 1.2.312h1.68V394h-2.16c-1.232 0-2.176-.288-2.832-.864-.656-.576-.984-1.512-.984-2.808v-7.32h-1.56v-2.232h1.56v-3.288h2.76v3.288h3.216v2.232h-3.216Zm17.858 4.056c0 .496-.032.944-.096 1.344h-10.104c.08 1.056.472 1.904 1.176 2.544.704.64 1.568.96 2.592.96 1.472 0 2.512-.616 3.12-1.848h2.952c-.4 1.216-1.128 2.216-2.184 3-1.04.768-2.336 1.152-3.888 1.152-1.264 0-2.4-.28-3.408-.84a6.278 6.278 0 0 1-2.352-2.4c-.56-1.04-.84-2.24-.84-3.6 0-1.36.272-2.552.816-3.576.56-1.04 1.336-1.84 2.328-2.4 1.008-.56 2.16-.84 3.456-.84 1.248 0 2.36.272 3.336.816a5.746 5.746 0 0 1 2.28 2.304c.544.976.816 2.104.816 3.384Zm-2.856-.864c-.016-1.008-.376-1.816-1.08-2.424-.704-.608-1.576-.912-2.616-.912-.944 0-1.752.304-2.424.912-.672.592-1.072 1.4-1.2 2.424h7.32Zm10.348 8.016c-1.04 0-1.976-.184-2.808-.552-.816-.384-1.464-.896-1.944-1.536a3.886 3.886 0 0 1-.768-2.184h2.832c.048.56.312 1.032.792 1.416.496.368 1.112.552 1.848.552.768 0 1.36-.144 1.776-.432.432-.304.648-.688.648-1.152 0-.496-.24-.864-.72-1.104-.464-.24-1.208-.504-2.232-.792-.992-.272-1.8-.536-2.424-.792a4.351 4.351 0 0 1-1.632-1.176c-.448-.528-.672-1.224-.672-2.088 0-.704.208-1.344.624-1.92.416-.592 1.008-1.056 1.776-1.392.784-.336 1.68-.504 2.688-.504 1.504 0 2.712.384 3.624 1.152.928.752 1.424 1.784 1.488 3.096h-2.736c-.048-.592-.288-1.064-.72-1.416-.432-.352-1.016-.528-1.752-.528-.72 0-1.272.136-1.656.408-.384.272-.576.632-.576 1.08 0 .352.128.648.384.888s.568.432.936.576c.368.128.912.296 1.632.504.96.256 1.744.52 2.352.792.624.256 1.16.64 1.608 1.152.448.512.68 1.192.696 2.04 0 .752-.208 1.424-.624 2.016-.416.592-1.008 1.056-1.776 1.392-.752.336-1.64.504-2.664.504Zm26.159-13.44-8.112 19.44h-2.832l2.688-6.432-5.208-13.008h3.048l3.72 10.08 3.864-10.08h2.832Zm14.185 6.288c0 .496-.032.944-.096 1.344h-10.104c.08 1.056.472 1.904 1.176 2.544.704.64 1.568.96 2.592.96 1.472 0 2.512-.616 3.12-1.848h2.952c-.4 1.216-1.128 2.216-2.184 3-1.04.768-2.336 1.152-3.888 1.152-1.264 0-2.4-.28-3.408-.84a6.278 6.278 0 0 1-2.352-2.4c-.56-1.04-.84-2.24-.84-3.6 0-1.36.272-2.552.816-3.576.56-1.04 1.336-1.84 2.328-2.4 1.008-.56 2.16-.84 3.456-.84 1.248 0 2.36.272 3.336.816a5.746 5.746 0 0 1 2.28 2.304c.544.976.816 2.104.816 3.384Zm-2.856-.864c-.016-1.008-.376-1.816-1.08-2.424-.704-.608-1.576-.912-2.616-.912-.944 0-1.752.304-2.424.912-.672.592-1.072 1.4-1.2 2.424h7.32Zm8.74-3.192v7.32c0 .496.112.856.336 1.08.24.208.64.312 1.2.312h1.68V394h-2.16c-1.232 0-2.176-.288-2.832-.864-.656-.576-.984-1.512-.984-2.808v-7.32h-1.56v-2.232h1.56v-3.288h2.76v3.288h3.216v2.232h-3.216Z" opacity=".5"/></svg>